<?xml version="1.0" encoding="UTF-8" standalone="no"?>
<!-- Created with Inkscape (http://www.inkscape.org/) -->

<svg
   xmlns:dc="http://purl.org/dc/elements/1.1/"
   xmlns:cc="http://creativecommons.org/ns#"
   xmlns:rdf="http://www.w3.org/1999/02/22-rdf-syntax-ns#"
   xmlns:svg="http://www.w3.org/2000/svg"
   xmlns="http://www.w3.org/2000/svg"
   xmlns:xlink="http://www.w3.org/1999/xlink"
   xmlns:sodipodi="http://sodipodi.sourceforge.net/DTD/sodipodi-0.dtd"
   xmlns:inkscape="http://www.inkscape.org/namespaces/inkscape"
   version="1.1"
   id="svg2"
   width="48"
   height="48"
   viewBox="0 0 47.999999 48.000001"
   sodipodi:docname="Angler-Fish.svg"
   inkscape:version="0.92.3 (2405546, 2018-03-11)"
   inkscape:export-filename="/home/luca/Dropbox/MATLAB scripts/ObjectFinder/ObjectFinder_resources/48px-Angler-Fish.png"
   inkscape:export-xdpi="95.800003"
   inkscape:export-ydpi="95.800003">
  <metadata
     id="metadata8">
    <rdf:RDF>
      <cc:Work
         rdf:about="">
        <dc:format>image/svg+xml</dc:format>
        <dc:type
           rdf:resource="http://purl.org/dc/dcmitype/StillImage" />
        <dc:title></dc:title>
      </cc:Work>
    </rdf:RDF>
  </metadata>
  <defs
     id="defs6">
    <linearGradient
       inkscape:collect="always"
       id="linearGradient949">
      <stop
         style="stop-color:#69c3de;stop-opacity:1;"
         offset="0"
         id="stop945" />
      <stop
         style="stop-color:#69c3de;stop-opacity:0;"
         offset="1"
         id="stop947" />
    </linearGradient>
    <linearGradient
       inkscape:collect="always"
       id="linearGradient941">
      <stop
         style="stop-color:#323232;stop-opacity:1;"
         offset="0"
         id="stop937" />
      <stop
         style="stop-color:#323232;stop-opacity:0;"
         offset="1"
         id="stop939" />
    </linearGradient>
    <radialGradient
       inkscape:collect="always"
       xlink:href="#linearGradient3204"
       id="radialGradient3325"
       gradientUnits="userSpaceOnUse"
       gradientTransform="matrix(2.6895855,0,0,0.34092605,-2.4758948,37.333712)"
       cx="11"
       cy="22"
       fx="11"
       fy="22"
       r="8" />
    <linearGradient
       inkscape:collect="always"
       id="linearGradient3204">
      <stop
         style="stop-color:#000000;stop-opacity:1"
         offset="0"
         id="stop3206" />
      <stop
         style="stop-color:#000000;stop-opacity:0"
         offset="1"
         id="stop3208" />
    </linearGradient>
    <linearGradient
       inkscape:collect="always"
       xlink:href="#linearGradient941"
       id="linearGradient943"
       x1="34.853016"
       y1="20.399178"
       x2="41.31126"
       y2="20.482702"
       gradientUnits="userSpaceOnUse"
       gradientTransform="matrix(1.1587746,0,0,1.1587746,-0.18664977,-1.8718818)" />
    <linearGradient
       inkscape:collect="always"
       xlink:href="#linearGradient949"
       id="linearGradient951"
       x1="36.146393"
       y1="25.210831"
       x2="47.941742"
       y2="25.440939"
       gradientUnits="userSpaceOnUse" />
  </defs>
  <sodipodi:namedview
     pagecolor="#ffffff"
     bordercolor="#666666"
     borderopacity="1"
     objecttolerance="10"
     gridtolerance="10"
     guidetolerance="10"
     inkscape:pageopacity="0"
     inkscape:pageshadow="2"
     inkscape:window-width="1853"
     inkscape:window-height="1016"
     id="namedview4"
     showgrid="false"
     inkscape:zoom="8.6915205"
     inkscape:cx="40.5975"
     inkscape:cy="31.703222"
     inkscape:window-x="67"
     inkscape:window-y="27"
     inkscape:window-maximized="1"
     inkscape:current-layer="svg2" />
  <ellipse
     ry="2.7274079"
     rx="21.51668"
     cy="44.834068"
     cx="27.10956"
     id="path3202"
     style="color:#000000;display:block;overflow:visible;visibility:visible;opacity:0.2;fill:url(#radialGradient3325);fill-opacity:1;fill-rule:nonzero;stroke:none;stroke-width:1.91514945;stroke-linecap:round;stroke-linejoin:miter;stroke-miterlimit:4;stroke-dasharray:none;stroke-dashoffset:17.85000038;stroke-opacity:1;marker:none;marker-start:none;marker-mid:none;marker-end:none" />
  <ellipse
     cy="11.3932"
     cx="15.497788"
     id="path856"
     style="opacity:1;fill:#ffe680;fill-opacity:1;stroke:none;stroke-width:0.17538007;stroke-miterlimit:4;stroke-dasharray:none;stroke-opacity:1"
     rx="1.7334615"
     ry="1.9241755" />
  <path
     sodipodi:nodetypes="cccccccccccccccccccccc"
     inkscape:connector-curvature="0"
     id="path835"
     d="m 14.86128,25.153055 0.05417,3.247047 1.029243,3.60783 2.004313,3.667954 2.004316,2.224828 3.521096,2.345091 3.196069,1.44313 4.116971,0.180394 3.846115,-0.841827 4.171146,-2.525482 1.950141,-2.164694 1.841805,-2.46535 1.78763,-2.224829 2.220998,-1.563391 c 1.852271,-0.627008 3.813685,-1.369914 6.283797,-2.946394 -3.644108,-0.888897 -5.88127,-2.64613 -8.829821,-4.75031 -3.251749,-2.637575 -5.139791,-5.53086 -7.692234,-7.756833 -1.675734,-1.386118 -2.958561,-2.68088 -5.525409,-3.066653 -2.9635,-0.104579 -4.109784,0.220827 -5.904601,0.601307 l 4.116971,12.447008 -12.892624,0.06013 z"
     style="fill:url(#linearGradient951);fill-opacity:1;stroke:none;stroke-width:0.35076013px;stroke-linecap:butt;stroke-linejoin:miter;stroke-opacity:1" />
  <path
     inkscape:connector-curvature="0"
     id="path14"
     d="m 28.467103,42.791478 c -2.797344,-0.269109 -5.492682,-1.337392 -7.860114,-3.115317 -1.290587,-0.969216 -3.238671,-3.140971 -4.082692,-4.551445 -1.602363,-2.677765 -2.407195,-5.40325 -2.541456,-8.606409 l -0.06497,-1.550082 0.370646,-0.448938 c 0.327436,-0.396609 0.440991,-0.455415 0.974141,-0.504492 l 0.603499,-0.05555 v -1.627846 c 0,-1.378324 0.02858,-1.665337 0.186438,-1.872422 0.28752,-0.377172 0.679395,-0.429013 1.016698,-0.134501 l 0.288361,0.251784 v 1.706136 1.706136 h 0.745752 0.745748 V 23.05843 c 0,-1.134324 0.215516,-1.553283 0.799017,-1.553283 0.583504,0 0.79902,0.418959 0.79902,1.553283 v 0.930105 h 0.799017 0.799017 v -0.57818 c 0,-0.971048 0.621245,-1.465332 1.203136,-0.957261 0.250176,0.218444 0.288363,0.336773 0.288363,0.893613 v 0.641828 h 2.237248 c 1.230486,0 2.236759,-0.01329 2.23616,-0.02955 -0.0072,-0.195645 -1.178263,-3.339534 -1.242684,-3.336195 -0.04836,0.0028 -0.291817,0.07749 -0.541012,0.16664 -0.545995,0.195329 -0.934693,0.05062 -1.091181,-0.406256 -0.163033,-0.475988 0.03911,-0.868817 0.585018,-1.136862 0.531378,-0.260916 0.557104,-0.345299 0.307378,-1.008334 -0.09486,-0.251847 -0.212791,-0.5755 -0.262075,-0.719226 l -0.08961,-0.261322 -0.764667,0.350014 c -0.928677,0.425089 -1.097223,0.432116 -1.432684,0.05975 -0.529658,-0.587931 -0.21527,-1.162506 0.902426,-1.649266 0.414546,-0.180532 0.753717,-0.34111 0.753717,-0.356833 0,-0.01574 -0.116289,-0.343618 -0.258423,-0.728654 -0.198881,-0.538773 -0.303196,-0.690795 -0.452777,-0.659845 -0.106897,0.02215 -0.711985,0.274893 -1.344653,0.561716 -0.632664,0.286831 -1.246089,0.521505 -1.363171,0.521505 -0.274415,0 -0.735864,-0.511592 -0.735864,-0.81583 0,-0.4469 0.467027,-0.8086 1.777563,-1.376691 l 1.298155,-0.56272 -0.259435,-0.765078 c -0.304812,-0.898925 -0.323548,-1.31986 -0.0837,-1.8809057 0.210923,-0.493388 0.490983,-0.711363 1.295465,-1.008279 0.785952,-0.290076 2.863353,-0.6858942 3.599839,-0.6858942 0.539848,0 0.575358,-0.017914 0.575358,-0.2902623 0,-0.3863501 -0.428639,-1.6800575 -0.77051,-2.325523 C 27.754653,4.4023907 26.415902,3.2680014 25.093578,2.8322592 24.359748,2.5904405 24.107372,2.5682211 22.549497,2.6082747 c -2.007161,0.051605 -2.532479,0.2083861 -3.726893,1.1122942 -1.166809,0.8830149 -2.039773,2.3043578 -2.369912,3.8586515 -0.239952,1.1296849 -0.223679,1.2088319 0.321398,1.5634139 0.881751,0.573592 1.361719,1.8016107 1.122677,2.8724227 -0.06897,0.308948 -0.241382,0.758337 -0.383138,0.998642 -0.832069,1.410532 -2.865025,1.490144 -3.859354,0.151141 -0.973335,-1.310741 -0.613488,-3.3212787 0.730684,-4.0824687 0.373822,-0.211691 0.415835,-0.281123 0.415835,-0.687191 0,-0.2484377 0.09275,-0.8542324 0.206102,-1.3462085 0.672134,-2.9171531 2.77386,-5.2428543 5.387022,-5.9610962 1.031978,-0.28364468 3.75321,-0.28638598 4.774003,-0.00481 2.872963,0.7924826 5.061914,3.4402961 5.553285,6.7173977 l 0.06402,0.4269774 0.954581,0.1448018 c 0.525023,0.079641 1.198866,0.2163328 1.497433,0.3037588 0.465557,0.136323 0.60618,0.133904 0.987651,-0.01699 1.495949,-0.5917247 3.43799,-0.7089052 4.879835,-0.2944412 0.98315,0.2826092 2.298622,0.9989792 3.058095,1.6653559 1.636169,1.435606 3.172246,4.557928 4.19192,8.520753 l 0.334256,1.299035 0.968432,0.694495 c 1.115497,0.799962 1.95505,1.284249 3.106658,1.792049 0.899708,0.396725 0.805246,0.41829 1.59513,-0.364191 0.590058,-0.584525 1.92537,-1.572833 2.792363,-2.066717 1.066955,-0.607784 1.976712,-0.518045 2.715948,0.267918 0.896136,0.952786 1.481396,5.522804 1.156173,9.028031 -0.151232,1.629946 -0.389852,2.254122 -1.058508,2.768771 -0.393045,0.302517 -0.559915,0.35516 -1.118624,0.35289 -0.573814,-0.0021 -0.797819,-0.08006 -1.775296,-0.616054 -0.615244,-0.337359 -1.641927,-0.991832 -2.281521,-1.454378 -1.152989,-0.833827 -1.167511,-0.840295 -1.70457,-0.759071 -0.829827,0.125498 -2.055372,0.505502 -2.924162,0.906688 l -0.784451,0.362241 0.06713,0.663366 c 0.19956,1.97191 -0.838141,4.003491 -2.467974,4.831747 -0.718071,0.364915 -1.9814,0.491167 -2.753965,0.27523 l -0.498099,-0.13922 -1.129934,1.226036 c -1.232105,1.336899 -2.007242,2.027348 -3.154106,2.809496 -2.695535,1.838312 -5.833196,2.664454 -8.972519,2.362443 z m 4.444755,-2.044596 c 3.101305,-0.9118 5.756149,-2.916177 8.021474,-6.056129 1.067437,-1.479567 1.722079,-2.241378 2.738626,-3.186962 2.035801,-1.893684 4.25369,-3.066598 6.858561,-3.627109 0.591255,-0.127223 1.185921,-0.311978 1.32147,-0.410568 0.597918,-0.434868 0.836262,-1.460589 0.504752,-2.172192 -0.229811,-0.493299 -0.614448,-0.784342 -1.41949,-1.074076 -1.14526,-0.41218 -3.175424,-1.554399 -4.460804,-2.509758 -2.108602,-1.567215 -3.867511,-3.299573 -5.712795,-5.626554 -2.786557,-3.513968 -5.927783,-5.557884 -9.313382,-6.059985 -1.272475,-0.1887127 -3.759195,-0.0686 -4.930554,0.238161 -1.285789,0.336725 -1.384963,0.374818 -1.384963,0.531969 0,0.07731 1.030734,3.11043 2.290518,6.740263 1.397629,4.027002 2.290516,6.759358 2.290516,7.009269 0,0.295001 -0.0871,0.506256 -0.311412,0.755239 l -0.311413,0.345674 h -6.841125 -6.841129 l 0.07543,1.034746 c 0.446223,6.121796 3.784492,11.075261 9.009407,13.368518 1.849131,0.811596 3.344628,1.085861 5.646389,1.035509 1.464253,-0.03203 1.926875,-0.08816 2.769929,-0.336015 z m 4.953905,-9.946591 c -0.606509,-0.29627 -3.749606,-2.655008 -4.028977,-3.023553 -0.534953,-0.7057 -0.589896,-1.777071 -0.131004,-2.554483 0.245521,-0.415939 3.901015,-3.087074 4.448767,-3.250797 0.801934,-0.239695 1.721332,0.229117 2.110678,1.07627 0.192961,0.419843 0.210465,0.699686 0.20832,3.330788 -0.0019,2.539504 -0.02513,2.92726 -0.199017,3.345462 -0.446316,1.073434 -1.474315,1.532774 -2.408767,1.076313 z m 0.990783,-1.63212 c 0.09154,-0.101613 0.127841,-0.867215 0.127841,-2.696252 0,-2.598246 -0.03473,-2.838162 -0.410836,-2.838162 -0.08533,0 -0.938688,0.569822 -1.896334,1.266266 -1.428469,1.038844 -1.741181,1.315903 -1.741181,1.542641 0,0.227099 0.318154,0.507367 1.784387,1.571895 0.981412,0.712534 1.834764,1.295519 1.896333,1.295519 0.06158,0 0.169477,-0.06386 0.23979,-0.141907 z M 30.6165,16.129839 c -0.319465,-0.354604 -0.33066,-0.644548 -0.0407,-1.053736 0.451792,-0.637554 1.314283,-0.274435 1.293307,0.544494 -0.01911,0.74611 -0.765764,1.049656 -1.252612,0.509242 z M 16.303173,12.72073 c 0.23275,-0.173553 0.417881,-0.447997 0.518513,-0.768666 0.137673,-0.438668 0.137673,-0.558803 0,-0.997471 -0.225206,-0.717609 -0.735741,-1.0769117 -1.428336,-1.0052337 -1.315004,0.1360917 -1.707701,1.9444787 -0.601883,2.7716777 0.468295,0.350303 1.041677,0.350186 1.511706,-3.44e-4 z"
     style="fill:url(#linearGradient943);fill-opacity:1;stroke:none;stroke-width:0.11224325" />
  <rect
     transform="matrix(-0.65396292,0.7565266,-0.68635897,-0.72726293,0,0)"
     ry="0.83176875"
     y="-19.020992"
     x="1.0983152"
     height="1.6635375"
     width="13.624662"
     id="rect874"
     style="opacity:1;fill:#ffe680;fill-opacity:1;stroke:#d4aa00;stroke-width:0.45465255;stroke-miterlimit:4;stroke-dasharray:none;stroke-opacity:1" />
  <rect
     transform="matrix(-0.90230308,0.43110225,-0.33751855,-0.94131888,0,0)"
     ry="0.74079043"
     y="-15.813897"
     x="-6.070786"
     height="1.4815809"
     width="10.535016"
     id="rect874-3"
     style="opacity:1;fill:#ffe680;fill-opacity:1;stroke:#d4aa00;stroke-width:0.46134821;stroke-miterlimit:4;stroke-dasharray:none;stroke-opacity:1" />
  <rect
     transform="matrix(-0.25566716,0.96676486,-0.95079679,-0.30981521,0,0)"
     ry="0.79444373"
     y="-18.044485"
     x="10.450532"
     height="1.5888875"
     width="13.876514"
     id="rect874-3-6"
     style="opacity:1;fill:#ffe680;fill-opacity:1;stroke:#d4aa00;stroke-width:0.56470972;stroke-miterlimit:4;stroke-dasharray:none;stroke-opacity:1" />
</svg>
