<?xml version="1.0" encoding="iso-8859-1"?>
<!-- Generator: Adobe Illustrator 19.0.0, SVG Export Plug-In . SVG Version: 6.00 Build 0)  -->
<svg version="1.1" id="Capa_1" xmlns="http://www.w3.org/2000/svg" xmlns:xlink="http://www.w3.org/1999/xlink" x="0px" y="0px"
	 viewBox="0 0 511.997 511.997" style="enable-background:new 0 0 511.997 511.997;" xml:space="preserve">
<circle style="fill:#F5DCB4;" cx="216.107" cy="255.998" r="192.26"/>
<path style="fill:#EBC9A0;" d="M280.197,384.17c-106.181,0-192.258-86.077-192.258-192.258c0-36.667,10.274-70.931,28.086-100.086
	c-55.274,33.769-92.172,94.658-92.172,164.172c0,106.181,86.077,192.258,192.258,192.258c69.514,0,130.403-36.899,164.172-92.172
	C351.127,373.897,316.863,384.17,280.197,384.17z"/>
<path style="fill:#FFC850;" d="M495.095,161.529l-96.391,17.01c-3.554,0.627-7.107-1.177-8.623-4.452
	c-5.618-12.14-13.32-26.438-20.635-36.646c18.155-20.123,16.303-41.441,14.26-50.796c-0.598-2.739-3.329-4.405-6.053-3.743
	l-54.658,13.281c-30.56-20.49-67.323-32.443-106.884-32.443c-75.028,0-140.018,42.977-171.695,105.656L21.42,178.92
	c-3.429,1.42-5.487,5.084-4.64,8.698c1.83,7.8,6.104,16.629,11.412,23.987c-13.565,5.964-18.254,15.5-19.865,21.766
	c-0.878,3.415,1.182,6.924,4.56,7.933c74.751,22.317,181.019,24.621,210.958,24.748c5.815,0.024,10.534-9.286,16.298-10.055
	c120.161-16.021,165.255-33.51,165.255-33.51l89.697,15.829c4.905,0.866,9.403-2.908,9.403-7.889v-61.011
	C504.497,164.436,500,160.663,495.095,161.529z"/>
<path style="fill:#EBAF4B;" d="M12.891,241.306c26.576,7.933,57.135,13.333,86.832,17.01c-7.618-20.697-11.784-43.063-11.784-66.404
	c0-36.628,10.255-70.856,28.032-99.991c-30.464,18.633-55.374,45.457-71.555,77.475L21.42,178.92
	c-3.429,1.42-5.487,5.084-4.64,8.698c1.83,7.8,6.104,16.629,11.412,23.986c-13.567,5.966-18.255,15.504-19.865,21.77
	C7.449,236.788,9.513,240.297,12.891,241.306z"/>
<path style="fill:#4B3F4E;" d="M95.949,199.923L95.949,199.923c-8.848,0-16.022-7.173-16.022-16.021v-8.011
	c0-8.848,7.173-16.021,16.021-16.021l0,0c8.848,0,16.021,7.173,16.021,16.021v8.011C111.971,192.75,104.798,199.923,95.949,199.923z
	"/>
<circle style="fill:#FFFFFF;" cx="95.947" cy="175.888" r="8.5"/>
<path style="fill:#EBAF4B;" d="M495.095,161.529l-96.391,17.01c0,0,0.554,0.021,0,0c14.423,0.556,24.684,12.539,24.684,22.858
	c0,9.568-7.387,17.732-17.837,21.119l89.543,15.801c4.906,0.865,9.403-2.908,9.403-7.889v-61.011
	C504.497,164.436,500,160.663,495.095,161.529z"/>
<path d="M95.95,152.369c-12.97,0-23.521,10.552-23.521,23.521v8.011c0,12.97,10.552,23.521,23.521,23.521
	s23.521-10.552,23.521-23.521v-8.011C119.471,162.921,108.919,152.369,95.95,152.369z M104.471,183.902
	c0,4.699-3.823,8.521-8.521,8.521s-8.521-3.822-8.521-8.521v-8.011c0-4.699,3.823-8.521,8.521-8.521s8.521,3.822,8.521,8.521
	V183.902z"/>
<path d="M506.456,157.535c-3.521-2.955-8.139-4.189-12.665-3.393L397,171.223c-5.292-11.271-11.665-22.052-18.977-32.164
	c9.29-11.628,12.851-23.288,14.003-32.383c1.972-15.561-2.525-27.181-2.718-27.668c-1.376-3.481-5.106-5.415-8.747-4.532
	l-56.168,13.648c-8.021-5.187-16.357-9.764-24.948-13.716l3.3-7.966c1.585-3.827-0.232-8.214-4.059-9.799
	c-3.826-1.588-8.214,0.23-9.799,4.059l-3.298,7.961c-19.754-7.331-40.63-11.493-61.978-12.283V39.708c0-4.143-3.358-7.5-7.5-7.5
	s-7.5,3.357-7.5,7.5v16.675c-21.3,0.793-42.199,4.961-61.975,12.29l-3.301-7.97c-1.585-3.827-5.973-5.643-9.799-4.059
	c-3.827,1.585-5.644,5.972-4.059,9.799l3.302,7.972c-7.817,3.59-15.422,7.689-22.76,12.297
	c-10.656,6.691-20.594,14.357-29.739,22.84l-3.046-3.05c-2.928-2.93-7.677-2.932-10.606-0.006
	c-2.931,2.928-2.933,7.677-0.006,10.607l3.038,3.041c-12.053,12.988-22.38,27.56-30.654,43.375L12.975,174.3
	c-2.917,1.208-4.765,4.113-4.623,7.267c0.513,11.406,7.525,22.385,12.729,29.033c-18.07,11.204-20.848,26.991-20.987,27.862
	c-0.584,3.662,1.597,7.201,5.13,8.327c3.616,1.152,7.362,2.266,11.223,3.348c-0.056,1.959-0.092,3.917-0.092,5.861
	c0,24.415,4.411,47.817,12.464,69.461l-1.164,0.482c-3.827,1.585-5.644,5.972-4.059,9.799c1.196,2.889,3.989,4.632,6.932,4.632
	c0.957,0,1.929-0.185,2.867-0.573l1.184-0.49c8.914,19.347,20.833,37.032,35.155,52.462l-6.2,6.2c-2.929,2.929-2.929,7.678,0,10.606
	c1.465,1.465,3.384,2.197,5.304,2.197c1.919,0,3.839-0.732,5.303-2.196l6.201-6.2c15.429,14.321,33.114,26.24,52.46,35.154
	l-3.323,8.022c-1.585,3.827,0.232,8.214,4.059,9.799c0.939,0.39,1.911,0.573,2.867,0.573c2.943,0,5.736-1.744,6.932-4.632
	l3.314-8.001c19.417,7.225,40.252,11.504,61.962,12.309v16.687c0,4.143,3.358,7.5,7.5,7.5s7.5-3.357,7.5-7.5v-16.687
	c21.709-0.806,42.544-5.085,61.961-12.309l3.314,8.001c1.197,2.889,3.989,4.632,6.932,4.632c0.957,0,1.929-0.185,2.867-0.573
	c3.827-1.585,5.644-5.972,4.059-9.799l-3.323-8.022c19.347-8.914,37.031-20.833,52.46-35.154l6.201,6.2
	c1.465,1.464,3.384,2.196,5.303,2.196s3.839-0.732,5.304-2.197c2.929-2.929,2.928-7.678,0-10.606l-6.2-6.2
	c14.322-15.429,26.24-33.114,35.155-52.461l1.183,0.49c0.939,0.389,1.912,0.573,2.869,0.573c2.942,0,5.734-1.743,6.931-4.63
	c1.586-3.827-0.23-8.215-4.056-9.801l-1.166-0.483c8.053-21.644,12.464-45.046,12.464-69.46c0-8.019-0.508-16.16-1.514-24.313
	l79.438,14.019c4.525,0.799,9.143-0.438,12.665-3.393s5.537-7.286,5.537-11.883v-61.012
	C511.997,164.821,509.978,160.49,506.456,157.535z M496.997,230.429c0,0.065,0,0.237-0.183,0.391s-0.352,0.124-0.417,0.112
	L406.7,215.103c-0.132-0.023-0.265-0.03-0.397-0.046c-1.747-0.745-3.776-0.834-5.685-0.085
	c-27.342,10.742-61.012,18.828-100.074,24.033c-4.106,0.548-6.991,4.319-6.443,8.425c0.502,3.771,3.723,6.511,7.425,6.511
	c0.33,0,0.664-0.021,1-0.066c37.072-4.94,69.542-12.453,96.681-22.344c1.101,8.21,1.661,16.41,1.661,24.468
	c0,101.876-82.882,184.758-184.758,184.758S31.353,357.874,31.353,255.998c0-0.661,0.019-1.329,0.026-1.993
	c28.108,6.716,61.687,11.818,100.235,15.215c42.419,3.738,78.609,4.275,92.199,4.333c0.033,0,0.065,0,0.099,0
	c8.456,0,16.286-4.588,20.451-11.989c0.474-0.842,0.972-1.734,1.487-2.663c4.231-0.159,13.018-0.573,24.953-1.579
	c4.127-0.349,7.191-3.977,6.843-8.104c-0.348-4.128-3.968-7.191-8.104-6.844c-6.081,0.513-11.352,0.869-15.575,1.113
	c1.575-3.179,3.106-6.411,4.488-9.555c6.4-14.561,7.781-22.713,4.767-28.139c-2.526-4.547-7.936-6.439-20.673-7.232
	c-7.207-0.45-16.865-0.507-28.706-0.178c-19.959,0.559-39.664,2.058-39.86,2.072c-4.13,0.317-7.222,3.922-6.905,8.052
	s3.925,7.227,8.051,6.905c29.269-2.245,63.829-3.154,74.417-1.097c-0.989,5.02-5.524,17.271-18.254,39.892
	c-1.516,2.692-4.314,4.334-7.414,4.346c-21.652-0.092-130.428-1.687-206.461-23.734c3.443-5.862,11.347-14.362,29.062-18.222
	c4.047-0.882,6.614-4.877,5.732-8.925c-0.882-4.047-4.879-6.615-8.924-5.731c-2.891,0.63-5.568,1.377-8.089,2.201
	c-3.538-4.093-8.828-11.29-10.949-18.274l23.039-9.541c1.658-0.688,3.015-1.945,3.824-3.547
	c15.189-30.056,38.318-55.425,66.886-73.364c29.352-18.432,63.279-28.175,98.116-28.175c36.776,0,72.291,10.779,102.707,31.173
	c1.747,1.172,3.905,1.554,5.948,1.059l52.167-12.677c1.881,11.268,1.533,35.369-28.688,54.75c-3.487,2.236-4.5,6.876-2.265,10.362
	c2.237,3.487,6.875,4.5,10.362,2.265c4.134-2.651,7.804-5.393,11.065-8.186c7.18,10.232,13.318,21.182,18.276,32.62
	c1.38,3.185,4.769,5.008,8.185,4.402l102.53-18.094c0.065-0.011,0.235-0.042,0.417,0.112c0.183,0.153,0.183,0.325,0.183,0.391
	v61.011H496.997z"/>
<path d="M275.923,380.799c-1.586-3.827-5.973-5.642-9.799-4.059c-3.827,1.585-5.644,5.973-4.059,9.799l3.526,8.512
	c1.197,2.889,3.989,4.632,6.932,4.632c0.957,0,1.929-0.185,2.867-0.573c3.827-1.585,5.644-5.973,4.059-9.799L275.923,380.799z"/>
<path d="M166.631,116.946c-1.585-3.827-5.972-5.645-9.799-4.059c-3.827,1.585-5.644,5.972-4.059,9.799l3.525,8.512
	c1.196,2.889,3.989,4.632,6.932,4.632c0.956,0,1.929-0.185,2.867-0.573c3.827-1.585,5.644-5.972,4.059-9.799L166.631,116.946z"/>
<path d="M85.569,301.952l-8.511,3.526c-3.827,1.585-5.644,5.973-4.058,9.8c1.196,2.888,3.989,4.631,6.932,4.631
	c0.957,0,1.929-0.185,2.868-0.573l8.511-3.526c3.827-1.585,5.644-5.973,4.058-9.8C93.783,302.184,89.394,300.367,85.569,301.952z"/>
<path d="M166.098,376.74c-3.826-1.587-8.214,0.231-9.799,4.059l-3.525,8.512c-1.585,3.827,0.232,8.214,4.059,9.799
	c0.938,0.39,1.911,0.573,2.867,0.573c2.943,0,5.736-1.743,6.932-4.632l3.525-8.512C171.742,382.712,169.924,378.325,166.098,376.74z
	"/>
<path d="M275.39,112.887c-3.826-1.589-8.214,0.23-9.799,4.059l-3.526,8.512c-1.585,3.826,0.232,8.214,4.059,9.799
	c0.938,0.39,1.911,0.573,2.867,0.573c2.943,0,5.736-1.743,6.932-4.632l3.526-8.512C281.034,118.86,279.217,114.472,275.39,112.887z"
	/>
<path d="M340.911,315.81l8.512,3.526c0.938,0.389,1.911,0.573,2.868,0.573c2.943,0,5.735-1.743,6.932-4.632
	c1.585-3.826-0.231-8.214-4.058-9.799l-8.512-3.526c-3.826-1.585-8.214,0.231-9.799,4.058
	C335.268,309.837,337.084,314.225,340.911,315.81z"/>
<g>
</g>
<g>
</g>
<g>
</g>
<g>
</g>
<g>
</g>
<g>
</g>
<g>
</g>
<g>
</g>
<g>
</g>
<g>
</g>
<g>
</g>
<g>
</g>
<g>
</g>
<g>
</g>
<g>
</g>
</svg>
