<?xml version="1.0" encoding="UTF-8" standalone="no"?>
<!-- Generator: Adobe Illustrator 19.0.0, SVG Export Plug-In . SVG Version: 6.00 Build 0)  -->

<svg
   xmlns:dc="http://purl.org/dc/elements/1.1/"
   xmlns:cc="http://creativecommons.org/ns#"
   xmlns:rdf="http://www.w3.org/1999/02/22-rdf-syntax-ns#"
   xmlns:svg="http://www.w3.org/2000/svg"
   xmlns="http://www.w3.org/2000/svg"
   xmlns:xlink="http://www.w3.org/1999/xlink"
   xmlns:sodipodi="http://sodipodi.sourceforge.net/DTD/sodipodi-0.dtd"
   xmlns:inkscape="http://www.inkscape.org/namespaces/inkscape"
   version="1.1"
   id="Layer_1"
   x="0px"
   y="0px"
   viewBox="0 0 48 48"
   xml:space="preserve"
   sodipodi:docname="Bones.svg"
   width="48"
   height="48"
   inkscape:version="0.92.3 (2405546, 2018-03-11)"><metadata
   id="metadata53"><rdf:RDF><cc:Work
       rdf:about=""><dc:format>image/svg+xml</dc:format><dc:type
         rdf:resource="http://purl.org/dc/dcmitype/StillImage" /><dc:title></dc:title></cc:Work></rdf:RDF></metadata><defs
   id="defs51"><radialGradient
     inkscape:collect="always"
     xlink:href="#linearGradient3204"
     id="radialGradient3325"
     gradientUnits="userSpaceOnUse"
     gradientTransform="matrix(2.9816507,0,0,0.40658857,-8.8256724,34.460597)"
     cx="11"
     cy="22"
     fx="11"
     fy="22"
     r="8" /><linearGradient
     inkscape:collect="always"
     id="linearGradient3204"><stop
       style="stop-color:#000000;stop-opacity:1"
       offset="0"
       id="stop3206" /><stop
       style="stop-color:#000000;stop-opacity:0"
       offset="1"
       id="stop3208" /></linearGradient></defs><sodipodi:namedview
   pagecolor="#ffffff"
   bordercolor="#666666"
   borderopacity="1"
   objecttolerance="10"
   gridtolerance="10"
   guidetolerance="10"
   inkscape:pageopacity="0"
   inkscape:pageshadow="2"
   inkscape:window-width="1853"
   inkscape:window-height="1016"
   id="namedview49"
   showgrid="false"
   inkscape:zoom="17.25"
   inkscape:cx="24"
   inkscape:cy="24"
   inkscape:window-x="67"
   inkscape:window-y="27"
   inkscape:window-maximized="1"
   inkscape:current-layer="Layer_1" />
<path
   style="fill:#fab352;stroke-width:0.07784443"
   d="m 31.701077,6.9636601 v 3.6830589 l -19.637188,19.63711 c -1.374969,0 -3.2656521,0 -3.6829755,0 -1.8733281,0 -3.3919932,1.518665 -3.3919932,3.391984 0,1.873339 1.5185876,3.392005 3.3919932,3.392005 0.2295621,0 0.9055627,0 1.6959955,0 v 1.695993 c 0,1.873319 1.518666,3.391983 3.391994,3.391983 1.873324,0 3.391993,-1.518664 3.391993,-3.391983 V 35.080752 L 36.498082,15.443641 c 1.374968,0 3.265651,0 3.682976,0 1.873327,0 3.391995,-1.518665 3.391995,-3.391984 0,-1.873318 -1.518591,-3.3920046 -3.391995,-3.3920046 -0.229563,0 -0.905564,0 -1.695998,0 V 6.9636601 c 0,-1.8733188 -1.518663,-3.3919846 -3.39199,-3.3919846 -1.873325,0 -3.391993,1.5186658 -3.391993,3.3919846 z"
   id="path2"
   inkscape:connector-curvature="0" />
<path
   style="fill:#e2d8bd;stroke-width:0.07784443"
   d="M 40.181138,30.283829 H 36.498082 L 16.860974,10.646637 c 0,-1.3749545 0,-3.2656428 0,-3.6829769 0,-1.8733188 -1.518668,-3.3919846 -3.391994,-3.3919846 -1.873327,0 -3.392071,1.5185841 -3.392071,3.3919846 0,0.2295573 0,0.9055743 0,1.6959923 H 8.3809135 c -1.8733281,0 -3.3919932,1.5186666 -3.3919932,3.3920046 0,1.873319 1.5186651,3.391984 3.3919932,3.391984 h 3.6830525 l 19.637111,19.637192 c 0,1.374975 0,3.265644 0,3.682978 0,1.873319 1.518668,3.391983 3.391993,3.391983 1.873327,0 3.39199,-1.518583 3.39199,-3.391983 0,-0.229558 0,-0.905574 0,-1.695993 h 1.695998 c 1.873327,0 3.391995,-1.518666 3.391995,-3.392005 0,-1.873319 -1.518591,-3.391984 -3.391915,-3.391984 z"
   id="path4"
   inkscape:connector-curvature="0" />
<g
   id="g16"
   transform="matrix(0.07784443,0,0,0.07784443,4.3528528,2.9356019)">
	<circle
   style="fill:#440852"
   cx="394.89401"
   cy="394.89401"
   r="8.1700001"
   id="circle6" />
	<circle
   style="fill:#440852"
   cx="394.89401"
   cy="441.11499"
   r="8.1700001"
   id="circle8" />
	<path
   style="fill:#440852"
   d="m 284.887,177.044 72.211,-72.211 c 1.532,-1.532 2.392,-3.61 2.392,-5.777 V 51.745 c 0,-19.521 15.882,-35.404 35.404,-35.404 19.522,0 35.404,15.883 35.404,35.404 v 21.787 c 0,4.512 3.657,8.17 8.17,8.17 h 21.787 c 19.522,0 35.404,15.883 35.404,35.404 0,19.521 -15.882,35.404 -35.404,35.404 h -47.313 c -2.167,0 -4.244,0.861 -5.778,2.393 l -72.211,72.211 c -3.191,3.191 -3.191,8.364 0,11.554 1.596,1.596 3.686,2.393 5.778,2.393 2.09,0 4.182,-0.797 5.778,-2.393 l 69.817,-69.817 h 43.929 C 488.786,168.851 512,145.638 512,117.106 512,88.574 488.787,65.361 460.255,65.361 H 446.638 V 51.745 C 446.638,23.213 423.425,0 394.894,0 366.363,0 343.149,23.213 343.149,51.745 v 43.929 l -69.818,69.817 c -3.191,3.191 -3.191,8.364 0,11.554 3.19,3.189 8.363,3.191 11.556,-10e-4 z"
   id="path10"
   inkscape:connector-curvature="0" />
	<path
   style="fill:#440852"
   d="m 227.114,334.955 -72.211,72.211 c -1.533,1.532 -2.393,3.61 -2.393,5.777 v 47.313 c 0,19.521 -15.883,35.404 -35.404,35.404 -19.521,0 -35.404,-15.883 -35.404,-35.404 v -21.787 c 0,-4.512 -3.658,-8.17 -8.17,-8.17 H 51.745 c -19.521,0 -35.404,-15.883 -35.404,-35.404 0,-19.521 15.883,-35.404 35.404,-35.404 h 47.313 c 2.167,0 4.245,-0.861 5.777,-2.393 l 72.211,-72.211 c 3.191,-3.191 3.191,-8.364 0,-11.554 -3.191,-3.191 -8.364,-3.191 -11.554,0 L 95.674,343.15 H 51.745 C 23.213,343.149 0,366.362 0,394.894 c 0,28.531 23.213,51.745 51.745,51.745 h 13.617 v 13.617 c 0,28.531 23.213,51.745 51.745,51.745 28.532,0 51.745,-23.213 51.745,-51.745 v -43.929 l 69.817,-69.817 c 3.191,-3.191 3.191,-8.364 0,-11.554 -3.19,-3.192 -8.364,-3.192 -11.555,-0.001 z"
   id="path12"
   inkscape:connector-curvature="0" />
	<path
   style="fill:#440852"
   d="M 460.255,343.149 H 416.326 L 168.851,95.673 V 51.745 C 168.851,23.213 145.638,0 117.106,0 88.574,0 65.362,23.213 65.362,51.745 V 65.362 H 51.745 C 23.213,65.362 0,88.575 0,117.106 c 0,28.531 23.213,51.745 51.745,51.745 H 95.674 L 343.15,416.327 v 43.929 c 0,28.531 23.213,51.745 51.745,51.745 28.531,0 51.745,-23.213 51.745,-51.745 v -13.617 h 13.617 c 28.531,0 51.745,-23.213 51.745,-51.745 C 512,366.362 488.787,343.149 460.255,343.149 Z m 0,87.149 h -21.787 c -4.513,0 -8.17,3.658 -8.17,8.17 v 21.787 c 0,19.521 -15.882,35.404 -35.404,35.404 -19.522,0 -35.404,-15.883 -35.404,-35.404 v -47.313 c 0,-2.167 -0.861,-4.245 -2.392,-5.777 L 104.835,154.904 c -1.532,-1.533 -3.61,-2.393 -5.777,-2.393 H 51.745 c -19.521,0 -35.404,-15.883 -35.404,-35.404 0,-19.521 15.883,-35.404 35.404,-35.404 h 21.787 c 4.512,0 8.17,-3.658 8.17,-8.17 V 51.745 c 0,-19.521 15.883,-35.404 35.404,-35.404 19.521,0 35.404,15.883 35.404,35.404 v 47.312 c 0,2.167 0.861,4.245 2.393,5.777 l 252.261,252.262 c 1.533,1.533 3.61,2.393 5.778,2.393 h 47.312 c 19.522,0 35.404,15.883 35.404,35.404 0.002,19.522 -15.88,35.405 -35.403,35.405 z"
   id="path14"
   inkscape:connector-curvature="0" />
</g>
<g
   id="g18"
   transform="translate(0,-464)">
</g>
<g
   id="g20"
   transform="translate(0,-464)">
</g>
<g
   id="g22"
   transform="translate(0,-464)">
</g>
<g
   id="g24"
   transform="translate(0,-464)">
</g>
<g
   id="g26"
   transform="translate(0,-464)">
</g>
<g
   id="g28"
   transform="translate(0,-464)">
</g>
<g
   id="g30"
   transform="translate(0,-464)">
</g>
<g
   id="g32"
   transform="translate(0,-464)">
</g>
<g
   id="g34"
   transform="translate(0,-464)">
</g>
<g
   id="g36"
   transform="translate(0,-464)">
</g>
<g
   id="g38"
   transform="translate(0,-464)">
</g>
<g
   id="g40"
   transform="translate(0,-464)">
</g>
<g
   id="g42"
   transform="translate(0,-464)">
</g>
<g
   id="g44"
   transform="translate(0,-464)">
</g>
<g
   id="g46"
   transform="translate(0,-464)">
</g>
<ellipse
   style="color:#000000;display:block;overflow:visible;visibility:visible;opacity:0.2;fill:url(#radialGradient3325);fill-opacity:1;fill-rule:nonzero;stroke:none;stroke-width:2.20209408;stroke-linecap:round;stroke-linejoin:miter;stroke-miterlimit:4;stroke-dasharray:none;stroke-dashoffset:17.85000038;stroke-opacity:1;marker:none;marker-start:none;marker-mid:none;marker-end:none"
   id="path3202"
   cx="23.972485"
   cy="43.405567"
   rx="23.853201"
   ry="3.2527082" /></svg>