<?xml version="1.0" encoding="iso-8859-1"?>
<!-- Generator: Adobe Illustrator 19.0.0, SVG Export Plug-In . SVG Version: 6.00 Build 0)  -->
<svg version="1.1" id="Layer_1" xmlns="http://www.w3.org/2000/svg" xmlns:xlink="http://www.w3.org/1999/xlink" x="0px" y="0px"
	 viewBox="0 0 512 512" style="enable-background:new 0 0 512 512;" xml:space="preserve">
<path style="fill:#FAB352;" d="M351.319,51.745v47.313L99.057,351.319c-17.663,0-41.951,0-47.312,0
	c-24.065,0-43.574,19.509-43.574,43.574s19.508,43.574,43.574,43.574c2.949,0,11.633,0,21.787,0v21.787
	c0,24.065,19.509,43.574,43.574,43.574s43.574-19.509,43.574-43.574v-47.313l252.262-252.261c17.663,0,41.951,0,47.312,0
	c24.065,0,43.574-19.509,43.574-43.574s-19.508-43.574-43.574-43.574c-2.949,0-11.633,0-21.787,0V51.745
	c0-24.065-19.509-43.574-43.574-43.574S351.319,27.68,351.319,51.745z"/>
<path style="fill:#E2D8BD;" d="M460.255,351.319h-47.313L160.681,99.057c0-17.663,0-41.951,0-47.312
	c0-24.065-19.509-43.574-43.574-43.574S73.532,27.679,73.532,51.745c0,2.949,0,11.633,0,21.787H51.745
	c-24.065,0-43.574,19.509-43.574,43.574s19.509,43.574,43.574,43.574h47.313l252.261,252.262c0,17.663,0,41.951,0,47.312
	c0,24.065,19.509,43.574,43.574,43.574s43.574-19.508,43.574-43.574c0-2.949,0-11.633,0-21.787h21.787
	c24.065,0,43.574-19.509,43.574-43.574S484.32,351.319,460.255,351.319z"/>
<g>
	<circle style="fill:#440852;" cx="394.894" cy="394.894" r="8.17"/>
	<circle style="fill:#440852;" cx="394.894" cy="441.115" r="8.17"/>
	<path style="fill:#440852;" d="M284.887,177.044l72.211-72.211c1.532-1.532,2.392-3.61,2.392-5.777V51.745
		c0-19.521,15.882-35.404,35.404-35.404c19.522,0,35.404,15.883,35.404,35.404v21.787c0,4.512,3.657,8.17,8.17,8.17h21.787
		c19.522,0,35.404,15.883,35.404,35.404s-15.882,35.404-35.404,35.404h-47.313c-2.167,0-4.244,0.861-5.778,2.393l-72.211,72.211
		c-3.191,3.191-3.191,8.364,0,11.554c1.596,1.596,3.686,2.393,5.778,2.393c2.09,0,4.182-0.797,5.778-2.393l69.817-69.817h43.929
		c28.531,0,51.745-23.213,51.745-51.745s-23.213-51.745-51.745-51.745h-13.617V51.745C446.638,23.213,423.425,0,394.894,0
		c-28.531,0-51.745,23.213-51.745,51.745v43.929l-69.818,69.817c-3.191,3.191-3.191,8.364,0,11.554
		C276.521,180.234,281.694,180.236,284.887,177.044z"/>
	<path style="fill:#440852;" d="M227.114,334.955l-72.211,72.211c-1.533,1.532-2.393,3.61-2.393,5.777v47.313
		c0,19.521-15.883,35.404-35.404,35.404s-35.404-15.883-35.404-35.404v-21.787c0-4.512-3.658-8.17-8.17-8.17H51.745
		c-19.521,0-35.404-15.883-35.404-35.404c0-19.521,15.883-35.404,35.404-35.404h47.313c2.167,0,4.245-0.861,5.777-2.393
		l72.211-72.211c3.191-3.191,3.191-8.364,0-11.554c-3.191-3.191-8.364-3.191-11.554,0l-69.818,69.817H51.745
		C23.213,343.149,0,366.362,0,394.894c0,28.531,23.213,51.745,51.745,51.745h13.617v13.617c0,28.531,23.213,51.745,51.745,51.745
		s51.745-23.213,51.745-51.745v-43.929l69.817-69.817c3.191-3.191,3.191-8.364,0-11.554
		C235.479,331.764,230.305,331.764,227.114,334.955z"/>
	<path style="fill:#440852;" d="M460.255,343.149h-43.929L168.851,95.673V51.745C168.851,23.213,145.638,0,117.106,0
		S65.362,23.213,65.362,51.745v13.617H51.745C23.213,65.362,0,88.575,0,117.106s23.213,51.745,51.745,51.745h43.929l247.476,247.476
		v43.929c0,28.531,23.213,51.745,51.745,51.745c28.531,0,51.745-23.213,51.745-51.745v-13.617h13.617
		c28.531,0,51.745-23.213,51.745-51.745C512,366.362,488.787,343.149,460.255,343.149z M460.255,430.298h-21.787
		c-4.513,0-8.17,3.658-8.17,8.17v21.787c0,19.521-15.882,35.404-35.404,35.404c-19.522,0-35.404-15.883-35.404-35.404v-47.313
		c0-2.167-0.861-4.245-2.392-5.777L104.835,154.904c-1.532-1.533-3.61-2.393-5.777-2.393H51.745
		c-19.521,0-35.404-15.883-35.404-35.404s15.883-35.404,35.404-35.404h21.787c4.512,0,8.17-3.658,8.17-8.17V51.745
		c0-19.521,15.883-35.404,35.404-35.404s35.404,15.883,35.404,35.404v47.312c0,2.167,0.861,4.245,2.393,5.777l252.261,252.262
		c1.533,1.533,3.61,2.393,5.778,2.393h47.312c19.522,0,35.404,15.883,35.404,35.404C495.66,414.415,479.778,430.298,460.255,430.298
		z"/>
</g>
<g>
</g>
<g>
</g>
<g>
</g>
<g>
</g>
<g>
</g>
<g>
</g>
<g>
</g>
<g>
</g>
<g>
</g>
<g>
</g>
<g>
</g>
<g>
</g>
<g>
</g>
<g>
</g>
<g>
</g>
</svg>
