<?xml version="1.0" encoding="UTF-8" standalone="no"?>
<!-- Generator: Adobe Illustrator 19.2.0, SVG Export Plug-In . SVG Version: 6.00 Build 0)  -->

<svg
   xmlns:dc="http://purl.org/dc/elements/1.1/"
   xmlns:cc="http://creativecommons.org/ns#"
   xmlns:rdf="http://www.w3.org/1999/02/22-rdf-syntax-ns#"
   xmlns:svg="http://www.w3.org/2000/svg"
   xmlns="http://www.w3.org/2000/svg"
   xmlns:sodipodi="http://sodipodi.sourceforge.net/DTD/sodipodi-0.dtd"
   xmlns:inkscape="http://www.inkscape.org/namespaces/inkscape"
   version="1.1"
   id="Layer_1"
   x="0px"
   y="0px"
   viewBox="0 0 40 40"
   style="enable-background:new 0 0 40 40;"
   xml:space="preserve"
   sodipodi:docname="Crab.svg"
   inkscape:version="0.92.3 (2405546, 2018-03-11)"><metadata
   id="metadata49"><rdf:RDF><cc:Work
       rdf:about=""><dc:format>image/svg+xml</dc:format><dc:type
         rdf:resource="http://purl.org/dc/dcmitype/StillImage" /></cc:Work></rdf:RDF></metadata><defs
   id="defs47" /><sodipodi:namedview
   pagecolor="#ffffff"
   bordercolor="#666666"
   borderopacity="1"
   objecttolerance="10"
   gridtolerance="10"
   guidetolerance="10"
   inkscape:pageopacity="0"
   inkscape:pageshadow="2"
   inkscape:window-width="1853"
   inkscape:window-height="1016"
   id="namedview45"
   showgrid="false"
   inkscape:zoom="5.9"
   inkscape:cx="50.932203"
   inkscape:cy="20"
   inkscape:window-x="67"
   inkscape:window-y="27"
   inkscape:window-maximized="1"
   inkscape:current-layer="Layer_1" />
<path
   style="fill:none;stroke:#C74343;stroke-linecap:round;stroke-miterlimit:10;"
   d="M30,30c1.575,1.429,6.917,2.333,8.5,0.5"
   id="path2" />
<path
   style="fill:none;stroke:#C74343;stroke-linecap:round;stroke-miterlimit:10;"
   d="M26.5,33.5c2.333,0,8,1.704,8,5"
   id="path4" />
<path
   style="fill:none;stroke:#C74343;stroke-linecap:round;stroke-miterlimit:10;"
   d="M30,26.5c2.924,0,8.5,0.296,8.5-3"
   id="path6" />
<path
   style="fill:none;stroke:#C74343;stroke-linecap:round;stroke-miterlimit:10;"
   d="M10,30c-1.575,1.429-6.917,2.333-8.5,0.5"
   id="path8" />
<path
   style="fill:none;stroke:#C74343;stroke-linecap:round;stroke-miterlimit:10;"
   d="M13.5,33.5c-2.333,0-8,1.704-8,5"
   id="path10" />
<path
   style="fill:none;stroke:#C74343;stroke-linecap:round;stroke-miterlimit:10;"
   d="M10,26.5c-2.924,0-8.5,0.296-8.5-3"
   id="path12" />
<g
   id="g18">
	<path
   style="fill:#F78F8F;"
   d="M10.018,24.5c-0.915,0-1.856-0.416-2.581-1.142C6.613,22.535,6.5,21.25,6.5,19.983V19.59   l-0.381-0.093c-0.484-0.118-1.67-0.54-2.235-1.896c-0.845-2.032-0.252-4.218,1.322-4.874c0.297-0.124,0.615-0.187,0.944-0.187   c1.393,0,2.777,1.079,3.445,2.683c0.424,1.019,0.498,2.104,0.209,3.055l-0.122,0.402l0.375,0.189c0.396,0.2,0.757,0.462,1.075,0.78   c1.312,1.312,1.557,3.202,0.546,4.212C11.268,24.273,10.678,24.5,10.018,24.5L10.018,24.5z"
   id="path14" />
	<path
   style="fill:#C74343;"
   d="M6.151,13.041c1.174,0,2.401,0.977,2.983,2.375c0.38,0.912,0.448,1.877,0.193,2.717l-0.245,0.805   l0.751,0.379c0.348,0.176,0.667,0.407,0.947,0.687c1.098,1.098,1.348,2.703,0.547,3.505C10.92,23.915,10.39,24,10.018,24   c-0.783,0-1.595-0.363-2.227-0.995C7.096,22.31,7,21.142,7,19.983v-0.785l-0.762-0.187c-0.41-0.1-1.415-0.458-1.892-1.604   c-0.74-1.777-0.267-3.67,1.052-4.219C5.635,13.091,5.888,13.041,6.151,13.041 M6.151,12.041c-0.387,0-0.77,0.072-1.137,0.225   c-1.832,0.762-2.544,3.237-1.591,5.527C3.934,19.02,4.979,19.733,6,19.983c0,1.354,0.13,2.776,1.083,3.729   C7.936,24.565,9.019,25,10.018,25c0.77,0,1.489-0.259,2.015-0.784c1.207-1.207,0.963-3.41-0.547-4.919   c-0.368-0.368-0.778-0.658-1.204-0.873c0.308-1.012,0.26-2.225-0.226-3.392C9.294,13.2,7.697,12.041,6.151,12.041L6.151,12.041z"
   id="path16" />
</g>
<g
   id="g24">
	<path
   style="fill:#F78F8F;"
   d="M28.932,23.5c-0.647,0-1.203-0.215-1.609-0.621c-1.01-1.01-0.765-2.9,0.547-4.212   c0.318-0.318,0.68-0.58,1.075-0.78l0.375-0.189l-0.122-0.402c-0.289-0.95-0.214-2.035,0.209-3.055   c0.668-1.604,2.052-2.683,3.445-2.683c0.329,0,0.646,0.063,0.944,0.187c0.622,0.259,1.129,0.826,1.427,1.596   c0.399,1.03,0.362,2.278-0.097,3.258c-0.473,1.011-1.348,1.899-2.343,2.376L32.5,19.11v0.314c0,0.961-0.115,2.059-0.965,2.909   C30.793,23.075,29.845,23.5,28.932,23.5L28.932,23.5z"
   id="path20" />
	<path
   style="fill:#C74343;"
   d="M32.852,12.058c0.263,0,0.516,0.05,0.752,0.148c0.495,0.206,0.905,0.673,1.153,1.314   c0.351,0.907,0.319,2.005-0.083,2.866c-0.419,0.896-1.226,1.715-2.106,2.137L32,18.795v0.63c0,1.217-0.245,1.981-0.818,2.555   C30.533,22.628,29.713,23,28.932,23c-0.356,0-0.863-0.082-1.255-0.474c-0.802-0.802-0.552-2.407,0.547-3.505   c0.28-0.28,0.599-0.511,0.947-0.687l0.751-0.379l-0.245-0.805c-0.255-0.84-0.187-1.805,0.193-2.717   C30.451,13.035,31.677,12.058,32.852,12.058 M32.852,11.058c-1.546,0-3.144,1.159-3.906,2.991c-0.486,1.168-0.534,2.38-0.226,3.392   c-0.426,0.215-0.836,0.505-1.204,0.873c-1.509,1.509-1.754,3.712-0.547,4.919C27.486,23.749,28.184,24,28.932,24   c1.002,0,2.093-0.45,2.957-1.314C32.842,21.733,33,20.521,33,19.424c0.994-0.477,2.016-1.41,2.58-2.615   c0.948-2.026,0.24-4.764-1.591-5.527C33.622,11.13,33.238,11.058,32.852,11.058L32.852,11.058z"
   id="path22" />
</g>
<g
   id="g30">
	<path
   style="fill:#F78F8F;"
   d="M19.952,37.5c-0.927,0-1.822-0.305-2.661-0.906l-6.361-4.987c-1.347-1.047-1.803-2.867-1.111-4.424   l1.656-5.026C12.41,20.058,14.319,17.5,18,17.5h4c3.681,0,5.59,2.558,6.543,4.703l1.62,4.932c0.711,1.604,0.254,3.424-1.091,4.47   l-6.38,5.001C21.82,37.192,20.888,37.5,19.952,37.5z"
   id="path26" />
	<path
   style="fill:#C74343;"
   d="M22,18c3.386,0,5.166,2.361,6.066,4.361l1.622,4.93l0.016,0.048l0.02,0.046   c0.599,1.347,0.204,2.92-0.963,3.828l-6.349,4.977c-0.808,0.538-1.635,0.81-2.46,0.81c-0.82,0-1.618-0.273-2.335-0.787   l-6.381-5.002c-1.164-0.905-1.558-2.478-0.96-3.826l0.02-0.046l0.016-0.048l1.622-4.93C12.834,20.361,14.614,18,18,18H22 M22,17h-4   c-3.32,0-5.652,1.967-7,5l-1.638,4.979C8.578,28.743,9.098,30.815,10.622,32L17,37c0.943,0.677,1.947,1,2.952,1   c1.037,0,2.075-0.344,3.048-1l6.378-5c1.524-1.185,2.044-3.257,1.259-5.021L29,22C27.652,18.967,25.32,17,22,17L22,17z"
   id="path28" />
</g>
<g
   id="g36">
	<path
   style="fill:#F78F8F;"
   d="M8.807,16.5c-1.224,0-2.337-0.369-3.22-1.067C3.004,13.389,2.979,8.932,5.531,5.287   c1.154-1.648,2.979-3.398,4.848-3.73c-0.05,0.244-0.103,0.5-0.157,0.766C9.304,6.767,9.021,8.727,9.646,9.353   c0.104,0.104,0.29,0.228,0.593,0.228c1.377,0,4.985-2.989,6.631-4.694c1.061,2.545,0.573,5.539-1.344,7.976   C13.76,15.106,11.186,16.5,8.807,16.5z"
   id="path32" />
	<path
   style="fill:#C74343;"
   d="M9.723,2.263C8.697,7.238,8.505,8.917,9.292,9.706c0.17,0.171,0.473,0.374,0.947,0.374   c1.45,0,4.597-2.534,6.421-4.284c0.634,2.21,0.097,4.692-1.527,6.756C13.46,14.679,11.036,16,8.807,16   c-1.11,0-2.116-0.332-2.91-0.959c-2.376-1.88-2.357-6.038,0.043-9.467C7.087,3.936,8.451,2.76,9.723,2.263 M11,1   C8.843,1,6.643,2.826,5.121,5c-2.625,3.75-2.756,8.522,0.155,10.825C6.283,16.621,7.509,17,8.807,17   c2.459,0,5.171-1.362,7.112-3.829C18.323,10.116,18.411,6.61,17,4c-1.381,1.664-5.569,5.08-6.761,5.08   C10.136,9.08,10.055,9.055,10,9C9.359,8.357,10.501,3.566,11,1L11,1z"
   id="path34" />
</g>
<g
   id="g42">
	<path
   style="fill:#F78F8F;"
   d="M30.316,16.5c-2.379,0-4.954-1.394-6.719-3.638c-1.955-2.484-2.487-5.475-1.464-7.974   c1.647,1.705,5.252,4.692,6.628,4.692c0.303,0,0.489-0.124,0.593-0.228c0.625-0.627,0.342-2.588-0.576-7.038   c-0.054-0.263-0.106-0.517-0.156-0.759c1.654,0.291,3.541,1.691,4.969,3.73c2.552,3.646,2.527,8.103-0.056,10.146   C32.654,16.131,31.541,16.5,30.316,16.5L30.316,16.5z"
   id="path38" />
	<path
   style="fill:#C74343;"
   d="M29.277,2.258c1.332,0.504,2.783,1.713,3.905,3.316c2.4,3.429,2.419,7.588,0.043,9.467   C32.433,15.668,31.426,16,30.316,16c-2.229,0-4.653-1.321-6.326-3.447c-1.653-2.101-2.23-4.577-1.64-6.748   c1.825,1.75,4.964,4.276,6.411,4.276c0.474,0,0.777-0.204,0.947-0.374C30.495,8.917,30.303,7.237,29.277,2.258 M28.001,1   c0.499,2.566,1.64,7.357,0.999,8c-0.055,0.055-0.136,0.08-0.239,0.08c-1.192,0-5.379-3.416-6.76-5.08   c-1.411,2.61-1.201,6.116,1.203,9.171C25.145,15.638,27.857,17,30.316,17c1.298,0,2.524-0.379,3.53-1.175   C36.758,13.522,36.626,8.75,34.001,5C32.48,2.826,30.158,1,28.001,1L28.001,1z"
   id="path40" />
</g>
<g
   id="g1012"
   transform="matrix(0,-1.6513812,1,0,3.636504,61.975736)"><polygon
     style="fill:#ffd248"
     points="110,10.001 110,480.001 10,480.001 10,415.001 10,335.001 10,245.001 10,155.001 10,75.001 10,10.001 "
     id="polygon4"
     transform="matrix(0,0.04779244,-0.04779244,0,37.157821,28.25965)" /><path
     style="stroke-width:0.0000564;stroke-miterlimit:4;stroke-dasharray:none"
     d="m 37.157775,33.516816 v -4.77924 c 0,-0.263957 -0.213968,-0.477926 -0.477925,-0.477926 H 14.217404 c -0.263957,0 -0.477926,0.213969 -0.477926,0.477926 v 4.77924 c 0,0.263957 0.213969,0.477926 0.477926,0.477926 H 36.67985 c 0.263957,0 0.477925,-0.213969 0.477925,-0.477926 z m -22.462446,-0.47792 v -3.8234 h 2.15066 v 1.911703 h 0.955846 v -1.911703 h 2.867549 v 1.911703 h 0.955846 v -1.911703 h 3.345474 v 1.911703 h 0.955846 v -1.911703 h 3.345474 v 1.911703 h 0.955846 v -1.911703 h 2.867548 v 1.911703 h 0.955846 v -1.911703 h 2.15066 v 3.8234 z"
     id="path12-3"
     inkscape:connector-curvature="0" /></g></svg>