<?xml version="1.0" encoding="UTF-8" standalone="no"?>
<!-- Created with Inkscape (http://www.inkscape.org/) -->

<svg
   xmlns:dc="http://purl.org/dc/elements/1.1/"
   xmlns:cc="http://creativecommons.org/ns#"
   xmlns:rdf="http://www.w3.org/1999/02/22-rdf-syntax-ns#"
   xmlns:svg="http://www.w3.org/2000/svg"
   xmlns="http://www.w3.org/2000/svg"
   xmlns:xlink="http://www.w3.org/1999/xlink"
   xmlns:sodipodi="http://sodipodi.sourceforge.net/DTD/sodipodi-0.dtd"
   xmlns:inkscape="http://www.inkscape.org/namespaces/inkscape"
   width="48.000000px"
   height="48.000000px"
   id="svg53383"
   sodipodi:version="0.32"
   inkscape:version="0.92.3 (2405546, 2018-03-11)"
   sodipodi:docname="dice.svg"
   inkscape:output_extension="org.inkscape.output.svg.inkscape"
   version="1.1"
   inkscape:export-filename="D:\Dropbox\MATLAB scripts\ObjectFinder\ObjectFinder_resources\48px-dice.png"
   inkscape:export-xdpi="96"
   inkscape:export-ydpi="96">
  <defs
     id="defs3"><inkscape:perspective
   sodipodi:type="inkscape:persp3d"
   inkscape:vp_x="0 : 24 : 1"
   inkscape:vp_y="0 : 1000 : 0"
   inkscape:vp_z="48 : 24 : 1"
   inkscape:persp3d-origin="24 : 16 : 1"
   id="perspective2483" />
<linearGradient
   id="linearGradient3264">
  <stop
     style="stop-color: rgb(201, 201, 201); stop-opacity: 1;"
     offset="0"
     id="stop3266" />
  <stop
     id="stop3276"
     offset="0.25"
     style="stop-color: rgb(248, 248, 248); stop-opacity: 1;" />
  <stop
     id="stop3272"
     offset="0.5"
     style="stop-color: rgb(226, 226, 226); stop-opacity: 1;" />
  <stop
     style="stop-color: rgb(176, 176, 176); stop-opacity: 1;"
     offset="0.75"
     id="stop3274" />
  <stop
     style="stop-color: rgb(201, 201, 201); stop-opacity: 1;"
     offset="1"
     id="stop3268" />
</linearGradient>
<linearGradient
   inkscape:collect="always"
   xlink:href="#linearGradient3264"
   id="linearGradient3281"
   gradientUnits="userSpaceOnUse"
   x1="14.462892"
   y1="12.284524"
   x2="34.534348"
   y2="39.684914"
   gradientTransform="matrix(1.24194, 0, 0, 1.24194, -5.02751, -7.20899)" />
<linearGradient
   id="linearGradient2300">
  <stop
     id="stop2302"
     offset="0.0000000"
     style="stop-color: rgb(0, 0, 0); stop-opacity: 0.326733;" />
  <stop
     id="stop2304"
     offset="1"
     style="stop-color: rgb(0, 0, 0); stop-opacity: 0;" />
</linearGradient>
<linearGradient
   id="aigrd1"
   gradientUnits="userSpaceOnUse"
   x1="99.7773"
   y1="15.4238"
   x2="153.0005"
   y2="248.6311">
  <stop
     offset="0"
     style="stop-color:#a68235;stop-opacity:1;"
     id="stop53300" />
  <stop
     offset="1"
     style="stop-color:#dfca9b;stop-opacity:1;"
     id="stop53302" />
</linearGradient>
<linearGradient
   inkscape:collect="always"
   xlink:href="#aigrd1"
   id="linearGradient53551"
   gradientUnits="userSpaceOnUse"
   x1="99.7773"
   y1="15.4238"
   x2="153.0005"
   y2="248.6311"
   gradientTransform="matrix(0.200685, 0, 0, 0.200685, -0.585758, -1.05079)" />
<radialGradient
   gradientUnits="userSpaceOnUse"
   r="11.689870"
   fy="72.568001"
   fx="14.287618"
   cy="68.872971"
   cx="14.287618"
   gradientTransform="matrix(1.8706954,-2.6509068e-7,1.0957618e-7,0.60892614,-3.1206179,-1.0257268)"
   id="radialGradient2308"
   xlink:href="#linearGradient2300"
   inkscape:collect="always" />
<linearGradient
   inkscape:collect="always"
   xlink:href="#linearGradient3264"
   id="linearGradient3760"
   gradientUnits="userSpaceOnUse"
   gradientTransform="matrix(1.24194, 0, 0, 1.24194, -5.02751, -7.20899)"
   x1="14.462892"
   y1="12.284524"
   x2="34.534348"
   y2="39.684914" />

	
	
	
	
	
	
	
	
	
	
	
	
	
	
	
	
	
	
	
	
	
	
	
	
	
	
		
</defs>
  <sodipodi:namedview
     inkscape:showpageshadow="false"
     id="base"
     pagecolor="#ffffff"
     bordercolor="#666666"
     borderopacity="0.11764706"
     inkscape:pageopacity="0.0"
     inkscape:pageshadow="2"
     inkscape:zoom="11.313708"
     inkscape:cx="17.224111"
     inkscape:cy="21.164787"
     inkscape:current-layer="layer1"
     showgrid="false"
     inkscape:grid-bbox="true"
     inkscape:document-units="px"
     inkscape:window-width="1846"
     inkscape:window-height="1057"
     inkscape:window-x="66"
     inkscape:window-y="-8"
     inkscape:window-maximized="1" />
  <metadata
     id="metadata4">
    <rdf:RDF>
      <cc:Work
         rdf:about="">
        <dc:format>image/svg+xml</dc:format>
        <dc:type
           rdf:resource="http://purl.org/dc/dcmitype/StillImage" />
        <dc:title></dc:title>
        <dc:creator>
          <cc:Agent>
            <dc:title>Jakub Steiner</dc:title>
          </cc:Agent>
        </dc:creator>
        <dc:source>http://jimmac.musichall.cz/</dc:source>
        <dc:subject>
          <rdf:Bag>
            <rdf:li>system</rdf:li>
            <rdf:li>applications</rdf:li>
            <rdf:li>group</rdf:li>
            <rdf:li>category</rdf:li>
            <rdf:li>admin</rdf:li>
            <rdf:li>root</rdf:li>
          </rdf:Bag>
        </dc:subject>
        <cc:license
           rdf:resource="http://creativecommons.org/licenses/by/2.0/" />
      </cc:Work>
      <cc:License
         rdf:about="http://creativecommons.org/licenses/by/2.0/">
        <cc:permits
           rdf:resource="http://web.resource.org/cc/Reproduction" />
        <cc:permits
           rdf:resource="http://web.resource.org/cc/Distribution" />
        <cc:requires
           rdf:resource="http://web.resource.org/cc/Notice" />
        <cc:requires
           rdf:resource="http://web.resource.org/cc/Attribution" />
        <cc:permits
           rdf:resource="http://web.resource.org/cc/DerivativeWorks" />
        <cc:requires
           rdf:resource="http://web.resource.org/cc/ShareAlike" />
      </cc:License>
    </rdf:RDF>
  </metadata>
  <g
     inkscape:label="shadow"
     id="layer2"
     inkscape:groupmode="layer">
    <ellipse
       id="path1538"
       style="color:#000000;display:inline;overflow:visible;visibility:visible;fill:url(#radialGradient2308);fill-opacity:1;fill-rule:evenodd;stroke:none;stroke-width:0.62970078;stroke-linecap:round;stroke-linejoin:miter;stroke-miterlimit:4;stroke-dashoffset:0pt;stroke-opacity:1;marker:none"
       cx="23.607138"
       cy="39.162903"
       rx="26.642859"
       ry="11.670711" />
  </g>
  <g
     id="layer1"
     inkscape:label="Layer 1"
     inkscape:groupmode="layer">
    <path
       inkscape:r_cy="true"
       inkscape:r_cx="true"
       sodipodi:type="arc"
       style="overflow: visible; marker: none; opacity: 0.647727; color: rgb(0, 0, 0); fill: none; fill-opacity: 1; fill-rule: nonzero; stroke: rgb(255, 255, 255); stroke-width: 1.6218; stroke-linecap: butt; stroke-linejoin: miter; stroke-miterlimit: 4; stroke-dasharray: none; stroke-dashoffset: 0pt; stroke-opacity: 1; visibility: visible; display: inline;"
       id="path3283"
       sodipodi:cx="23.511301"
       sodipodi:cy="23.781593"
       sodipodi:rx="12.727922"
       sodipodi:ry="12.727922"
       d="M 36.239223 23.781593 A 12.727922 12.727922 0 1 1  10.783379,23.781593 A 12.727922 12.727922 0 1 1  36.239223 23.781593 z"
       transform="matrix(0.616598, 0, 0, 0.616598, 9.38202, 8.53967)" />
    <path
       style="overflow: visible; marker: none; opacity: 0.5; color: rgb(0, 0, 0); fill: rgb(255, 255, 255); fill-opacity: 1; fill-rule: nonzero; stroke: none; stroke-width: 1; stroke-linecap: butt; stroke-linejoin: miter; stroke-miterlimit: 4; stroke-dasharray: none; stroke-dashoffset: 0pt; stroke-opacity: 1; visibility: visible; display: inline;"
       d="M 10.102903,6.2970655 C 8.7545689,7.3438694 8.1656464,7.9719226 7.0874684,9.2941942 L 10.489927,14.259153 C 9.4385072,15.857755 8.3316275,18.426114 8.1423859,19.987706 C 8.1423859,19.987706 2.0798859,21.0319 2.0798859,21.0319 C 2.0109129,21.595256 1.90625,22.884803 1.90625,22.884803 L 2.0830267,24.447303 C 2.5107567,24.535638 2.9231817,24.617818 3.3642767,24.666053 L 3.8642767,23.134803 C 4.2083177,23.163279 4.5439297,23.197303 4.8955267,23.197303 C 5.2467347,23.197303 5.6139847,23.163473 5.9580267,23.134803 L 6.4267767,24.666053 C 6.8680647,24.617818 7.3115487,24.535638 7.7392767,24.447303 L 7.7392767,22.884803 C 8.4250337,22.72518 9.0712777,22.497045 9.7080267,22.228553 L 10.645527,23.509803 C 11.047878,23.327709 11.421123,23.133984 11.801777,22.916053 L 11.301777,21.416053 C 11.89901,21.053803 12.463529,20.620706 12.989277,20.166053 L 14.270527,21.103553 C 14.596162,20.806973 14.91164,20.491691 15.208027,20.166053 L 14.270527,18.916053 C 14.725373,18.390305 15.127027,17.826171 15.489277,17.228553 L 16.989277,17.697303 C 17.207208,17.316456 17.432571,16.943209 17.614277,16.541053 L 16.333027,15.603553 C 16.601517,14.966804 16.798016,14.320561 16.958027,13.634803 L 18.551777,13.634803 C 18.640112,13.207076 18.691236,12.763591 18.739277,12.322303 L 17.239277,11.853553 C 17.268139,11.509705 17.301777,11.142456 17.301777,10.791053 C 17.301776,10.43965 17.267753,10.104039 17.239277,9.7598034 L 18.739277,9.2910534 C 18.69373,8.8711662 18.633686,8.4490548 18.551777,8.0410534 C 17.404349,8.4403544 15.999117,9.1941729 14.983265,9.8245243 L 10.102903,6.2970655 z "
       id="path3767"
       inkscape:r_cx="true"
       inkscape:r_cy="true"
       sodipodi:nodetypes="cccccccccsccccccccccccccccccccsccccc" />
    <path
       style="overflow: visible; marker: none; opacity: 0.5; color: rgb(0, 0, 0); fill: rgb(255, 255, 255); fill-opacity: 1; fill-rule: nonzero; stroke: none; stroke-width: 1; stroke-linecap: butt; stroke-linejoin: miter; stroke-miterlimit: 4; stroke-dasharray: none; stroke-dashoffset: 0pt; stroke-opacity: 1; visibility: visible; display: inline;"
       d="M 37.236641,17.217754 C 36.85286,17.39913 36.490003,17.603509 36.123236,17.813295 L 36.692886,19.548136 C 35.995792,19.970436 35.338156,20.467825 34.725008,20.998151 L 33.249099,19.910639 C 32.869013,20.256538 32.507327,20.618223 32.161588,20.998151 L 33.249099,22.474059 C 32.718773,23.087371 32.221547,23.745002 31.799084,24.441937 L 31.255328,24.260685 C 31.207646,24.960968 31.018949,25.62217 30.737466,26.228563 L 30.841038,26.306242 C 30.527881,27.048922 30.27649,27.83664 30.090137,28.636624 L 28.614229,28.636624 C 28.477946,28.722076 28.343676,28.821684 28.199938,28.895555 C 28.121568,29.310822 28.065026,29.712881 28.018687,30.138426 L 29.77942,30.708074 C 29.746033,31.10935 29.727633,31.515269 29.727633,31.925052 C 29.727631,32.334993 29.746034,32.740753 29.77942,33.142029 L 28.018687,33.711677 C 28.074705,34.226432 28.148678,34.740347 28.251725,35.239372 L 30.090137,35.213479 C 30.218255,35.763466 30.393202,36.320918 30.582107,36.844746 C 31.327023,36.557466 32.05594,36.214561 32.731236,35.809021 C 32.319649,34.59298 32.083908,33.279913 32.083908,31.925052 C 32.083909,26.727119 35.376289,22.288397 39.981313,20.583861 L 38.893802,20.402608 C 38.671014,19.579946 38.382478,18.774017 38.013435,18.020441 C 38.002581,17.998277 37.99851,17.96486 37.987542,17.942761 L 37.935756,17.890975 L 37.236641,17.217754 z "
       id="path3770"
       inkscape:r_cx="true"
       inkscape:r_cy="true" />
    <g
       id="g250"
       transform="matrix(0.19820497,0,0,0.19820497,-54.41691,36.693453)">
      <polygon
         transform="translate(199.20963,-265.19596)"
         style="fill:#ff763b"
         points="289.065,135.808 192.942,183.875 96.819,135.808 192.942,87.747 "
         id="polygon39" />
      <polygon
         transform="translate(199.20963,-265.19596)"
         style="fill:#fc611f"
         points="192.942,306.278 96.819,259.2 96.819,135.808 192.942,183.875 "
         id="polygon41" />
      <polygon
         transform="translate(199.20963,-265.19596)"
         style="fill:#e64500"
         points="192.942,306.278 289.065,259.2 289.065,135.808 192.942,183.875 "
         id="polygon43" />
      <path
         inkscape:connector-curvature="0"
         style="fill:#ffffff"
         d="m 353.09163,-43.81696 c 0,6.733 -4.029,10.706 -9.001,8.873 -4.972,-1.833 -9.001,-8.781 -9.001,-15.514 0,-6.733 4.029,-10.706 9.001,-8.873 4.971,1.838 9.001,8.781 9.001,15.514 z"
         id="path45" />
      <path
         inkscape:connector-curvature="0"
         style="fill:#ffffff"
         d="m 434.02263,-42.45596 c 0,6.733 4.029,10.706 9.001,8.873 4.972,-1.833 9.001,-8.781 9.001,-15.514 0,-6.733 -4.029,-10.706 -9.001,-8.873 -4.971,1.839 -9.001,8.782 -9.001,15.514 z"
         id="path47" />
      <path
         inkscape:connector-curvature="0"
         style="fill:#ffffff"
         d="m 404.76263,-59.42796 c 0,6.733 4.029,10.706 9.001,8.873 4.972,-1.833 9.001,-8.781 9.001,-15.514 0,-6.733 -4.029,-10.706 -9.001,-8.873 -4.972,1.833 -9.001,8.781 -9.001,15.514 z"
         id="path49" />
      <path
         inkscape:connector-curvature="0"
         style="fill:#ffffff"
         d="m 404.76263,7.06004 c 0,6.733 4.029,10.706 9.001,8.873 4.972,-1.833 9.001,-8.781 9.001,-15.514 0,-6.733 -4.029,-10.706 -9.001,-8.873 -4.972,1.833 -9.001,8.781 -9.001,15.514 z"
         id="path51" />
      <path
         inkscape:connector-curvature="0"
         style="fill:#ffffff"
         d="m 459.67463,-86.50296 c 0,6.733 4.029,10.706 9.001,8.873 4.972,-1.833 9.001,-8.781 9.001,-15.514 0,-6.733 -4.029,-10.706 -9.001,-8.873 -4.967,1.833 -9.001,8.776 -9.001,15.514 z"
         id="path53" />
      <path
         inkscape:connector-curvature="0"
         style="fill:#ffffff"
         d="m 459.67463,-20.01496 c 0,6.733 4.029,10.706 9.001,8.873 4.972,-1.833 9.001,-8.781 9.001,-15.514 0,-6.733 -4.029,-10.706 -9.001,-8.873 -4.972,1.833 -9.001,8.782 -9.001,15.514 z"
         id="path55" />
      <path
         inkscape:connector-curvature="0"
         style="fill:#ffffff"
         d="m 322.78063,-88.90396 c 0,6.733 -4.029,10.706 -9.001,8.873 -4.972,-1.833 -9.001,-8.781 -9.001,-15.514 0,-6.733 4.029,-10.706 9.001,-8.873 4.972,1.833 9.001,8.781 9.001,15.514 z"
         id="path57" />
      <path
         inkscape:connector-curvature="0"
         style="fill:#ffffff"
         d="m 379.33163,5.26304 c 0,6.733 -4.029,10.706 -9.001,8.873 -4.972,-1.833 -9.001,-8.781 -9.001,-15.514 0,-6.733 4.029,-10.706 9.001,-8.873 4.971,1.838 9.001,8.781 9.001,15.514 z"
         id="path59" />
      <ellipse
         style="fill:#ffffff"
         cx="392.15164"
         cy="-129.38795"
         rx="12.611"
         ry="8.5299997"
         id="ellipse61" />
    </g>
    <g
       id="g89"
       transform="translate(199.20963,-265.19596)">
</g>
    <g
       id="g91"
       transform="translate(199.20963,-265.19596)">
</g>
    <g
       id="g93"
       transform="translate(199.20963,-265.19596)">
</g>
    <g
       id="g95"
       transform="translate(199.20963,-265.19596)">
</g>
    <g
       id="g97"
       transform="translate(199.20963,-265.19596)">
</g>
    <g
       id="g99"
       transform="translate(199.20963,-265.19596)">
</g>
    <g
       id="g101"
       transform="translate(199.20963,-265.19596)">
</g>
    <g
       id="g103"
       transform="translate(199.20963,-265.19596)">
</g>
    <g
       id="g105"
       transform="translate(199.20963,-265.19596)">
</g>
    <g
       id="g107"
       transform="translate(199.20963,-265.19596)">
</g>
    <g
       id="g109"
       transform="translate(199.20963,-265.19596)">
</g>
    <g
       id="g111"
       transform="translate(199.20963,-265.19596)">
</g>
    <g
       id="g113"
       transform="translate(199.20963,-265.19596)">
</g>
    <g
       id="g115"
       transform="translate(199.20963,-265.19596)">
</g>
    <g
       id="g117"
       transform="translate(199.20963,-265.19596)">
</g>
  </g>
</svg>
