<?xml version="1.0" encoding="UTF-8" standalone="no"?>
<!-- Generator: Adobe Illustrator 21.0.0, SVG Export Plug-In . SVG Version: 6.00 Build 0)  -->

<svg
   xmlns:dc="http://purl.org/dc/elements/1.1/"
   xmlns:cc="http://creativecommons.org/ns#"
   xmlns:rdf="http://www.w3.org/1999/02/22-rdf-syntax-ns#"
   xmlns:svg="http://www.w3.org/2000/svg"
   xmlns="http://www.w3.org/2000/svg"
   xmlns:xlink="http://www.w3.org/1999/xlink"
   xmlns:sodipodi="http://sodipodi.sourceforge.net/DTD/sodipodi-0.dtd"
   xmlns:inkscape="http://www.inkscape.org/namespaces/inkscape"
   version="1.1"
   id="svg2"
   x="0px"
   y="0px"
   viewBox="0 0 48 48"
   style="enable-background:new 0 0 48 48;"
   xml:space="preserve"
   sodipodi:docname="Fruit-3cherriesChecked.svg"
   inkscape:version="0.92.3 (2405546, 2018-03-11)"
   inkscape:export-filename="/home/luca/Dropbox/MATLAB scripts/ObjectFinder/ObjectFinder_resources/48px-Fruit-3cherriesCheck.png"
   inkscape:export-xdpi="300.07001"
   inkscape:export-ydpi="300.07001"><metadata
   id="metadata74"><rdf:RDF><cc:Work
       rdf:about=""><dc:format>image/svg+xml</dc:format><dc:type
         rdf:resource="http://purl.org/dc/dcmitype/StillImage" /></cc:Work></rdf:RDF></metadata><defs
   id="defs72"><radialGradient
     id="p1_1_-3"
     cx="-139.14259"
     cy="51.641602"
     r="11.057"
     gradientTransform="matrix(1.025,0.00838735,0.00872225,-0.9898,159.9664,76.1732)"
     gradientUnits="userSpaceOnUse"><stop
       offset="0"
       style="stop-color:#D50F0F"
       id="stop16-6" /><stop
       offset="1"
       style="stop-color:#860000"
       id="stop18-7" /></radialGradient><radialGradient
     id="p2_1_-5"
     cx="1951.2467"
     cy="8926.3691"
     r="11.057"
     fx="1951.0742"
     fy="8920.6436"
     gradientTransform="matrix(0.6057,0.5511,0.3133,-0.3495,-3966.3403,2064.9165)"
     gradientUnits="userSpaceOnUse"><stop
       offset="0"
       style="stop-color:#FFFFFF"
       id="stop22-3" /><stop
       offset="1"
       style="stop-color:#FFFFFF;stop-opacity:0"
       id="stop24-5" /></radialGradient><linearGradient
     id="linearGradient4676"
     gradientUnits="userSpaceOnUse"
     x1="588.27972"
     y1="186.0002"
     x2="570.36493"
     y2="206.2547"
     gradientTransform="matrix(0.9457,0.04095475,0.04171466,-0.9494,-540.4629,189.0202)"><stop
       offset="0"
       style="stop-color:#D50F0F"
       id="stop28-6" /><stop
       offset="1"
       style="stop-color:#860000"
       id="stop30-2" /></linearGradient><radialGradient
     id="s3_1_-9"
     cx="-609.13782"
     cy="-139.2309"
     r="11.057"
     gradientTransform="matrix(1.0945,0.0051153,0.0049669,-0.9434,691.937,-98.0084)"
     gradientUnits="userSpaceOnUse"><stop
       offset="0"
       style="stop-color:#000000"
       id="stop35-1" /><stop
       offset="1"
       style="stop-color:#000000;stop-opacity:0"
       id="stop37-2" /></radialGradient><radialGradient
     inkscape:collect="always"
     xlink:href="#p1_1_"
     id="radialGradient4699"
     gradientUnits="userSpaceOnUse"
     gradientTransform="matrix(1.025,0.00838735,0.00872225,-0.9898,159.9664,76.1732)"
     cx="-139.1426"
     cy="51.6416"
     r="11.057" /><radialGradient
     inkscape:collect="always"
     xlink:href="#p2_1_"
     id="radialGradient4701"
     gradientUnits="userSpaceOnUse"
     gradientTransform="matrix(0.6057,0.5511,0.3133,-0.3495,-3966.3403,2064.9165)"
     cx="1951.2467"
     cy="8926.3691"
     fx="1951.0742"
     fy="8920.6436"
     r="11.057" /><linearGradient
     inkscape:collect="always"
     xlink:href="#p3_1_"
     id="linearGradient4703"
     gradientUnits="userSpaceOnUse"
     gradientTransform="matrix(0.9457,0.04095475,0.04171466,-0.9494,-540.4629,189.0202)"
     x1="588.2797"
     y1="186.0002"
     x2="570.3649"
     y2="206.2547" /><radialGradient
     inkscape:collect="always"
     xlink:href="#s3_1_"
     id="radialGradient4705"
     gradientUnits="userSpaceOnUse"
     gradientTransform="matrix(1.0945,0.0051153,0.0049669,-0.9434,691.937,-98.0084)"
     cx="-609.1378"
     cy="-139.2309"
     r="11.057" /><radialGradient
     id="s2_1_-2"
     cx="-560.22241"
     cy="-908.49017"
     r="12.2903"
     fx="-562.04578"
     fy="-912.41217"
     gradientTransform="matrix(1.1014,0.04770002,0.03084368,-0.702,674.8133,-572.152)"
     gradientUnits="userSpaceOnUse"><stop
       offset="0"
       style="stop-color:#000000"
       id="stop10-6" /><stop
       offset="1"
       style="stop-color:#000000;stop-opacity:0"
       id="stop12-1" /></radialGradient><radialGradient
     id="s2_1_-7"
     cx="-560.22241"
     cy="-908.49017"
     r="12.2903"
     fx="-562.04578"
     fy="-912.41217"
     gradientTransform="matrix(1.1014,0.04770002,0.03084368,-0.702,679.31898,-580.75473)"
     gradientUnits="userSpaceOnUse"><stop
       offset="0"
       style="stop-color:#000000"
       id="stop10-9" /><stop
       offset="1"
       style="stop-color:#000000;stop-opacity:0"
       id="stop12-2" /></radialGradient><radialGradient
     r="37.75"
     gradientTransform="matrix(0.968,0,0,1.033,3.35,-0.35)"
     cx="8.82"
     cy="3.76"
     gradientUnits="userSpaceOnUse"
     id="f"><stop
       id="stop900"
       offset="0"
       stop-color="#a3a3a3" /><stop
       id="stop902"
       offset="1"
       stop-color="#4c4c4c" /></radialGradient><radialGradient
     r="15.82"
     gradientTransform="matrix(1 0 0 .285.11 29.72)"
     cx="24.31"
     cy="42.1"
     gradientUnits="userSpaceOnUse"
     id="a"><stop
       id="stop905"
       offset="0" /><stop
       id="stop907"
       offset="1"
       stop-opacity="0" /></radialGradient><radialGradient
     r="1.21"
     cx="10.1"
     cy="29.3"
     gradientUnits="userSpaceOnUse"
     id="h"><stop
       id="stop910"
       offset="0"
       stop-color="#f0f0f0" /><stop
       id="stop912"
       offset="1"
       stop-color="#9a9a9a" /></radialGradient><radialGradient
     r="8.79"
     cx="8.78"
     cy="8.78"
     gradientUnits="userSpaceOnUse"
     id="j"
     gradientTransform="translate(-51.26619,-5.1232128)"><stop
       id="stop915"
       offset="0"
       stop-color="#fff" /><stop
       id="stop917"
       offset=".5"
       stop-color="#fff520"
       stop-opacity=".89" /><stop
       id="stop919"
       offset="1"
       stop-color="#fff300"
       stop-opacity="0" /></radialGradient><radialGradient
     r="38.2"
     gradientTransform="matrix(0.968,0,0,1.033,3.35,-0.35)"
     cx="8.14"
     cy="7.27"
     gradientUnits="userSpaceOnUse"
     id="d"><stop
       id="stop922"
       offset="0"
       stop-color="#fff" /><stop
       id="stop924"
       offset="1"
       stop-color="#f8f8f8" /></radialGradient><radialGradient
     r="86.7"
     gradientTransform="matrix(0.96,0,0,1.041,0,-1)"
     cx="33.97"
     cy="35.74"
     gradientUnits="userSpaceOnUse"
     id="e"><stop
       id="stop927"
       offset="0"
       stop-color="#fafafa" /><stop
       id="stop929"
       offset="1"
       stop-color="#bbb" /></radialGradient><linearGradient
     x1="-83.8"
     x2="-91"
     y1="-5.41"
     gradientUnits="userSpaceOnUse"
     y2="24.53"
     id="c"><stop
       id="stop932"
       offset="0"
       stop-color="#a7cc5c" /><stop
       id="stop934"
       offset="1"
       stop-color="#789e2d" /></linearGradient></defs><sodipodi:namedview
   pagecolor="#ffffff"
   bordercolor="#666666"
   borderopacity="1"
   objecttolerance="10"
   gridtolerance="10"
   guidetolerance="10"
   inkscape:pageopacity="0"
   inkscape:pageshadow="2"
   inkscape:window-width="1853"
   inkscape:window-height="1016"
   id="namedview70"
   showgrid="false"
   inkscape:zoom="9.8333331"
   inkscape:cx="-4.2736679"
   inkscape:cy="24"
   inkscape:window-x="67"
   inkscape:window-y="27"
   inkscape:window-maximized="1"
   inkscape:current-layer="svg2" />
<style
   type="text/css"
   id="style2">
	.st0{fill:url(#s1_1_);}
	.st1{fill:url(#s2_1_);}
	.st2{fill:url(#p1_1_);stroke:#520000;}
	.st3{opacity:0.66;fill:url(#p2_1_);stroke:#520000;enable-background:new    ;}
	.st4{fill:none;stroke:url(#p3_1_);}
	.st5{fill:none;stroke:#520000;}
	.st6{fill:url(#s3_1_);}
	.st7{fill:#FF932E;stroke:#D09100;}
	.st8{opacity:0.66;fill:url(#p6_1_);stroke:#520000;enable-background:new    ;}
	.st9{fill:none;stroke:#E77C00;}
	.st10{fill:none;stroke:#8B3B00;}
	.st11{fill:url(#p9_1_);stroke:#2D5A00;}
	.st12{fill:none;stroke:#59AA0A;stroke-miterlimit:9;}
	.st13{fill:#4E9A06;stroke:#275000;}
	.st14{fill:url(#p11_1_);stroke:#2D5A00;}
	.st15{fill:none;stroke:#59AA0A;}
</style>
<radialGradient
   id="s1_1_"
   cx="-428.5255"
   cy="-908.4901"
   r="12.2903"
   gradientTransform="matrix(1.0808 4.680964e-02 3.084368e-02 -0.702 505.9791 -586.4102)"
   gradientUnits="userSpaceOnUse">
	<stop
   offset="0"
   style="stop-color:#000000"
   id="stop4" />
	<stop
   offset="1"
   style="stop-color:#000000;stop-opacity:0"
   id="stop6" />
</radialGradient>
<path
   id="s2-0"
   class="st1"
   d="m 47.805675,30.797267 c -0.2,4.8 -6.4,8.4 -13.9,8 -7.5,-0.4 -13.4,-4.4 -13.2,-9.1 0.2,-4.8 6.4,-8.4 13.9,-8 7.5,0.4 13.4,4.4 13.2,9.1 z"
   style="fill:url(#s2_1_-7)"
   inkscape:connector-curvature="0" /><g
   transform="translate(20.728296,0.234884)"
   id="cherry1-7"><radialGradient
     id="radialGradient4608"
     cx="-139.14259"
     cy="51.641602"
     r="11.057"
     gradientTransform="matrix(1.025,0.00838735,0.00872225,-0.9898,159.9664,76.1732)"
     gradientUnits="userSpaceOnUse"><stop
       offset="0"
       style="stop-color:#D50F0F"
       id="stop4604" /><stop
       offset="1"
       style="stop-color:#860000"
       id="stop4606" /></radialGradient><path
     inkscape:connector-curvature="0"
     id="p1-0"
     class="st2"
     d="M 23.8,30.3 C 20.3,34.7 13.7,37.4 9.2,34 3.9,31.8 3.1,24.9 5.4,19.8 8,14 13.5,13.2 19.7,16.7 c 6.1,3.5 8.1,8.6 4.1,13.6 z"
     style="fill:url(#radialGradient4699);stroke:#520000" /><radialGradient
     id="radialGradient4615"
     cx="1951.2467"
     cy="8926.3691"
     r="11.057"
     fx="1951.0742"
     fy="8920.6436"
     gradientTransform="matrix(0.6057,0.5511,0.3133,-0.3495,-3966.3403,2064.9165)"
     gradientUnits="userSpaceOnUse"><stop
       offset="0"
       style="stop-color:#FFFFFF"
       id="stop4611" /><stop
       offset="1"
       style="stop-color:#FFFFFF;stop-opacity:0"
       id="stop4613" /></radialGradient><path
     inkscape:connector-curvature="0"
     id="p2-9"
     class="st3"
     d="M 23.8,30.3 C 20.3,34.7 13.7,37.4 9.2,34 3.9,31.8 3.1,24.9 5.4,19.8 8,14 13.5,13.2 19.7,16.7 c 6.1,3.5 8.1,8.6 4.1,13.6 z"
     style="opacity:0.66000001;fill:url(#radialGradient4701);stroke:#520000;enable-background:new" /><linearGradient
     id="linearGradient4622"
     gradientUnits="userSpaceOnUse"
     x1="588.27972"
     y1="186.0002"
     x2="570.36493"
     y2="206.2547"
     gradientTransform="matrix(0.9457,0.04095475,0.04171466,-0.9494,-540.4629,189.0202)"><stop
       offset="0"
       style="stop-color:#D50F0F"
       id="stop4618" /><stop
       offset="1"
       style="stop-color:#860000"
       id="stop4620" /></linearGradient><path
     inkscape:connector-curvature="0"
     id="p3-3"
     class="st4"
     d="m 12.7,15.6 c -4.3,0.1 -6.4,3.7 -7.1,7 -1.1,4.7 0.4,9.2 4.2,10.6 3.4,2.7 8.7,1.1 11.9,-2 3.1,-3 4.2,-6.1 2.3,-9.3 -1.7,-3 -7,-6.3 -11.3,-6.3 z"
     style="fill:none;stroke:url(#linearGradient4703)" /><path
     inkscape:connector-curvature="0"
     id="p4-6"
     class="st5"
     d="m 15.8,16.3 c -0.4,2.2 2.7,4.5 5.5,3.1"
     style="fill:none;stroke:#520000" /><radialGradient
     id="radialGradient4630"
     cx="-609.13782"
     cy="-139.2309"
     r="11.057"
     gradientTransform="matrix(1.0945,0.0051153,0.0049669,-0.9434,691.937,-98.0084)"
     gradientUnits="userSpaceOnUse"><stop
       offset="0"
       style="stop-color:#000000"
       id="stop4626" /><stop
       offset="1"
       style="stop-color:#000000;stop-opacity:0"
       id="stop4628" /></radialGradient><path
     inkscape:connector-curvature="0"
     id="s3-0"
     class="st6"
     d="M 24.6,30.2 C 20.4,35.8 13.5,37.8 8.9,34.4 3.6,32.2 3.2,24.9 5.5,19.8 8.1,14 13.9,12.8 20,16.2 c 6.4,3.7 8.1,9.2 4.6,14 z"
     style="fill:url(#radialGradient4705)" /></g><path
   id="s1"
   class="st0"
   d="M28.1,31.8c-0.2,4.8-6.3,8.4-13.7,8.1S1.3,35.4,1.5,30.7c0.2-4.8,6.3-8.4,13.7-8.1  C22.5,22.9,28.3,27.1,28.1,31.8L28.1,31.8z" />
<radialGradient
   id="s2_1_"
   cx="-560.2224"
   cy="-908.4902"
   r="12.2903"
   fx="-562.0458"
   fy="-912.4122"
   gradientTransform="matrix(1.1014,0.04770002,0.03084368,-0.702,674.8133,-572.152)"
   gradientUnits="userSpaceOnUse">
	<stop
   offset="0"
   style="stop-color:#000000"
   id="stop10" />
	<stop
   offset="1"
   style="stop-color:#000000;stop-opacity:0"
   id="stop12" />
</radialGradient>
<path
   id="s2"
   class="st1"
   d="m 43.3,39.4 c -0.2,4.8 -6.4,8.4 -13.9,8 C 21.9,47 16,43 16.2,38.3 c 0.2,-4.8 6.4,-8.4 13.9,-8 7.5,0.4 13.4,4.4 13.2,9.1 z"
   style="fill:url(#s2_1_)"
   inkscape:connector-curvature="0" />
<g
   id="cherry1">
	
		<radialGradient
   id="p1_1_"
   cx="-139.1426"
   cy="51.6416"
   r="11.057"
   gradientTransform="matrix(1.025 8.387347e-03 8.722245e-03 -0.9898 159.9664 76.1732)"
   gradientUnits="userSpaceOnUse">
		<stop
   offset="0"
   style="stop-color:#D50F0F"
   id="stop16" />
		<stop
   offset="1"
   style="stop-color:#860000"
   id="stop18" />
	</radialGradient>
	<path
   id="p1"
   class="st2"
   d="M23.8,30.3c-3.5,4.4-10.1,7.1-14.6,3.7c-5.3-2.2-6.1-9.1-3.8-14.2c2.6-5.8,8.1-6.6,14.3-3.1   C25.8,20.2,27.8,25.3,23.8,30.3z" />
	
		<radialGradient
   id="p2_1_"
   cx="1951.2467"
   cy="8926.3691"
   r="11.057"
   fx="1951.0742"
   fy="8920.6436"
   gradientTransform="matrix(0.6057 0.5511 0.3133 -0.3495 -3966.3403 2064.9165)"
   gradientUnits="userSpaceOnUse">
		<stop
   offset="0"
   style="stop-color:#FFFFFF"
   id="stop22" />
		<stop
   offset="1"
   style="stop-color:#FFFFFF;stop-opacity:0"
   id="stop24" />
	</radialGradient>
	<path
   id="p2"
   class="st3"
   d="M23.8,30.3c-3.5,4.4-10.1,7.1-14.6,3.7c-5.3-2.2-6.1-9.1-3.8-14.2c2.6-5.8,8.1-6.6,14.3-3.1   C25.8,20.2,27.8,25.3,23.8,30.3z" />
	
		<linearGradient
   id="p3_1_"
   gradientUnits="userSpaceOnUse"
   x1="588.2797"
   y1="186.0002"
   x2="570.3649"
   y2="206.2547"
   gradientTransform="matrix(0.9457 4.095475e-02 4.171466e-02 -0.9494 -540.4629 189.0202)">
		<stop
   offset="0"
   style="stop-color:#D50F0F"
   id="stop28" />
		<stop
   offset="1"
   style="stop-color:#860000"
   id="stop30" />
	</linearGradient>
	<path
   id="p3"
   class="st4"
   d="M12.7,15.6c-4.3,0.1-6.4,3.7-7.1,7C4.5,27.3,6,31.8,9.8,33.2c3.4,2.7,8.7,1.1,11.9-2   c3.1-3,4.2-6.1,2.3-9.3C22.3,18.9,17,15.6,12.7,15.6z" />
	<path
   id="p4"
   class="st5"
   d="M15.8,16.3c-0.4,2.2,2.7,4.5,5.5,3.1" />
	
		<radialGradient
   id="s3_1_"
   cx="-609.1378"
   cy="-139.2309"
   r="11.057"
   gradientTransform="matrix(1.0945 5.115298e-03 4.966900e-03 -0.9434 691.937 -98.0084)"
   gradientUnits="userSpaceOnUse">
		<stop
   offset="0"
   style="stop-color:#000000"
   id="stop35" />
		<stop
   offset="1"
   style="stop-color:#000000;stop-opacity:0"
   id="stop37" />
	</radialGradient>
	<path
   id="s3"
   class="st6"
   d="M24.6,30.2c-4.2,5.6-11.1,7.6-15.7,4.2c-5.3-2.2-5.7-9.5-3.4-14.6c2.6-5.8,8.4-7,14.5-3.6   C26.4,19.9,28.1,25.4,24.6,30.2z" />
</g>
<g
   id="cherry2"
   transform="matrix(0.9200696,3.9846702e-2,-4.0742783e-2,0.9272562,3.8008343,-2.2928083)">
	<path
   id="p5"
   class="st7"
   d="M41.7,37.2c-2.3,6.3-8.6,11.7-15,9.4c-6.7-0.6-10.1-8.2-9.5-14.9c0.7-7.5,6.6-10.4,14.8-8.6   S44.3,30.1,41.7,37.2z" />
	
		<radialGradient
   id="p6_1_"
   cx="2328.0361"
   cy="7247.0654"
   r="12.0114"
   fx="2325.1953"
   fy="7241.8198"
   gradientTransform="matrix(0.7366 0.4371 0.2087 -0.4056 -3201.5044 1951.9337)"
   gradientUnits="userSpaceOnUse">
		<stop
   offset="0"
   style="stop-color:#FFFFFF"
   id="stop43" />
		<stop
   offset="1"
   style="stop-color:#FFFFFF;stop-opacity:0"
   id="stop45" />
	</radialGradient>
	<path
   id="p6"
   class="st8"
   d="M41.7,37.1c-2.3,6.3-8.6,11.7-15,9.4c-6.7-0.6-10.1-8.2-9.5-14.9c0.7-7.5,6.6-10.4,14.8-8.6   C40.2,24.9,44.3,30.1,41.7,37.1z" />
	<path
   id="p7"
   class="st9"
   d="M26.6,23.7c-3.1,0.2-5.8,1.5-7.2,4.3c-2.5,5-0.5,11.5,1.7,14.3c2.7,3.3,4.9,3,6.2,3.4   c4.4,1.4,8.9-1.1,11.7-5.6c4.8-7.6,1.8-12.7-4.5-15.1C32.1,24,29.3,23.6,26.6,23.7z" />
	<path
   id="p8"
   class="st10"
   d="M27.8,23.7c-0.6,3.3,4.9,5.2,6.3,2" />
</g>
<g
   id="leaf1"
   transform="matrix(0.9200696,3.9846702e-2,-4.6625741e-2,1.0611452,3.8131591,-2.5733061)">
	
		<radialGradient
   id="p9_1_"
   cx="-18254.9668"
   cy="13609.1807"
   r="9.75"
   gradientTransform="matrix(-0.7337 8.383577e-02 7.120927e-02 0.3503 -14332.335 -3231.1348)"
   gradientUnits="userSpaceOnUse">
		<stop
   offset="0"
   style="stop-color:#59A40F"
   id="stop52" />
		<stop
   offset="1"
   style="stop-color:#306102"
   id="stop54" />
	</radialGradient>
	<path
   id="p9"
   class="st11"
   d="M24.6,3.4c4.4-2.7,14,0.2,14,0.2s-7.2,6.7-10.8,6C24.7,9,16.2,4.4,16.2,4.4S20.8,5.8,24.6,3.4z" />
	<path
   id="p10"
   class="st12"
   d="M20.4,5.6c3.3,1.7,6.4,2.9,7,3.1c2.7,0.9,7.8-3.3,9.3-4.6c-2.1-0.5-8.1-1.7-11.1-0.2   C24.6,4.4,22.6,5.4,20.4,5.6z" />
</g>
<path
   id="stem"
   class="st13"
   d="m 39.5,2.3 -1.7,1.1 c -17,5.8 -18.8,14.1 -21,14 0.6,1.1 1.7,1.4 3.2,1.5 -1.9,-2 5.4,-9.7 16.5,-13.8 -4.3,6.1 -5.3,17.4 -6.8,17.6 1.2,0.8 1.9,1.1 3.2,0.5 -1.2,-1.3 0.9,-12.1 4.9,-18.1 0,0 0.846636,12.14365 -0.519638,13.150378 1.006728,1.294365 1.206181,1.644911 3.291547,1.501093 C 38.198907,18.09756 39.5,2.3 39.5,2.3 Z"
   inkscape:connector-curvature="0"
   style="fill:#4e9a06;stroke:#275000"
   sodipodi:nodetypes="ccccccccccc" />
<g
   id="leaf2"
   transform="matrix(0.9200696,3.9846702e-2,-4.0785816e-2,0.9282356,3.8028823,-2.3394195)">
	
		<radialGradient
   id="p11_1_"
   cx="-5072.7314"
   cy="-1685.2626"
   r="4.9179"
   fx="-5072.2065"
   fy="-1684.9464"
   gradientTransform="matrix(0.2784 -0.5535 -1.3535 -0.8483 -826.8223 -4226.4541)"
   gradientUnits="userSpaceOnUse">
		<stop
   offset="0"
   style="stop-color:#59A40F"
   id="stop61" />
		<stop
   offset="1"
   style="stop-color:#306102"
   id="stop63" />
	</radialGradient>
	<path
   id="p11"
   class="st14"
   d="M39.2,3.4c-0.2,1.2-0.7,2.1,5.7,5.6c3,1.6,1,5.1,0.4,9.7C40.1,14,34.8,8.7,39.2,3.4z" />
	<path
   id="p12"
   class="st15"
   d="M38.8,6C38.7,6.2,38,8,39.5,10.8c1,1.9,3.3,4.3,5.1,6c0.7-3.7,1.5-5.8-0.1-6.7   c-0.7-0.4-2.4-1.3-3.7-2.2C39.2,6.7,38.8,6,38.8,6z" />
</g>
<g
   style="stroke-width:1.17400002;stroke-linecap:round;stroke-linejoin:round"
   transform="matrix(0.74621967,-0.17826509,0.17826509,0.74621967,77.25218,10.413344)"
   id="g997"><path
     style="fill:url(#c);stroke:#42770c"
     inkscape:connector-curvature="0"
     d="m -73.88,-4.63 c -0.51,-0.18 -1.09,-0.05 -1.47,0.38 l -16.38,18.1 -5.93,-7.58 c -0.57,-0.51 -1.44,-0.48 -1.95,0.09 l -4.3,3.43 c -0.51,0.57 -0.47,1.44 0.1,1.95 0,0 10.73,14.25 10.75,14.26 0.13,0.12 0.28,0.2 0.44,0.26 0.51,0.19 1.12,0.07 1.51,-0.36 l 22.1,-24.43 c 0.51,-0.57 0.47,-1.44 -0.1,-1.95 l -4.28,-3.89 c -0.14,-0.13 -0.31,-0.22 -0.48,-0.28 z"
     id="path993" /><path
     style="opacity:0.47999998;fill:none;stroke:#ffffff"
     inkscape:connector-curvature="0"
     d="m -74.98,-3.2 -8.31,9.22 -7.38,8.12 c -0.21,0.13 -0.28,0.67 -1.05,0.69 -0.53,10e-4 -0.58,-0.2 -1.02,-0.67 l -5.24,-6.65 c -0.58,-0.75 -0.57,-0.71 -1.2,-0.32 l -3.37,2.65 c -0.88,0.58 -0.88,1.06 -0.14,1.83 0,0 9.75,12.93 9.77,12.95 0.13,0.11 0.06,0.13 0.58,0.71 0.33,0.37 0.89,-0.42 1.26,-0.83 L -69.79,1.06 c 0.48,-0.53 0.45,-0.53 -0.08,-1.02 l -3.85,-3.39 c -0.55,-0.5 -0.56,-0.49 -1.2,0.16 z"
     id="path995" /></g></svg>