<?xml version="1.0" encoding="utf-8"?>
<!-- Generator: Adobe Illustrator 21.0.0, SVG Export Plug-In . SVG Version: 6.00 Build 0)  -->
<svg version="1.1" id="svg2" xmlns:svg="http://www.w3.org/2000/svg"
	 xmlns="http://www.w3.org/2000/svg" xmlns:xlink="http://www.w3.org/1999/xlink" x="0px" y="0px" viewBox="0 0 48 48"
	 style="enable-background:new 0 0 48 48;" xml:space="preserve">
<style type="text/css">
	.st0{fill:url(#s1_1_);}
	.st1{fill:url(#s2_1_);}
	.st2{fill:url(#p1_1_);stroke:#520000;}
	.st3{opacity:0.66;fill:url(#p2_1_);stroke:#520000;enable-background:new    ;}
	.st4{fill:none;stroke:url(#p3_1_);}
	.st5{fill:none;stroke:#520000;}
	.st6{fill:url(#s3_1_);}
	.st7{fill:#FF932E;stroke:#D09100;}
	.st8{opacity:0.66;fill:url(#p6_1_);stroke:#520000;enable-background:new    ;}
	.st9{fill:none;stroke:#E77C00;}
	.st10{fill:none;stroke:#8B3B00;}
	.st11{fill:url(#p9_1_);stroke:#2D5A00;}
	.st12{fill:none;stroke:#59AA0A;stroke-miterlimit:9;}
	.st13{fill:#4E9A06;stroke:#275000;}
	.st14{fill:url(#p11_1_);stroke:#2D5A00;}
	.st15{fill:none;stroke:#59AA0A;}
</style>
<radialGradient id="s1_1_" cx="-428.5255" cy="-908.4901" r="12.2903" gradientTransform="matrix(1.0808 4.680964e-02 3.084368e-02 -0.702 505.9791 -586.4102)" gradientUnits="userSpaceOnUse">
	<stop  offset="0" style="stop-color:#000000"/>
	<stop  offset="1" style="stop-color:#000000;stop-opacity:0"/>
</radialGradient>
<path id="s1" class="st0" d="M28.1,31.8c-0.2,4.8-6.3,8.4-13.7,8.1S1.3,35.4,1.5,30.7c0.2-4.8,6.3-8.4,13.7-8.1
	C22.5,22.9,28.3,27.1,28.1,31.8L28.1,31.8z"/>
<radialGradient id="s2_1_" cx="-560.2224" cy="-908.4902" r="12.2903" fx="-562.0458" fy="-912.4122" gradientTransform="matrix(1.1014 4.770002e-02 3.084368e-02 -0.702 674.8133 -572.152)" gradientUnits="userSpaceOnUse">
	<stop  offset="0" style="stop-color:#000000"/>
	<stop  offset="1" style="stop-color:#000000;stop-opacity:0"/>
</radialGradient>
<path id="s2" class="st1" d="M43.3,39.4c-0.2,4.8-6.4,8.4-13.9,8S16,43,16.2,38.3c0.2-4.8,6.4-8.4,13.9-8S43.5,34.7,43.3,39.4
	L43.3,39.4z"/>
<g id="cherry1">
	
		<radialGradient id="p1_1_" cx="-139.1426" cy="51.6416" r="11.057" gradientTransform="matrix(1.025 8.387347e-03 8.722245e-03 -0.9898 159.9664 76.1732)" gradientUnits="userSpaceOnUse">
		<stop  offset="0" style="stop-color:#D50F0F"/>
		<stop  offset="1" style="stop-color:#860000"/>
	</radialGradient>
	<path id="p1" class="st2" d="M23.8,30.3c-3.5,4.4-10.1,7.1-14.6,3.7c-5.3-2.2-6.1-9.1-3.8-14.2c2.6-5.8,8.1-6.6,14.3-3.1
		C25.8,20.2,27.8,25.3,23.8,30.3z"/>
	
		<radialGradient id="p2_1_" cx="1951.2467" cy="8926.3691" r="11.057" fx="1951.0742" fy="8920.6436" gradientTransform="matrix(0.6057 0.5511 0.3133 -0.3495 -3966.3403 2064.9165)" gradientUnits="userSpaceOnUse">
		<stop  offset="0" style="stop-color:#FFFFFF"/>
		<stop  offset="1" style="stop-color:#FFFFFF;stop-opacity:0"/>
	</radialGradient>
	<path id="p2" class="st3" d="M23.8,30.3c-3.5,4.4-10.1,7.1-14.6,3.7c-5.3-2.2-6.1-9.1-3.8-14.2c2.6-5.8,8.1-6.6,14.3-3.1
		C25.8,20.2,27.8,25.3,23.8,30.3z"/>
	
		<linearGradient id="p3_1_" gradientUnits="userSpaceOnUse" x1="588.2797" y1="186.0002" x2="570.3649" y2="206.2547" gradientTransform="matrix(0.9457 4.095475e-02 4.171466e-02 -0.9494 -540.4629 189.0202)">
		<stop  offset="0" style="stop-color:#D50F0F"/>
		<stop  offset="1" style="stop-color:#860000"/>
	</linearGradient>
	<path id="p3" class="st4" d="M12.7,15.6c-4.3,0.1-6.4,3.7-7.1,7C4.5,27.3,6,31.8,9.8,33.2c3.4,2.7,8.7,1.1,11.9-2
		c3.1-3,4.2-6.1,2.3-9.3C22.3,18.9,17,15.6,12.7,15.6z"/>
	<path id="p4" class="st5" d="M15.8,16.3c-0.4,2.2,2.7,4.5,5.5,3.1"/>
	
		<radialGradient id="s3_1_" cx="-609.1378" cy="-139.2309" r="11.057" gradientTransform="matrix(1.0945 5.115298e-03 4.966900e-03 -0.9434 691.937 -98.0084)" gradientUnits="userSpaceOnUse">
		<stop  offset="0" style="stop-color:#000000"/>
		<stop  offset="1" style="stop-color:#000000;stop-opacity:0"/>
	</radialGradient>
	<path id="s3" class="st6" d="M24.6,30.2c-4.2,5.6-11.1,7.6-15.7,4.2c-5.3-2.2-5.7-9.5-3.4-14.6c2.6-5.8,8.4-7,14.5-3.6
		C26.4,19.9,28.1,25.4,24.6,30.2z"/>
</g>
<g id="cherry2" transform="matrix(0.9200696,3.9846702e-2,-4.0742783e-2,0.9272562,3.8008343,-2.2928083)">
	<path id="p5" class="st7" d="M41.7,37.2c-2.3,6.3-8.6,11.7-15,9.4c-6.7-0.6-10.1-8.2-9.5-14.9c0.7-7.5,6.6-10.4,14.8-8.6
		S44.3,30.1,41.7,37.2z"/>
	
		<radialGradient id="p6_1_" cx="2328.0361" cy="7247.0654" r="12.0114" fx="2325.1953" fy="7241.8198" gradientTransform="matrix(0.7366 0.4371 0.2087 -0.4056 -3201.5044 1951.9337)" gradientUnits="userSpaceOnUse">
		<stop  offset="0" style="stop-color:#FFFFFF"/>
		<stop  offset="1" style="stop-color:#FFFFFF;stop-opacity:0"/>
	</radialGradient>
	<path id="p6" class="st8" d="M41.7,37.1c-2.3,6.3-8.6,11.7-15,9.4c-6.7-0.6-10.1-8.2-9.5-14.9c0.7-7.5,6.6-10.4,14.8-8.6
		C40.2,24.9,44.3,30.1,41.7,37.1z"/>
	<path id="p7" class="st9" d="M26.6,23.7c-3.1,0.2-5.8,1.5-7.2,4.3c-2.5,5-0.5,11.5,1.7,14.3c2.7,3.3,4.9,3,6.2,3.4
		c4.4,1.4,8.9-1.1,11.7-5.6c4.8-7.6,1.8-12.7-4.5-15.1C32.1,24,29.3,23.6,26.6,23.7z"/>
	<path id="p8" class="st10" d="M27.8,23.7c-0.6,3.3,4.9,5.2,6.3,2"/>
</g>
<g id="leaf1" transform="matrix(0.9200696,3.9846702e-2,-4.6625741e-2,1.0611452,3.8131591,-2.5733061)">
	
		<radialGradient id="p9_1_" cx="-18254.9668" cy="13609.1807" r="9.75" gradientTransform="matrix(-0.7337 8.383577e-02 7.120927e-02 0.3503 -14332.335 -3231.1348)" gradientUnits="userSpaceOnUse">
		<stop  offset="0" style="stop-color:#59A40F"/>
		<stop  offset="1" style="stop-color:#306102"/>
	</radialGradient>
	<path id="p9" class="st11" d="M24.6,3.4c4.4-2.7,14,0.2,14,0.2s-7.2,6.7-10.8,6C24.7,9,16.2,4.4,16.2,4.4S20.8,5.8,24.6,3.4z"/>
	<path id="p10" class="st12" d="M20.4,5.6c3.3,1.7,6.4,2.9,7,3.1c2.7,0.9,7.8-3.3,9.3-4.6c-2.1-0.5-8.1-1.7-11.1-0.2
		C24.6,4.4,22.6,5.4,20.4,5.6z"/>
</g>
<path id="stem" class="st13" d="M39.5,2.3l-1.7,1.1c-17,5.8-18.8,14.1-21,14c0.6,1.1,1.7,1.4,3.2,1.5c-1.9-2,5.4-9.7,16.5-13.8
	c-4.3,6.1-5.3,17.4-6.8,17.6c1.2,0.8,1.9,1.1,3.2,0.5c-1.2-1.3,0.9-12.1,4.9-18.1l2.7-1.6L39.5,2.3z"/>
<g id="leaf2" transform="matrix(0.9200696,3.9846702e-2,-4.0785816e-2,0.9282356,3.8028823,-2.3394195)">
	
		<radialGradient id="p11_1_" cx="-5072.7314" cy="-1685.2626" r="4.9179" fx="-5072.2065" fy="-1684.9464" gradientTransform="matrix(0.2784 -0.5535 -1.3535 -0.8483 -826.8223 -4226.4541)" gradientUnits="userSpaceOnUse">
		<stop  offset="0" style="stop-color:#59A40F"/>
		<stop  offset="1" style="stop-color:#306102"/>
	</radialGradient>
	<path id="p11" class="st14" d="M39.2,3.4c-0.2,1.2-0.7,2.1,5.7,5.6c3,1.6,1,5.1,0.4,9.7C40.1,14,34.8,8.7,39.2,3.4z"/>
	<path id="p12" class="st15" d="M38.8,6C38.7,6.2,38,8,39.5,10.8c1,1.9,3.3,4.3,5.1,6c0.7-3.7,1.5-5.8-0.1-6.7
		c-0.7-0.4-2.4-1.3-3.7-2.2C39.2,6.7,38.8,6,38.8,6z"/>
</g>
</svg>
