<?xml version="1.0" ?><svg height="48px" id="svg1307" width="48px" xmlns="http://www.w3.org/2000/svg" xmlns:cc="http://creativecommons.org/ns#" xmlns:dc="http://purl.org/dc/elements/1.1/" xmlns:inkscape="http://www.inkscape.org/namespaces/inkscape" xmlns:rdf="http://www.w3.org/1999/02/22-rdf-syntax-ns#" xmlns:sodipodi="http://sodipodi.sourceforge.net/DTD/sodipodi-0.dtd" xmlns:svg="http://www.w3.org/2000/svg" xmlns:xlink="http://www.w3.org/1999/xlink"><defs id="defs1309"><linearGradient id="linearGradient3686"><stop id="stop3688" offset="0" style="stop-color:#3d280a;stop-opacity:1;"/><stop id="stop3690" offset="1" style="stop-color:#3d280a;stop-opacity:0;"/></linearGradient><linearGradient id="linearGradient2305"><stop id="stop2307" offset="0" style="stop-color:#000000;stop-opacity:1;"/><stop id="stop2309" offset="1" style="stop-color:#000000;stop-opacity:0;"/></linearGradient><linearGradient id="linearGradient2297"><stop id="stop2299" offset="0" style="stop-color:#a15702;stop-opacity:1"/><stop id="stop2301" offset="1" style="stop-color:#683c00;stop-opacity:1"/></linearGradient><linearGradient id="linearGradient2251"><stop id="stop2253" offset="0" style="stop-color:#f6e1cf;stop-opacity:1;"/><stop id="stop3682" offset="0.5" style="stop-color:#e19d56;stop-opacity:1;"/><stop id="stop2255" offset="1" style="stop-color:#f4dcb7;stop-opacity:1"/></linearGradient><linearGradient id="linearGradient2227"><stop id="stop2229" offset="0" style="stop-color:#8f5402;stop-opacity:1;"/><stop id="stop2231" offset="1" style="stop-color:#6e4001;stop-opacity:1"/></linearGradient><linearGradient id="linearGradient2219"><stop id="stop2221" offset="0" style="stop-color:#ffffff;stop-opacity:1;"/><stop id="stop2223" offset="1" style="stop-color:#ffffff;stop-opacity:0.29963899;"/></linearGradient><linearGradient gradientUnits="userSpaceOnUse" id="linearGradient2225" x1="24" x2="24" xlink:href="#linearGradient2219" y1="7.4000092" y2="38.329697"/><radialGradient cx="-14.822968" cy="20.156464" fx="-14.822968" fy="20.156464" gradientTransform="matrix(2.45184,1.174729,-1.324281,2.80558,46.03865,-21.18657)" gradientUnits="userSpaceOnUse" id="radialGradient2249" r="5.3293829" xlink:href="#linearGradient2251"/><radialGradient cx="-3.0652061" cy="18.305458" fx="-3.0652061" fy="18.305458" gradientTransform="matrix(3.556041,0,0,3.556041,7.834793,-46.7895)" gradientUnits="userSpaceOnUse" id="radialGradient2263" r="5.3310089" xlink:href="#linearGradient2251"/><linearGradient gradientUnits="userSpaceOnUse" id="linearGradient2271" x1="-10.735215" x2="-9.25" xlink:href="#linearGradient2227" y1="11.428152" y2="18.440943"/><linearGradient gradientUnits="userSpaceOnUse" id="linearGradient2279" x1="-10.153608" x2="-7.9586563" xlink:href="#linearGradient2227" y1="10.91142" y2="18.145666"/><linearGradient gradientUnits="userSpaceOnUse" id="linearGradient2291" x1="-5.2680058" x2="-12.272349" xlink:href="#linearGradient2219" y1="20.641153" y2="8.6855774"/><linearGradient gradientUnits="userSpaceOnUse" id="linearGradient2295" x1="-5.2680058" x2="-12.272349" xlink:href="#linearGradient2219" y1="20.641153" y2="8.6855774"/><radialGradient cx="-6" cy="37.75" fx="-6" fy="37.75" gradientTransform="matrix(1,0,0,0.267857,0,27.63839)" gradientUnits="userSpaceOnUse" id="radialGradient2311" r="14" xlink:href="#linearGradient2305"/><linearGradient gradientUnits="userSpaceOnUse" id="linearGradient2323" x1="29.064308" x2="12.860207" xlink:href="#linearGradient2219" y1="39.4202" y2="2.4916291"/><radialGradient cx="24.00001" cy="32.820721" fx="24.00001" fy="32.820721" gradientTransform="matrix(2.783877,0,0,1.961686,-42.81308,-33.63393)" gradientUnits="userSpaceOnUse" id="radialGradient3684" r="14.999994" xlink:href="#linearGradient2251"/><radialGradient cx="23.987946" cy="30.12611" fx="23.987946" fy="30.12611" gradientTransform="matrix(1.838239,0,0,0.855268,-20.10762,3.134087)" gradientUnits="userSpaceOnUse" id="radialGradient3692" r="10.987951" xlink:href="#linearGradient3686"/><radialGradient cx="24" cy="13.057613" fx="24" fy="13.057613" gradientTransform="matrix(1.635062,0,0,1.830454,-15.24149,-12.15138)" gradientUnits="userSpaceOnUse" id="radialGradient3697" r="16.971834" xlink:href="#linearGradient2297"/></defs><g id="layer1"><path d="M 8 37.75 A 14 3.75 0 1 1  -20,37.75 A 14 3.75 0 1 1  8 37.75 z" id="path2303" style="opacity:0.48453608;color:black;fill:url(#radialGradient2311);fill-opacity:1;fill-rule:evenodd;stroke:none;stroke-width:1;stroke-linecap:round;stroke-linejoin:round;marker:none;marker-start:none;marker-mid:none;marker-end:none;stroke-miterlimit:4;stroke-dasharray:none;stroke-dashoffset:0;stroke-opacity:1;visibility:visible;display:inline;overflow:visible" transform="matrix(1.535714,0,0,1.51296,33.46429,-17.11425)"/><path d="M -4.5 14.75 A 4.75 4.75 0 1 1  -14,14.75 A 4.75 4.75 0 1 1  -4.5 14.75 z" id="path2197" style="opacity:1;color:#000000;fill:url(#linearGradient2271);fill-opacity:1;fill-rule:evenodd;stroke:#3d280a;stroke-width:0.83740312;stroke-linecap:round;stroke-linejoin:round;marker:none;marker-start:none;marker-mid:none;marker-end:none;stroke-miterlimit:4;stroke-dasharray:none;stroke-dashoffset:0;stroke-opacity:1;visibility:visible;display:inline;overflow:visible" transform="matrix(1.042105,0,0,1.368421,16.13946,0.81579)"/><path d="M -4.5 14.75 A 4.75 4.75 0 1 1  -14,14.75 A 4.75 4.75 0 1 1  -4.5 14.75 z" id="path2293" style="opacity:0.2;color:#000000;fill:none;fill-opacity:1;fill-rule:evenodd;stroke:url(#linearGradient2295);stroke-width:1.00918198;stroke-linecap:round;stroke-linejoin:round;marker:none;marker-start:none;marker-mid:none;marker-end:none;stroke-miterlimit:4;stroke-dasharray:none;stroke-dashoffset:0;stroke-opacity:1;visibility:visible;display:inline;overflow:visible" transform="matrix(0.842105,0,0,1.165992,14.28947,3.84008)"/><path d="M -4.5 14.75 A 4.75 4.75 0 1 1  -14,14.75 A 4.75 4.75 0 1 1  -4.5 14.75 z" id="path2213" style="opacity:1;color:#000000;fill:url(#radialGradient2263);fill-opacity:1;fill-rule:evenodd;stroke:#50340d;stroke-width:1.14646637;stroke-linecap:round;stroke-linejoin:round;marker:none;marker-start:none;marker-mid:none;marker-end:none;stroke-miterlimit:4;stroke-dasharray:none;stroke-dashoffset:0;stroke-opacity:1;visibility:visible;display:inline;overflow:visible" transform="matrix(0.799453,0,0,0.951666,14.62707,7.030045)"/><path d="M -4.5 14.75 A 4.75 4.75 0 1 1  -14,14.75 A 4.75 4.75 0 1 1  -4.5 14.75 z" id="path2199" style="opacity:1;color:#000000;fill:url(#linearGradient2279);fill-opacity:1;fill-rule:evenodd;stroke:#3d280a;stroke-width:0.83740354;stroke-linecap:round;stroke-linejoin:round;marker:none;marker-start:none;marker-mid:none;marker-end:none;stroke-miterlimit:4;stroke-dasharray:none;stroke-dashoffset:0;stroke-opacity:1;visibility:visible;display:inline;overflow:visible" transform="matrix(1.042104,0,0,1.368421,51.13946,0.81579)"/><path d="M -4.5 14.75 A 4.75 4.75 0 1 1  -14,14.75 A 4.75 4.75 0 1 1  -4.5 14.75 z" id="path2281" style="opacity:0.2;color:#000000;fill:none;fill-opacity:1;fill-rule:evenodd;stroke:url(#linearGradient2291);stroke-width:1.00918198;stroke-linecap:round;stroke-linejoin:round;marker:none;marker-start:none;marker-mid:none;marker-end:none;stroke-miterlimit:4;stroke-dasharray:none;stroke-dashoffset:0;stroke-opacity:1;visibility:visible;display:inline;overflow:visible" transform="matrix(0.842105,0,0,1.165992,49.28947,3.80162)"/><path d="M -4.5 14.75 A 4.75 4.75 0 1 1  -14,14.75 A 4.75 4.75 0 1 1  -4.5 14.75 z" id="path2215" style="opacity:1;color:#000000;fill:url(#radialGradient2249);fill-opacity:1;fill-rule:evenodd;stroke:#50340d;stroke-width:1.15348637;stroke-linecap:round;stroke-linejoin:round;marker:none;marker-start:none;marker-mid:none;marker-end:none;stroke-miterlimit:4;stroke-dasharray:none;stroke-dashoffset:0;stroke-opacity:1;visibility:visible;display:inline;overflow:visible" transform="matrix(0.789752,0,0,0.951666,48.02639,7.030045)"/><path d="M 37.5,23.5 C 45,31.5 37.5,42.5 24,42.499981 C 10.5,42.499962 3,31.5 10.5,23.5 C 6.5,13 14.5,5.4999918 24,5.4999959 C 33.5,5.5 41.5,13 37.5,23.5 z " id="path1314" style="color:#000000;fill:url(#radialGradient3697);fill-opacity:1.0;fill-rule:evenodd;stroke:#3d280a;stroke-width:0.99999958;stroke-linecap:round;stroke-linejoin:round;marker:none;marker-start:none;marker-mid:none;marker-end:none;stroke-miterlimit:4;stroke-dashoffset:0;stroke-opacity:1;visibility:visible;display:inline;overflow:visible"/><path d="M 36.5,23.5 C 43.5,31.5 36.703501,41.500017 23.999999,41.5 C 11.296497,41.499981 4.5,31.5 11.5,23.5 C 7.5,13 15.060498,6.5000053 23.999999,6.5000091 C 32.939499,6.500013 40.5,13 36.5,23.5 z " id="path2217" style="color:#000000;fill:none;fill-opacity:1;fill-rule:evenodd;stroke:url(#linearGradient2225);stroke-width:0.99999928;stroke-linecap:round;stroke-linejoin:round;marker:none;marker-start:none;marker-mid:none;marker-end:none;stroke-miterlimit:4;stroke-dashoffset:0;stroke-opacity:1;visibility:visible;display:inline;overflow:visible;opacity:0.3814433"/><path d="M 17.838217,10.504844 C 14.264974,10.725244 11.5,14.102208 11.5,18.5 C 11.5,20.415169 11.980445,22.410093 12.884633,23.808394 C 10.771363,25.573646 9.5,27 9.5016977,30.339227 C 9.5045488,35.947033 15,40.5 23.999992,40.498302 C 33,40.496604 38.494904,35.947033 38.498287,30.339227 C 38.5,27 37.228622,25.573646 35.115352,23.808394 C 36.01954,22.410093 36.5,20.415168 36.5,18.5 C 36.5,13.960342 33.53407,10.504844 29.799311,10.504844 C 27.348375,10.504844 25.187061,12.091789 23.999992,14.465673 C 22.812924,12.091789 20.65161,10.504844 18.200674,10.504844 C 18.083963,10.504844 17.953483,10.497734 17.838217,10.504844 z " id="path2190" style="opacity:1;color:#000000;fill:url(#radialGradient3684);fill-opacity:1.0;fill-rule:evenodd;stroke:#7a4f13;stroke-width:1.00339544;stroke-linecap:round;stroke-linejoin:round;marker:none;marker-start:none;marker-mid:none;marker-end:none;stroke-miterlimit:4;stroke-dasharray:none;stroke-dashoffset:0;stroke-opacity:1;visibility:visible;display:inline;overflow:visible"/><path d="M -9.5 7.25 A 1.5 1.75 0 1 1  -12.5,7.25 A 1.5 1.75 0 1 1  -9.5 7.25 z" id="path2201" style="opacity:1;color:#000000;fill:#000000;fill-opacity:1;fill-rule:evenodd;stroke:none;stroke-width:0.9354142;stroke-linecap:round;stroke-linejoin:round;marker:none;marker-start:none;marker-mid:none;marker-end:none;stroke-miterlimit:4;stroke-dasharray:none;stroke-dashoffset:0;stroke-opacity:1;visibility:visible;display:inline;overflow:visible" transform="matrix(1.333333,0,0,1.428571,34.66666,11.14286)"/><path d="M 13.499995,26.6 C 19.792765,29 28.183126,29 34.475896,26.6" id="path2205" style="fill:none;fill-opacity:0.75;fill-rule:evenodd;stroke:url(#radialGradient3692);stroke-width:1.00000012;stroke-linecap:round;stroke-linejoin:miter;stroke-miterlimit:4;stroke-dasharray:none;stroke-opacity:1;opacity:0.8814433"/><path d="M 18.263225,11.504636 C 14.787421,11.412304 12.339542,14.816886 12.362174,18.966721 C 12.371922,20.75417 13.158177,22.69493 14,24 C 12.032488,25.647555 10.636535,26.902907 10.5017,30.016575 C 10.27505,35.250485 15.472952,39.48075 24.000004,39.498301 C 32.398433,39.515588 37.646445,35.40177 37.49831,30.016575 C 37.412612,26.901167 35.967512,25.647555 34,24 C 34.841824,22.69493 35.628719,20.754174 35.637851,18.966721 C 35.659609,14.707983 33.192379,11.188747 29.399328,11.504636 C 27.125312,11.694018 26,13 25,15 C 24.5,15.5 23.5,15.5 23,15 C 22,13 21,11.5 18.263225,11.504636 z " id="path2313" style="opacity:0.4;color:#000000;fill:none;fill-opacity:1;fill-rule:evenodd;stroke:url(#linearGradient2323);stroke-width:1.003;stroke-linecap:round;stroke-linejoin:round;marker:none;marker-start:none;marker-mid:none;marker-end:none;stroke-miterlimit:4;stroke-dasharray:none;stroke-dashoffset:0;stroke-opacity:1;visibility:visible;display:inline;overflow:visible"/><path d="M -9.5 7.25 A 1.5 1.75 0 1 1  -12.5,7.25 A 1.5 1.75 0 1 1  -9.5 7.25 z" id="path2218" style="opacity:1;color:#000000;fill:#000000;fill-opacity:1;fill-rule:evenodd;stroke:none;stroke-width:0.9354142;stroke-linecap:round;stroke-linejoin:round;marker:none;marker-start:none;marker-mid:none;marker-end:none;stroke-miterlimit:4;stroke-dasharray:none;stroke-dashoffset:0;stroke-opacity:1;visibility:visible;display:inline;overflow:visible" transform="matrix(1.333333,0,0,1.428571,42.66666,11.14286)"/></g></svg>