<?xml version="1.0" encoding="UTF-8" standalone="no"?>
<svg
   xmlns:dc="http://purl.org/dc/elements/1.1/"
   xmlns:cc="http://creativecommons.org/ns#"
   xmlns:rdf="http://www.w3.org/1999/02/22-rdf-syntax-ns#"
   xmlns:svg="http://www.w3.org/2000/svg"
   xmlns="http://www.w3.org/2000/svg"
   xmlns:xlink="http://www.w3.org/1999/xlink"
   xmlns:sodipodi="http://sodipodi.sourceforge.net/DTD/sodipodi-0.dtd"
   xmlns:inkscape="http://www.inkscape.org/namespaces/inkscape"
   width="48"
   height="48"
   version="1.1"
   id="svg3877"
   sodipodi:docname="Add-Folder.svg"
   inkscape:version="0.92.3 (2405546, 2018-03-11)">
  <metadata
     id="metadata3881">
    <rdf:RDF>
      <cc:Work
         rdf:about="">
        <dc:format>image/svg+xml</dc:format>
        <dc:type
           rdf:resource="http://purl.org/dc/dcmitype/StillImage" />
      </cc:Work>
    </rdf:RDF>
  </metadata>
  <sodipodi:namedview
     pagecolor="#ffffff"
     bordercolor="#666666"
     borderopacity="1"
     objecttolerance="10"
     gridtolerance="10"
     guidetolerance="10"
     inkscape:pageopacity="0"
     inkscape:pageshadow="2"
     inkscape:window-width="1846"
     inkscape:window-height="1057"
     id="namedview3879"
     showgrid="false"
     inkscape:zoom="6.6806859"
     inkscape:cx="24"
     inkscape:cy="28.960132"
     inkscape:window-x="66"
     inkscape:window-y="-8"
     inkscape:window-maximized="1"
     inkscape:current-layer="svg3877" />
  <defs
     id="defs3849">
    <radialGradient
       id="k"
       cx="605.714"
       cy="486.648"
       r="117.143"
       fx="605.714"
       fy="486.648"
       gradientTransform="matrix(-2.77439,0,0,1.9697,112.762,-872.885)"
       gradientUnits="userSpaceOnUse"
       xlink:href="#a" />
    <linearGradient
       id="a">
      <stop
         offset="0"
         id="stop3799" />
      <stop
         offset="1"
         stop-opacity="0"
         id="stop3801" />
    </linearGradient>
    <radialGradient
       id="j"
       cx="605.714"
       cy="486.648"
       r="117.143"
       fx="605.714"
       fy="486.648"
       gradientTransform="matrix(2.77439,0,0,1.9697,-1891.633,-872.885)"
       gradientUnits="userSpaceOnUse"
       xlink:href="#a" />
    <linearGradient
       id="b">
      <stop
         offset="0"
         stop-opacity="0"
         id="stop3805" />
      <stop
         offset=".5"
         id="stop3807" />
      <stop
         offset="1"
         stop-opacity="0"
         id="stop3809" />
    </linearGradient>
    <linearGradient
       id="i"
       x1="302.857"
       x2="302.857"
       y1="366.648"
       y2="609.505"
       gradientTransform="matrix(2.77439,0,0,1.9697,-1892.179,-872.885)"
       gradientUnits="userSpaceOnUse"
       xlink:href="#b" />
    <linearGradient
       id="h">
      <stop
         offset="0"
         stop-color="#fff"
         id="stop3813" />
      <stop
         offset="1"
         stop-color="#fff"
         stop-opacity="0"
         id="stop3815" />
    </linearGradient>
    <linearGradient
       id="g">
      <stop
         offset="0"
         stop-color="#6194cb"
         id="stop3818" />
      <stop
         offset="1"
         stop-color="#729fcf"
         id="stop3820" />
    </linearGradient>
    <linearGradient
       id="f">
      <stop
         offset="0"
         stop-color="#424242"
         id="stop3823" />
      <stop
         offset="1"
         stop-color="#777"
         id="stop3825" />
    </linearGradient>
    <linearGradient
       id="e">
      <stop
         offset="0"
         stop-color="#fff"
         id="stop3828" />
      <stop
         offset="1"
         stop-color="#fff"
         stop-opacity="0"
         id="stop3830" />
    </linearGradient>
    <linearGradient
       id="c">
      <stop
         offset="0"
         stop-color="#202020"
         id="stop3833" />
      <stop
         offset="1"
         stop-color="#b9b9b9"
         id="stop3835" />
    </linearGradient>
    <radialGradient
       id="l"
       cx="20.706"
       cy="37.518"
       r="30.905"
       fx="20.706"
       fy="37.518"
       gradientTransform="matrix(1.0570982,0.01516147,0.14276832,1.2542033,-2.332367,-6.4043845)"
       gradientUnits="userSpaceOnUse"
       xlink:href="#c" />
    <linearGradient
       id="d">
      <stop
         offset="0"
         stop-color="#fff"
         stop-opacity=".876"
         id="stop3839" />
      <stop
         offset="1"
         stop-color="#fffffe"
         stop-opacity="0"
         id="stop3841" />
    </linearGradient>
    <linearGradient
       id="n"
       x1="6.23"
       x2="9.898"
       y1="13.773"
       y2="66.834"
       gradientTransform="matrix(1.5070716,0,0,0.70334361,-0.9163328,2.6974781)"
       gradientUnits="userSpaceOnUse"
       xlink:href="#d" />
    <linearGradient
       id="p"
       x1="13.036"
       x2="12.854"
       y1="32.567"
       y2="46.689"
       gradientTransform="matrix(1.3083993,0,0,0.81454585,-0.575928,2.7547678)"
       gradientUnits="userSpaceOnUse"
       xlink:href="#e" />
    <linearGradient
       id="m"
       x1="18.113"
       x2="15.515"
       y1="31.368"
       y2="6.18"
       gradientUnits="userSpaceOnUse"
       xlink:href="#f"
       gradientTransform="matrix(1.00104,0,0,1.00208,-0.054,3.898)" />
    <linearGradient
       id="o"
       x1="22.176"
       x2="22.065"
       y1="36.988"
       y2="32.05"
       gradientUnits="userSpaceOnUse"
       xlink:href="#g"
       gradientTransform="matrix(0.9931,0,0,0.9979,0.298,4.07)" />
    <linearGradient
       id="q"
       x1="21.354"
       x2="20.796"
       y1="26.384"
       y2="50.771"
       gradientTransform="matrix(1.1945593,0,0,0.81447146,0.21249104,4.451914)"
       gradientUnits="userSpaceOnUse"
       xlink:href="#h" />
    <linearGradient
       inkscape:collect="always"
       xlink:href="#linearGradient1322"
       id="linearGradient4975"
       x1="34.892849"
       y1="36.422989"
       x2="45.918697"
       y2="48.547989"
       gradientUnits="userSpaceOnUse"
       gradientTransform="matrix(0.63346587,0,0,0.63346587,11.080913,-14.072673)" />
    <linearGradient
       id="linearGradient1322">
      <stop
         id="stop1324"
         offset="0.0000000"
         style="stop-color:#729fcf" />
      <stop
         id="stop1326"
         offset="1.0000000"
         style="stop-color:#5187d6;stop-opacity:1.0000000;" />
    </linearGradient>
    <linearGradient
       gradientTransform="matrix(0.63346587,0,0,0.63346587,22.494606,-5.4757866)"
       inkscape:collect="always"
       xlink:href="#linearGradient7916"
       id="linearGradient7922"
       x1="16.874998"
       y1="22.851799"
       x2="27.900846"
       y2="34.976799"
       gradientUnits="userSpaceOnUse" />
    <linearGradient
       id="linearGradient7916">
      <stop
         style="stop-color:#ffffff;stop-opacity:1;"
         offset="0"
         id="stop7918" />
      <stop
         style="stop-color:#ffffff;stop-opacity:0.34020618;"
         offset="1.0000000"
         id="stop7920" />
    </linearGradient>
  </defs>
  <g
     id="g3857"
     transform="translate(0,4)"
     style="color:#000000">
    <path
       d="M -1559.252,-150.697 H -219.619 V 327.66 h -1339.633 z"
       style="opacity:0.40200004;fill:url(#i);marker:none"
       transform="matrix(0.02262,0,0,0.02087,43.383,36.37)"
       id="path3851"
       inkscape:connector-curvature="0" />
    <path
       d="m -219.61876,-150.68038 c 0,0 0,478.33079 0,478.33079 142.874166,0.90045 345.40022,-107.16966 345.40014,-239.196175 0,-132.026537 -159.436816,-239.134595 -345.40014,-239.134615 z"
       style="opacity:0.40200004;fill:url(#j);marker:none"
       transform="matrix(0.02262,0,0,0.02087,43.383,36.37)"
       id="path3853"
       inkscape:connector-curvature="0" />
    <path
       d="m -1559.2523,-150.68038 c 0,0 0,478.33079 0,478.33079 -142.8742,0.90045 -345.4002,-107.16966 -345.4002,-239.196175 0,-132.026537 159.4368,-239.134595 345.4002,-239.134615 z"
       style="opacity:0.40200004;fill:url(#k);marker:none"
       transform="matrix(0.02262,0,0,0.02087,43.383,36.37)"
       id="path3855"
       inkscape:connector-curvature="0" />
  </g>
  <path
     d="m 4.4724832,42.665887 c 0.021819,0.41717 0.4603832,0.834341 0.8771207,0.834341 H 36.709205 c 0.416735,0 0.811655,-0.417171 0.789837,-0.834341 L 36.561625,15.38252 c -0.02182,-0.417169 -0.460376,-0.834348 -0.877113,-0.834348 H 22.399838 c -0.485562,0 -1.235757,-0.316245 -1.403102,-1.108934 L 20.384709,10.54015 C 20.229078,9.8029463 19.501578,9.5001048 19.084841,9.5001048 H 4.2906112 c -0.4167458,0 -0.8116641,0.41717 -0.7898455,0.8343402 z"
     id="path3859"
     style="fill:url(#l);stroke:url(#m);stroke-width:0.99955678;stroke-linecap:round;stroke-linejoin:round"
     inkscape:connector-curvature="0" />
  <path
     d="M 5.9872629,42.560054 C 6.0035002,42.8698 5.8075166,43.076296 5.491889,42.973047 v 0 C 5.1762532,42.8698 4.9586143,42.663303 4.9423682,42.353556 L 4.0007519,10.543982 c -0.016238,-0.309745 0.164122,-0.496789 0.4743394,-0.496789 L 18.804263,9.9998784 c 0.310218,0 0.925942,0.2980836 1.12564,1.3116706 l 0.569796,2.793151 c -0.424304,-0.461558 -0.416493,-0.475806 -0.633452,-1.14751 l -0.40348,-1.249172 C 19.245128,10.986156 18.769063,10.882732 18.458845,10.882732 H 5.6540685 c -0.3102169,0 -0.5062004,0.206497 -0.4899549,0.516251 l 0.9319646,31.26432 z"
     display="block"
     style="color:#000000;display:block;opacity:0.4510002;fill:url(#n);stroke-width:0.99280471;marker:none"
     id="path3861"
     inkscape:connector-curvature="0" />
  <path
     d="M 5.0421736,22.5625 H 35.489104 m -30.5084075,-6 H 35.488057 m -30.2614643,10 H 35.492173 m -30.1060153,10 H 35.494881 m -29.9857412,2 H 35.496893 m -30.4547194,-18 H 35.489104 m -30.2932503,4 H 35.491649 m -30.4802145,-6 H 35.48858"
     style="color:#000000;opacity:0.11400003;fill:#729fcf;stroke:#000000;stroke-linecap:round;stroke-linejoin:round;marker:none"
     id="path3863"
     inkscape:connector-curvature="0" />
  <path
     d="m 40.070455,15.279292 c -1e-6,-0.08999 -0.132418,-0.228869 -0.232799,-0.228885 l -12.230299,-0.002 c 0,0 0.884549,0.544823 2.095736,0.552504 l 10.377387,0.06581 c 10e-7,-0.196196 -0.01002,-0.23725 -0.01002,-0.387466 z"
     id="path3865"
     inkscape:connector-curvature="0"
     style="fill:#ffffff;fill-opacity:0.50800003;stroke-width:0.93256027" />
  <path
     d="M 5.2265927,28.5625 H 35.492173 m -30.1675064,6 H 35.493876 m -30.1692094,-2 H 35.493876 m -29.9847362,8 H 35.496893 m -30.2088292,-10 H 35.493184 m -30.6194306,-18 H 19.657487 m -14.7353901,2 H 20.202912"
     style="color:#000000;opacity:0.11400003;fill:#729fcf;stroke:#000000;stroke-linecap:round;stroke-linejoin:round;marker:none"
     id="path3867"
     inkscape:connector-curvature="0" />
  <path
     d="m 39.807026,43.497648 c 1.136001,-0.04397 1.94953,-1.093997 2.03291,-2.316131 0.786324,-11.524435 1.647911,-21.187362 1.647911,-21.187362 0.07166,-0.246964 -0.166753,-0.493928 -0.476828,-0.493928 H 8.8770239 c 0,0 -1.8375519,21.820972 -1.8375519,21.820972 -0.1137647,0.980004 -0.4627921,1.800928 -1.539142,2.179127 z"
     display="block"
     style="color:#000000;display:block;fill:url(#o);stroke:#3465a4;stroke-width:1.00047457;stroke-linejoin:round;marker:none"
     id="path3869"
     inkscape:connector-curvature="0" />
  <path
     d="M 9.8518647,20.499347 42.416705,20.564025 40.85352,40.524 c -0.08374,1.06926 -0.447569,1.425215 -1.859735,1.425215 -1.858589,0 -28.48009,-0.03234 -31.1781183,-0.03234 0.2319865,-0.320137 0.3314528,-0.986547 0.3327841,-1.002502 z"
     id="path3871"
     style="opacity:0.46600001;fill:none;stroke:url(#p);stroke-width:1.00047457;stroke-linecap:round"
     inkscape:connector-curvature="0" />
  <path
     d="m 9.8518684,20.259113 -1.1585968,15.61042 c 0,0 8.2389114,-4.139367 18.5375494,-4.139367 10.298639,0 15.447959,-11.471053 15.447959,-11.471053 z"
     id="path3873"
     style="fill:#8ae234;fill-opacity:0.08900003;fill-rule:evenodd;stroke-width:0.99549711"
     inkscape:connector-curvature="0" />
  <path
     d="m 17.541314,31.52834 -0.699505,7.47196 h 7.764732 l 0.565397,-6.039475 h 4.2261 L 28.83264,39.0003 h 4.826724 l 0.699503,-7.47196 2.640825,-0.0022 -10.295439,-7.52582 -11.704533,7.52582 z"
     id="path3875"
     style="fill:url(#q);fill-rule:evenodd;stroke-width:0.98637658"
     inkscape:connector-curvature="0" />
  <path
     inkscape:connector-curvature="0"
     style="font-style:normal;font-variant:normal;font-weight:bold;font-stretch:normal;font-size:59.90107727px;line-height:125%;font-family:'Bitstream Vera Sans';text-align:start;writing-mode:lr-tb;text-anchor:start;fill:#75a1d0;fill-opacity:1;stroke:#3465a4;stroke-width:0.63346612px;stroke-linecap:butt;stroke-linejoin:miter;stroke-opacity:1"
     d="M 39.924012,18.306221 V 12.58795 L 46.245028,12.5625 V 8.131198 h -6.31536 l -0.0056,-6.3094271 -4.44457,0.00707 0.0029,6.2910461 -6.328088,0.04666 -0.02262,4.414332 6.356367,-0.01838 0.0043,5.726755 z"
     id="text1314"
     sodipodi:nodetypes="ccccccccccccc" />
  <path
     inkscape:connector-curvature="0"
     style="font-style:normal;font-variant:normal;font-weight:bold;font-stretch:normal;font-size:59.90107727px;line-height:125%;font-family:'Bitstream Vera Sans';text-align:start;writing-mode:lr-tb;text-anchor:start;opacity:0.40860219;fill:url(#linearGradient4975);fill-opacity:1;stroke:url(#linearGradient7922);stroke-width:0.63346624px;stroke-linecap:butt;stroke-linejoin:miter;stroke-opacity:1"
     d="m 39.280629,17.667205 v -5.722846 h 6.336308 l -0.0043,-3.182805 H 39.286253 V 2.4300797 l -3.164057,0.011314 0.0056,6.3201623 -6.351249,0.01131 -0.01697,3.150283 6.375449,0.0056 -0.0085,5.718604 z"
     id="path7076"
     sodipodi:nodetypes="ccccccccccccc" />
  <path
     inkscape:connector-curvature="0"
     style="opacity:0.31182796;fill:#ffffff;fill-opacity:1;fill-rule:evenodd;stroke:none;stroke-width:0.63346589px;stroke-linecap:butt;stroke-linejoin:miter;stroke-opacity:1"
     d="m 29.462731,10.36086 c 0,1.22734 16.460215,-0.61367 16.460215,-0.0198 V 8.440666 l -6.324761,0.0198 V 2.1478307 H 35.797389 V 8.460462 h -6.334658 z"
     id="path7914"
     sodipodi:nodetypes="ccccccccc" />
</svg>
