<?xml version="1.0" encoding="UTF-8" standalone="no"?>
<!-- Created with Inkscape (http://www.inkscape.org/) -->

<svg
   xmlns:dc="http://purl.org/dc/elements/1.1/"
   xmlns:cc="http://creativecommons.org/ns#"
   xmlns:rdf="http://www.w3.org/1999/02/22-rdf-syntax-ns#"
   xmlns:svg="http://www.w3.org/2000/svg"
   xmlns="http://www.w3.org/2000/svg"
   xmlns:sodipodi="http://sodipodi.sourceforge.net/DTD/sodipodi-0.dtd"
   xmlns:inkscape="http://www.inkscape.org/namespaces/inkscape"
   id="svg2"
   sodipodi:docname="Bananas.svg"
   inkscape:export-filename="C:\Documents and Settings\Elembis\My Documents\Images\Shartak\Shartak.com\banana.png"
   viewBox="0 0 60.920694 60.000002"
   sodipodi:version="0.32"
   inkscape:export-xdpi="25.797226"
   version="1.0"
   inkscape:output_extension="org.inkscape.output.svg.inkscape"
   inkscape:export-ydpi="25.797226"
   inkscape:version="0.92.3 (2405546, 2018-03-11)"
   width="60.920692"
   height="60">
  <defs
     id="defs30" />
  <sodipodi:namedview
     id="base"
     bordercolor="#666666"
     inkscape:pageshadow="2"
     guidetolerance="10"
     pagecolor="#ffffff"
     gridtolerance="10000"
     inkscape:window-height="1016"
     inkscape:zoom="6.098796"
     objecttolerance="10"
     borderlayer="true"
     showgrid="false"
     borderopacity="1.0"
     inkscape:current-layer="g5662"
     inkscape:cx="12.639556"
     inkscape:cy="33.749261"
     inkscape:window-y="27"
     inkscape:window-x="67"
     inkscape:window-width="1853"
     inkscape:pageopacity="0.0"
     inkscape:document-units="px"
     fit-margin-top="0"
     fit-margin-left="0"
     fit-margin-right="0"
     fit-margin-bottom="0"
     inkscape:window-maximized="1" />
  <g
     id="layer1"
     inkscape:label="Layer 1"
     inkscape:groupmode="layer"
     transform="translate(51.76347,-534.00885)">
    <g
       id="g5662"
       transform="matrix(0.33047871,-0.25448266,0.25448266,0.33047871,-186.36253,446.48137)">
      <path
         id="path4904"
         style="fill:#000000;fill-rule:evenodd;stroke-width:1.28568053"
         d="m 186.41732,421.98941 c -7.35409,1.41425 -10.09259,8.7812 -13.01109,14.61819 -4.74416,4.92415 -12.14968,5.52842 -17.51097,9.56546 -22.60226,11.28827 -49.38298,6.22269 -72.242378,-1.61996 -7.777082,0.15428 -19.112927,-1.28568 -23.531811,6.45412 -2.622788,7.85551 4.834159,15.15817 8.561347,20.04376 -6.03627,5.9527 -3.322199,16.82955 1.80381,22.64083 6.910532,8.84548 19.062785,10.92828 28.517677,14.66961 12.599665,21.2523 41.540335,25.93218 63.731175,18.80951 19.19521,-4.61559 37.94044,-14.86247 47.3259,-33.05485 7.54695,-11.76397 10.07974,-29.08209 0.27,-40.30608 -8.79406,-4.46131 -8.51121,-15.15817 -9.51404,-23.48938 -2.39136,-5.28415 -8.97405,-8.03551 -14.39962,-8.33121 z"
         inkscape:connector-curvature="0" />
      <g
         id="g4878"
         transform="matrix(0.26180312,0,0,0.26180312,47.547116,324.61197)">
        <g
           id="g9893"
           inkscape:transform-center-x="88.0002"
           inkscape:transform-center-y="113.00018">
          <path
             id="path17976"
             d="m 543,119 c 0,0 4,58 -12,70 -16,12 -134,131 -134,131 l 22,25 143,-97 11,-127 z"
             sodipodi:nodetypes="csccccc"
             style="fill:#ffc701;fill-rule:evenodd"
             transform="translate(-17.857,318.65)"
             inkscape:connector-curvature="0" />
          <path
             id="path18863"
             sodipodi:nodetypes="csccccc"
             style="opacity:0.7;fill:#000000;fill-rule:evenodd"
             d="m 525.14,437.65 c 0,0 4,58 -12,70 -16,12 -134,131 -134,131 l 22,25 143,-97 11,-127 z"
             inkscape:connector-curvature="0" />
        </g>
        <g
           id="g2783">
          <path
             id="path6424"
             style="fill:#ffc701;fill-rule:evenodd"
             d="m 519.91,399.65 -36.52,54.8 c 0,0 -29.26,7.27 -44.1,16.49 -14.83,9.22 -61.43,43.25 -164.54,35.95 -103.11,-7.3 -118.43,-29.33 -140.77,-30.14 -22.35,-0.81 -56.142,3.08 -64.333,9.32 -8.191,6.23 1.603,25.02 1.603,25.02 0,0 29.97,67.41 139.06,95.06 109.08,27.65 238.24,-29.44 238.24,-29.44 l 90.19,-165.64 z"
             inkscape:connector-curvature="0" />
          <path
             id="path1895"
             style="opacity:0.4;fill:#ffffff;fill-rule:evenodd"
             d="m 517.01,404.01 -33.63,50.44 c 0,0 -29.26,7.28 -44.09,16.5 -14.84,9.22 -61.42,43.24 -164.53,35.93 -103.11,-7.3 -118.44,-29.31 -140.79,-30.12 -22.34,-0.81 -56.118,3.07 -64.309,9.31 -0.371,0.29 -0.699,0.61 -1,0.94 19.285,-2.8 47.719,-2.23 67.719,1.41 38.39,6.97 73.6,30.24 163.13,27.81 127.23,-3.49 142.15,-43.13 159.87,-47.81 24.63,-6.52 71.1,-16.07 57.63,-64.41 z"
             inkscape:connector-curvature="0" />
          <path
             id="path9086"
             style="opacity:0.4;fill:#000000;fill-rule:evenodd"
             d="m 106.96,554.71 c 21.53,18.7 54.48,39.05 103.35,51.44 11.76,2.98 23.77,4.96 35.81,6.15 l 38.71,-7.85 C 220.54,614.52 142.32,575.19 106.96,554.71 Z"
             inkscape:connector-curvature="0" />
        </g>
        <g
           id="g9941">
          <path
             id="path12644"
             sodipodi:nodetypes="cssssssssc"
             d="m 546,120 c 0,0 21,55 15,69 -6,14 -41,94 -106,124 -65,30 -232,26 -236,18 -4,-8 0,76 101,107 101,31 230.09,-36.91 253,-59 29,-28 84,-100 68,-154 -16,-54 -28,-38 -37,-53 -9,-15 -19,-44 -19,-56 0,-12 -38,4 -39,4 z"
             inkscape:transform-center-x="126"
             inkscape:transform-center-y="181"
             transform="translate(-17.857,318.65)"
             style="fill:#ffc701;fill-rule:evenodd"
             inkscape:connector-curvature="0" />
          <path
             id="path8981"
             style="opacity:0.6;fill:#000000;fill-rule:evenodd"
             d="m 533.72,527.64 c -15.19,29.65 -47.22,81.21 -96.59,104 -65,30 -232,26 -236,18 -1,-2 -1.48,1.76 -0.09,9 l 0.03,0.12 2.06,6.88 c 0,0 -0.16,0.01 -0.37,0.09 0.1,0.36 0.23,0.76 0.34,1.13 0.15,0.49 0.28,0.96 0.44,1.47 0.28,0.9 0.63,1.86 0.97,2.81 0.11,0.32 0.19,0.64 0.31,0.97 0.22,0.62 0.5,1.26 0.75,1.9 0.28,0.74 0.53,1.49 0.84,2.25 0.22,0.55 0.49,1.11 0.72,1.66 0.32,0.74 0.63,1.46 0.97,2.22 0.16,0.36 0.33,0.73 0.5,1.09 1.09,2.36 2.29,4.79 3.66,7.28 0.03,0.07 0.08,0.13 0.12,0.19 0.02,0.03 0.02,0.06 0.03,0.09 0.36,0.66 0.74,1.31 1.13,1.97 0.03,0.06 0.06,0.13 0.09,0.19 0.4,0.7 0.82,1.39 1.25,2.09 0.46,0.75 0.92,1.53 1.41,2.29 0,0.01 0.02,0.01 0.03,0.03 0.46,0.72 0.92,1.45 1.4,2.18 0.01,0.01 0.03,0 0.04,0 40.79,17.91 185.46,-16.43 250.37,-63.9 45.69,-33.42 60.68,-79.84 65.59,-106 z"
             inkscape:connector-curvature="0" />
          <path
             id="path17089"
             style="opacity:0.4;fill:#000000;fill-rule:evenodd"
             d="m 559.8,430.18 c -1.61,0.03 -3.42,0.24 -5.31,0.56 6.27,19.26 36.34,112.97 33.65,130.91 -3,20 -34.83,92.7 -87,124 -35,21 -111,54 -138,59 -17.08,3.16 -50.52,7.82 -76.65,6.47 4.95,1.98 10.14,3.84 15.65,5.53 101,31 230.09,-36.91 253,-59 29,-28 84,-100 68,-154 -16,-54 -28,-38 -37,-53 -9,-15 -19,-44 -19,-56 0,-3.38 -3,-4.55 -7.34,-4.47 z"
             inkscape:connector-curvature="0" />
        </g>
        <g
           id="g9903">
          <path
             id="path1933"
             sodipodi:nodetypes="cssccccc"
             style="fill:#ffc701;fill-rule:evenodd"
             d="m 533.14,448.65 c 0,0 -19,19 -14,37 5,18 22,62 -41,112 -63,50 -246,137 -369,42 -34.997,-40 -14.997,-66 -14.997,-66 0,0 19.987,-2.89 27.997,-2 10,-3 57,0 101,2 58.91,-1.16 220,-76 251,-105 0,0 38,-46 39,-54 1,-8 27,16 28,23 1,7 -8,10 -8,11 z"
             inkscape:connector-curvature="0" />
          <path
             id="path7201"
             sodipodi:nodetypes="cssccccsscc"
             style="opacity:0.4;fill:#ffffff;fill-rule:evenodd"
             d="m 514.6,413.04 c -0.81,0.1 -1.34,0.6 -1.47,1.6 -1,8 -39,54 -39,54 -31,29 -192.09,103.84 -251,105 -44,-2 -91,-5 -101,-2 -8.01,-0.89 -27.998,2 -27.998,2 0,0 -0.366,0.53 -0.907,1.44 10.955,3.2 30.905,7.67 63.155,8.53 74.39,1.97 105.63,-2.07 170.13,-27.19 67.63,-26.34 158.31,-60.2 193.87,-141.06 -2.41,-1.54 -4.48,-2.47 -5.78,-2.32 z"
             inkscape:connector-curvature="0" />
          <path
             id="path4646"
             style="opacity:0.4;fill:#000000;fill-rule:evenodd"
             d="m 518.58,482.9 c -8.18,28.13 -41.31,102.57 -168.44,145.75 -155.44,52.79 -193.32,22.43 -243.53,7.97 0.82,0.99 1.64,2.01 2.53,3.03 123,95 306,8 369,-42 63,-50 46,-94 41,-112 -0.25,-0.92 -0.42,-1.83 -0.56,-2.75 z"
             inkscape:connector-curvature="0" />
        </g>
        <g
           id="g9946">
          <path
             id="path23294"
             sodipodi:nodetypes="czsssz"
             style="fill:#884a13;fill-rule:evenodd"
             d="m 534.47,391.43 c -5.75,-1.5 -25.75,14.3 -25.4,19.59 0.35,5.28 19.46,22.42 31.57,26.55 4,1 26,-1 27,-5 1,-4 1,-21 -3,-25 -4,-4 -23.48,-14.4 -30.17,-16.14 z"
             inkscape:connector-curvature="0" />
          <path
             id="path22407"
             sodipodi:nodetypes="czsssz"
             style="fill:#884a13;fill-rule:evenodd"
             d="m 534.47,391.43 c -5.75,-1.5 -25.75,14.3 -25.4,19.59 0.35,5.28 19.46,22.42 31.57,26.55 4,1 26,-1 27,-5 1,-4 1,-21 -3,-25 -4,-4 -23.48,-14.4 -30.17,-16.14 z"
             inkscape:connector-curvature="0" />
          <path
             id="path25958"
             style="opacity:0.3;fill:#ffffff;fill-rule:evenodd"
             d="m 533.24,391.34 c -6.94,0.52 -24.49,14.72 -24.16,19.68 0.14,2.13 3.34,6.16 7.88,10.5 0.28,-8.34 4.42,-20.43 23.71,-27.75 -2.49,-1.1 -4.67,-1.95 -6.18,-2.34 -0.36,-0.09 -0.79,-0.13 -1.25,-0.09 z"
             inkscape:connector-curvature="0" />
          <path
             id="path26854"
             style="opacity:0.4;fill:#000000;fill-rule:evenodd"
             d="m 564.58,407.52 c 0.15,18.26 -15.53,25.96 -26.37,29.1 0.83,0.37 1.65,0.7 2.43,0.97 4,1 26,-1 27,-5 1,-4 1,-21 -3,-25 -0.01,-0.02 -0.04,-0.05 -0.06,-0.07 z"
             inkscape:connector-curvature="0" />
        </g>
      </g>
    </g>
  </g>
  <metadata
     id="metadata27">
    <rdf:RDF>
      <cc:Work>
        <dc:format>image/svg+xml</dc:format>
        <dc:type
           rdf:resource="http://purl.org/dc/dcmitype/StillImage" />
        <cc:license
           rdf:resource="http://creativecommons.org/publicdomain/zero/1.0/" />
        <dc:publisher>
          <cc:Agent
             rdf:about="http://openclipart.org/">
            <dc:title>Openclipart</dc:title>
          </cc:Agent>
        </dc:publisher>
        <dc:title></dc:title>
        <dc:date>2008-11-16T06:32:07</dc:date>
        <dc:description>I have added a thick contour to &quot;Bananas&quot; image from Wikimedia Commons. Size 128x128 px.</dc:description>
        <dc:source>https://openclipart.org/detail/20420/bananas-icon-by-pitr-20420</dc:source>
        <dc:creator>
          <cc:Agent>
            <dc:title>pitr</dc:title>
          </cc:Agent>
        </dc:creator>
        <dc:subject>
          <rdf:Bag>
            <rdf:li>banana</rdf:li>
            <rdf:li>contour</rdf:li>
            <rdf:li>food</rdf:li>
            <rdf:li>fruit</rdf:li>
            <rdf:li>icon</rdf:li>
          </rdf:Bag>
        </dc:subject>
      </cc:Work>
      <cc:License
         rdf:about="http://creativecommons.org/publicdomain/zero/1.0/">
        <cc:permits
           rdf:resource="http://creativecommons.org/ns#Reproduction" />
        <cc:permits
           rdf:resource="http://creativecommons.org/ns#Distribution" />
        <cc:permits
           rdf:resource="http://creativecommons.org/ns#DerivativeWorks" />
      </cc:License>
    </rdf:RDF>
  </metadata>
</svg>
