<?xml version="1.0" encoding="utf-8"?>
<!-- Generator: Adobe Illustrator 21.0.0, SVG Export Plug-In . SVG Version: 6.00 Build 0)  -->
<svg version="1.1" id="svg2" xmlns:svg="http://www.w3.org/2000/svg"
	 xmlns="http://www.w3.org/2000/svg" xmlns:xlink="http://www.w3.org/1999/xlink" x="0px" y="0px" viewBox="0 0 48 48"
	 style="enable-background:new 0 0 48 48;" xml:space="preserve">
<style type="text/css">
	.st0{fill:url(#path1432_1_);stroke:url(#path1432_2_);stroke-width:1;}
	.st1{opacity:0.6989;fill:none;stroke:url(#path2177_1_);stroke-width:1;stroke-miterlimit:10;enable-background:new    ;}
	.st2{opacity:0.4943;fill:url(#path4989_1_);enable-background:new    ;}
</style>
<g>
	
		<image style="overflow:visible;" width="118" height="120" xlink:href="51725D8F5F231B40.png"  transform="matrix(1 0 0 1 -35 -36)">
	</image>
</g>
<g id="layer1" inkscape:groupmode="layer" inkscape:label="Layer 1">
	
		<linearGradient id="path1432_1_" gradientUnits="userSpaceOnUse" x1="22.1279" y1="16.7216" x2="20.6279" y2="9.9716" gradientTransform="matrix(1 0 0 -1 0 50)">
		<stop  offset="0" style="stop-color:#99B00B"/>
		<stop  offset="1" style="stop-color:#99B00B;stop-opacity:0"/>
	</linearGradient>
	
		<linearGradient id="path1432_2_" gradientUnits="userSpaceOnUse" x1="21.9446" y1="16.7623" x2="20.4446" y2="10.0123" gradientTransform="matrix(1 0 0 -1 0 50)">
		<stop  offset="0" style="stop-color:#788600"/>
		<stop  offset="1" style="stop-color:#788600;stop-opacity:0"/>
	</linearGradient>
	<path id="path1432" sodipodi:nodetypes="ccccccc" class="st0" d="M36.4,44.5C-3.7,45.9,2.7,11.8,23.5,12V2.6l16.6,14.6L23.5,32.5
		v-9.7C9.4,22.3,5.3,44.3,36.4,44.5z"/>
	
		<linearGradient id="path2177_1_" gradientUnits="userSpaceOnUse" x1="-10222.0605" y1="-3154.0039" x2="-10226.4971" y2="-3155.1926" gradientTransform="matrix(1.813471e-16 -1.1719 -1.1719 -1.813471e-16 -3670.8787 -11949.1719)">
		<stop  offset="0" style="stop-color:#FFFFFF"/>
		<stop  offset="1" style="stop-color:#FFFFFF;stop-opacity:0"/>
	</linearGradient>
	<path id="path2177" sodipodi:nodetypes="ccccccc" class="st1" d="M14.9,38.8C3.2,32.7,6.7,12.6,24.5,13V5l14,12.3l-14,12.9v-8.3
		C9.7,21.5,10.3,34.6,14.9,38.8z"/>
	
		<radialGradient id="path4989_1_" cx="-5609.1118" cy="-1136.5634" r="19.0625" gradientTransform="matrix(-1.290127e-02 1.6852 -1.7131 -1.311475e-02 -2003.5756 9454.9961)" gradientUnits="userSpaceOnUse">
		<stop  offset="0" style="stop-color:#FFFFFF"/>
		<stop  offset="1" style="stop-color:#FFFFFF;stop-opacity:0"/>
	</radialGradient>
	<path id="path4989" sodipodi:nodetypes="ccccccc" class="st2" d="M24,4.1l10.7,10.2c-6.9,0-4.7,8.9-10.8,11.8l0.1-3.7
		C8.8,22.4,9.7,37.9,20.7,42.2C1.6,37.3,4.3,12.9,23.9,12.4L24,4.1z"/>
</g>
</svg>
