<?xml version="1.0" encoding="UTF-8" standalone="no"?>
<!-- Created with Inkscape (http://www.inkscape.org/) -->

<svg
   xmlns:dc="http://purl.org/dc/elements/1.1/"
   xmlns:cc="http://creativecommons.org/ns#"
   xmlns:rdf="http://www.w3.org/1999/02/22-rdf-syntax-ns#"
   xmlns:svg="http://www.w3.org/2000/svg"
   xmlns="http://www.w3.org/2000/svg"
   xmlns:xlink="http://www.w3.org/1999/xlink"
   xmlns:sodipodi="http://sodipodi.sourceforge.net/DTD/sodipodi-0.dtd"
   xmlns:inkscape="http://www.inkscape.org/namespaces/inkscape"
   width="48"
   height="48"
   id="svg3081"
   sodipodi:version="0.32"
   inkscape:version="0.92.4 (5da689c313, 2019-01-14)"
   version="1.0"
   sodipodi:docname="MasksColored.svg"
   inkscape:export-filename="/home/luca/Dropbox/MATLAB scripts/ObjectFinder/ObjectFinder_resources/48px-MasksColored.png"
   inkscape:export-xdpi="96"
   inkscape:export-ydpi="96">
  <defs
     id="defs3083">
    <linearGradient
       id="linearGradient3542">
      <stop
         id="stop3544"
         offset="0"
         style="stop-color:#ffffff;stop-opacity:0.79607844" />
      <stop
         id="stop3546"
         offset="1"
         style="stop-color:#ffffff;stop-opacity:0.11673152" />
    </linearGradient>
    <linearGradient
       inkscape:collect="always"
       id="linearGradient3524">
      <stop
         style="stop-color:#d9e2ee;stop-opacity:1;"
         offset="0"
         id="stop3526" />
      <stop
         style="stop-color:#d9e2ee;stop-opacity:0;"
         offset="1"
         id="stop3528" />
    </linearGradient>
    <linearGradient
       id="linearGradient3407">
      <stop
         id="stop3409"
         offset="0"
         style="stop-color:#ffffff;stop-opacity:0.79607844" />
      <stop
         id="stop3411"
         offset="1"
         style="stop-color:#ffffff;stop-opacity:0.11372549" />
    </linearGradient>
    <linearGradient
       id="linearGradient3401">
      <stop
         id="stop3403"
         offset="0"
         style="stop-color:#ffffff;stop-opacity:0.79607844" />
      <stop
         id="stop3405"
         offset="1"
         style="stop-color:#ffffff;stop-opacity:0.11372549" />
    </linearGradient>
    <linearGradient
       id="linearGradient3378">
      <stop
         style="stop-color:#94b6db;stop-opacity:1"
         offset="0"
         id="stop3380" />
      <stop
         style="stop-color:#4a6ea2;stop-opacity:1"
         offset="1"
         id="stop3382" />
    </linearGradient>
    <linearGradient
       inkscape:collect="always"
       id="linearGradient3204">
      <stop
         style="stop-color:#000000;stop-opacity:1"
         offset="0"
         id="stop3206" />
      <stop
         style="stop-color:#000000;stop-opacity:0"
         offset="1"
         id="stop3208" />
    </linearGradient>
    <linearGradient
       id="linearGradient3116">
      <stop
         style="stop-color:#ffffff;stop-opacity:0.79607844"
         offset="0"
         id="stop3118" />
      <stop
         style="stop-color:#ffffff;stop-opacity:0.21568628"
         offset="1"
         id="stop3120" />
    </linearGradient>
    <radialGradient
       inkscape:collect="always"
       xlink:href="#linearGradient3204"
       id="radialGradient3325"
       gradientUnits="userSpaceOnUse"
       gradientTransform="matrix(1.8369323,0,0,0.25049068,-4.9670776,35.749025)"
       cx="11"
       cy="22"
       fx="11"
       fy="22"
       r="8" />
    <linearGradient
       inkscape:collect="always"
       xlink:href="#linearGradient3524"
       id="linearGradient3530"
       x1="27.928572"
       y1="4"
       x2="19.428572"
       y2="4"
       gradientUnits="userSpaceOnUse" />
    <linearGradient
       inkscape:collect="always"
       xlink:href="#linearGradient3524"
       id="linearGradient3532"
       gradientUnits="userSpaceOnUse"
       x1="27.928572"
       y1="4"
       x2="19.428572"
       y2="4"
       gradientTransform="translate(0,-1)" />
    <radialGradient
       inkscape:collect="always"
       xlink:href="#linearGradient3204"
       id="radialGradient3325-3"
       gradientUnits="userSpaceOnUse"
       gradientTransform="matrix(1.8369323,0,0,0.25049068,9.5004823,37.678032)"
       cx="11"
       cy="22"
       fx="11"
       fy="22"
       r="8" />
  </defs>
  <sodipodi:namedview
     id="base"
     pagecolor="#ffffff"
     bordercolor="#666666"
     borderopacity="1.0"
     inkscape:pageopacity="0.0"
     inkscape:pageshadow="2"
     inkscape:zoom="12.551145"
     inkscape:cx="24"
     inkscape:cy="24"
     inkscape:current-layer="layer1"
     showgrid="true"
     inkscape:grid-bbox="true"
     inkscape:document-units="px"
     inkscape:grid-points="true"
     fill="#729fcf"
     inkscape:window-width="1850"
     inkscape:window-height="1016"
     inkscape:window-x="70"
     inkscape:window-y="27"
     inkscape:window-maximized="1">
    <inkscape:grid
       id="GridFromPre046Settings"
       type="xygrid"
       originx="0"
       originy="0"
       spacingx="0.5"
       spacingy="0.5"
       color="#3f3fff"
       empcolor="#3f3fff"
       opacity="0.15"
       empopacity="0.38"
       empspacing="2" />
  </sodipodi:namedview>
  <metadata
     id="metadata3086">
    <rdf:RDF>
      <cc:Work
         rdf:about="">
        <dc:format>image/svg+xml</dc:format>
        <dc:type
           rdf:resource="http://purl.org/dc/dcmitype/StillImage" />
        <dc:title>stock tool measure</dc:title>
        <dc:creator>
          <cc:Agent>
            <dc:title>Ulisse Perusin</dc:title>
          </cc:Agent>
        </dc:creator>
        <dc:subject>
          <rdf:Bag />
        </dc:subject>
        <cc:license
           rdf:resource="http://creativecommons.org/licenses/by-sa/2.0/" />
      </cc:Work>
      <cc:License
         rdf:about="http://creativecommons.org/licenses/by-sa/2.0/">
        <cc:permits
           rdf:resource="http://web.resource.org/cc/Reproduction" />
        <cc:permits
           rdf:resource="http://web.resource.org/cc/Distribution" />
        <cc:requires
           rdf:resource="http://web.resource.org/cc/Notice" />
        <cc:requires
           rdf:resource="http://web.resource.org/cc/Attribution" />
        <cc:permits
           rdf:resource="http://web.resource.org/cc/DerivativeWorks" />
        <cc:requires
           rdf:resource="http://web.resource.org/cc/ShareAlike" />
      </cc:License>
    </rdf:RDF>
  </metadata>
  <g
     id="layer1"
     inkscape:label="Layer 1"
     inkscape:groupmode="layer">
    <ellipse
       style="color:#000000;display:block;overflow:visible;visibility:visible;opacity:0.2;fill:url(#radialGradient3325);fill-opacity:1;fill-rule:nonzero;stroke:none;stroke-width:1.35666406;stroke-linecap:round;stroke-linejoin:miter;stroke-miterlimit:4;stroke-dasharray:none;stroke-dashoffset:17.85000038;stroke-opacity:1;marker:none;marker-start:none;marker-mid:none;marker-end:none"
       id="path3202"
       cx="15.239177"
       cy="41.259815"
       rx="14.695458"
       ry="2.0039253" />
    <path
       style="fill:#000000;stroke-width:0.09332038"
       d="M 15.333643,38.034235 C 10.34609,37.340667 5.0839865,31.592605 2.0939863,23.571889 0.7173228,19.87897 0.1315935,16.502739 0.0488187,11.783236 L 0,9 0.4416891,8.3535658 C 2.3507053,5.5596234 7.1658958,3.2550341 12.636921,2.5168284 c 1.567308,-0.2114766 4.526507,-0.2103964 5.910618,0.00218 2.036068,0.3126746 3.762039,0.9080316 4.918946,1.696742 l 0.626208,0.4269104 0.459413,1.1824407 c 1.19319,3.0710341 2.0401,6.3894005 2.409596,9.4412955 0.19903,1.64391 0.224264,5.570423 0.04618,7.185669 -0.911117,8.263908 -4.267234,14.139111 -8.793194,15.393319 -0.802657,0.222427 -2.051162,0.304277 -2.881048,0.188873 z"
       id="path909"
       inkscape:connector-curvature="0" />
    <path
       style="fill:#729fcf;stroke-width:0.09332038"
       d="m 18.174262,37.567033 c 3.374454,-1.060425 5.997697,-4.464833 7.548033,-9.795726 0.71408,-2.455398 1.071391,-4.89404 1.150232,-7.850329 0.08465,-3.17401 -0.219915,-5.912069 -1.005991,-9.044026 C 25.223402,8.3145168 24.090402,5.1065679 23.698486,4.7383811 23.286296,4.3511488 22.029968,3.7116348 21.026753,3.3783773 19.289838,2.8013928 18.119467,2.6373483 15.701272,2.6319346 13.444266,2.626845 12.335791,2.7420188 10.288689,3.1941437 6.5958913,4.0097396 2.7950617,5.9589908 1.1825498,7.864217 0.3680808,8.826535 0.3065703,8.9726841 0.2442796,10.093523 c -0.1088429,1.958482 0.2498865,6.238872 0.7111675,8.485725 1.7585133,8.565542 6.8991752,16.278677 12.4128149,18.624398 1.566688,0.666532 3.400189,0.805164 4.806,0.363387 z"
       id="path907"
       inkscape:connector-curvature="0" />
    <path
       style="fill:#000000;stroke-width:0.09332038"
       d="M 14.351758,31.406037 C 11.899388,31.023536 9.4405103,29.365793 7.0223002,26.464611 6.2148393,25.49588 6.1825919,25.439536 6.1825919,24.99741 c 0,-0.626973 0.2919693,-0.915176 0.9173924,-0.905561 0.3548156,0.0055 0.5806262,0.09592 1.2157184,0.487034 0.8340256,0.513627 1.8611143,0.944797 2.9966363,1.257987 1.033208,0.284969 3.550172,0.285367 4.630721,7.46e-4 2.40525,-0.633584 4.21808,-1.789431 5.826152,-3.714709 0.718376,-0.860082 1.0362,-1.017736 1.589605,-0.788507 0.689264,0.285503 0.708964,0.7505 0.100725,2.377485 -1.399298,3.742984 -3.099673,5.992515 -5.387702,7.127724 -1.049442,0.520682 -2.549275,0.749058 -3.72008,0.566444 z"
       id="path905"
       inkscape:connector-curvature="0" />
    <path
       style="fill:#ffffff;stroke-width:0.09332038"
       d="m 17.185178,30.889985 c 2.510978,-0.832084 4.693986,-3.503733 6.0675,-7.425641 0.450375,-1.285991 0.466203,-1.491519 0.134941,-1.75209 -0.497394,-0.39125 -0.638485,-0.315833 -1.656094,0.885233 -3.102529,3.661862 -8.212675,4.784002 -12.5856367,2.763687 -0.43084,-0.199049 -1.0108107,-0.515089 -1.288823,-0.702315 -0.2780123,-0.187223 -0.6168695,-0.340407 -0.7530156,-0.340407 -0.3811444,0 -0.6788245,0.292897 -0.6788245,0.667917 0,0.261208 0.1328742,0.477969 0.7367381,1.201859 2.326769,2.789244 4.5321177,4.355279 6.9062017,4.904141 0.859697,0.198752 2.161594,0.114222 3.117013,-0.202384 z"
       id="path903"
       inkscape:connector-curvature="0" />
    <path
       style="fill:#000000;stroke-width:0.09332038"
       d="m 3.8190338,18.33589 c -0.3926782,-0.207184 -0.7104591,-0.763505 -0.713891,-1.249768 -0.00312,-0.44194 0.4845021,-1.356695 1.0466332,-1.963435 0.6108367,-0.659312 1.4566753,-1.185085 2.3574372,-1.465382 1.33977,-0.416906 3.3371241,-0.173425 4.1045078,0.500347 0.73599,0.646208 0.614697,1.834966 -0.236011,2.31309 -0.4397477,0.247153 -0.8360037,0.246931 -1.5387207,-8.39e-4 -1.1096027,-0.391268 -2.1130916,-0.0087 -2.8519652,1.087339 -0.2496653,0.370342 -0.5610105,0.707035 -0.7451069,0.805768 -0.4104088,0.220104 -0.9747275,0.209356 -1.4228834,-0.0271 z"
       id="path901"
       inkscape:connector-curvature="0" />
    <path
       style="fill:#ffffff;stroke-width:0.09332038"
       d="m 5.3109406,17.960144 c 0.1301144,-0.121429 0.3140001,-0.371736 0.4086337,-0.556237 0.2196458,-0.42823 0.7561305,-0.8994 1.2959826,-1.138202 0.52742,-0.233303 1.4877644,-0.248629 2.0013744,-0.03195 0.478313,0.2018 0.879131,0.192001 1.2438967,-0.03041 0.82133,-0.500786 0.737308,-1.599671 -0.157206,-2.056017 -2.1801737,-1.112241 -5.2461109,-0.09461 -6.4282681,2.133664 -0.2550187,0.480688 -0.3048023,0.662378 -0.2642806,0.964495 0.051093,0.380896 0.339045,0.77656 0.6718102,0.923093 0.3222379,0.141899 0.9705715,0.03185 1.2280571,-0.208441 z"
       id="path899"
       inkscape:connector-curvature="0" />
    <path
       style="fill:#000000;stroke-width:0.09332038"
       d="m 16.566414,15.176429 c -0.507878,-0.230549 -0.771013,-0.655027 -0.771473,-1.244506 -4.67e-4,-0.561688 0.162248,-0.879388 0.686703,-1.341033 1.552409,-1.366485 4.033883,-1.63187 5.932046,-0.634414 1.645723,0.864803 2.137381,2.041009 1.231718,2.946672 -0.593046,0.593047 -1.503413,0.569355 -2.158271,-0.05616 -0.853236,-0.815012 -2.243763,-0.798128 -3.196992,0.03881 -0.561275,0.492807 -1.08415,0.580966 -1.723731,0.290629 z"
       id="path897"
       inkscape:connector-curvature="0" />
    <path
       style="fill:#ffffff;stroke-width:0.09332038"
       d="m 17.618694,14.984758 c 0.137394,-0.05224 0.417986,-0.238932 0.623538,-0.414877 0.635107,-0.543628 1.581646,-0.746956 2.408242,-0.517319 0.292361,0.08122 0.509269,0.207609 1.481749,0.86337 0.73592,0.496244 1.78325,-0.241902 1.658879,-1.16916 -0.08856,-0.66024 -1.083838,-1.464313 -2.330555,-1.882822 -1.67935,-0.56374 -3.692242,-0.125867 -4.920343,1.070341 -0.616243,0.60024 -0.672923,1.203113 -0.164588,1.750649 0.354528,0.381867 0.766147,0.481146 1.243078,0.299818 z"
       id="path895"
       inkscape:connector-curvature="0" />
    <path
       style="fill:#000000;stroke-width:0.09332038"
       d="m 30.303725,38.037675 c -1.167973,-0.171686 -2.341717,-0.671478 -3.387997,-1.442642 -0.690027,-0.508587 -1.789095,-1.607718 -1.789095,-1.789198 0,-0.06905 0.174972,-0.409733 0.388827,-0.757089 0.937657,-1.522984 2.218908,-4.698694 2.79437,-6.926118 0.151845,-0.587741 0.294018,-1.086556 0.315939,-1.108479 0.02192,-0.02192 0.240947,0.05521 0.48672,0.171396 0.830413,0.39258 2.411124,0.645103 4.646279,0.742258 3.181328,0.13828 3.72503,0.349876 5.000208,1.945967 0.315185,0.394506 0.682715,0.765192 0.816733,0.823746 0.416623,0.182032 0.938907,-0.135592 0.94582,-0.575193 0.0043,-0.271954 -0.513073,-1.577759 -0.899849,-2.271253 -0.449255,-0.805515 -1.270404,-1.607095 -2.004326,-1.956561 -0.739029,-0.351894 -1.663126,-0.535577 -3.594922,-0.714563 -1.181468,-0.109464 -1.891123,-0.237958 -3.266213,-0.59139 l -1.756791,-0.451542 0.04666,-0.832416 c 0.02566,-0.457829 0.04457,-2.144737 0.04201,-3.74868 -0.0036,-2.261671 0.02135,-2.916263 0.111144,-2.916263 0.06369,0 0.140778,0.04044 0.171325,0.08987 0.104645,0.169317 0.688759,0.272039 1.022661,0.179844 0.377559,-0.104249 0.757522,-0.520654 0.847056,-0.928295 C 31.398438,14.261007 30.16597,12.647943 28.976545,12.01827 28.53552,11.784794 28.380218,11.648605 28.338034,11.458347 27.897852,9.472935 27.057761,6.7549954 26.277522,4.7919892 25.997193,4.086709 25.793214,3.4685922 25.824237,3.4183972 c 0.03102,-0.050201 0.389697,-0.1965516 0.797054,-0.3252356 4.260533,-1.3459025 10.283381,-0.8625181 15.069705,1.2094697 2.482503,1.0746686 4.423782,2.4900469 5.517545,4.0228203 l 0.4083,0.5721801 v 2.1527643 c 0,6.128732 -1.049971,10.847079 -3.54438,15.92769 -3.597815,7.328035 -9.098183,11.746145 -13.768741,11.059592 z"
       id="path893"
       inkscape:connector-curvature="0" />
    <path
       style="fill:#ef2929;stroke-width:0.09332038"
       d="m 33.181511,37.579066 c 2.720966,-0.713388 5.731257,-3.159665 8.279436,-6.728186 1.78341,-2.497521 3.49749,-6.082313 4.506764,-9.42536 0.940879,-3.116498 1.391934,-6.406356 1.407412,-10.265243 l 0.0084,-2.0997094 -0.318619,-0.4666019 C 46.558921,7.8529663 45.372044,6.7505203 44.330436,6.0540118 40.522431,3.5076492 34.583766,2.1431531 29.792065,2.7136042 c -1.649403,0.1963615 -3.638922,0.6902917 -3.638922,0.9034219 0,0.051706 0.190183,0.574876 0.422628,1.162586 0.623546,1.5765597 1.28928,3.6553879 1.693442,5.2879529 l 0.35693,1.441741 0.509955,0.26735 c 0.69796,0.365915 1.565611,1.201774 1.986365,1.913581 0.290923,0.492165 0.349894,0.678958 0.349603,1.107412 -6.53e-4,0.987404 -0.531958,1.459663 -1.550177,1.37793 l -0.582571,-0.04676 0.05184,2.018441 c 0.03068,1.194889 0.0079,2.566369 -0.05574,3.361359 -0.05918,0.738607 -0.09072,1.359782 -0.07011,1.380388 0.05347,0.05347 2.714094,0.741303 3.326965,0.860091 0.282294,0.05472 1.202332,0.163787 2.04453,0.242384 2.456636,0.229258 3.286303,0.525506 4.308533,1.538443 0.682957,0.676749 1.128613,1.420101 1.579418,2.634453 0.227566,0.613004 0.286763,0.893238 0.240634,1.139131 -0.08466,0.451249 -0.436502,0.707491 -0.971458,0.707491 -0.389271,0 -0.457627,-0.03673 -0.803968,-0.43203 -1.909416,-2.179325 -2.020141,-2.230524 -5.137864,-2.37566 -2.09831,-0.09768 -3.886506,-0.360108 -4.662148,-0.684192 -0.197533,-0.08253 -0.375593,-0.13362 -0.395688,-0.113523 -0.0201,0.0201 -0.116702,0.367099 -0.214676,0.771118 -0.514175,2.120294 -1.934543,5.661256 -2.836372,7.071044 l -0.350543,0.547985 0.403577,0.418682 c 1.274649,1.322353 2.799012,2.207078 4.37671,2.540198 0.623947,0.131742 2.183619,0.04074 3.008563,-0.175551 z"
       id="path891"
       inkscape:connector-curvature="0" />
    <path
       style="fill:#000000;stroke-width:0.09332038"
       d="m 37.282194,17.445903 c -0.441808,-0.217801 -0.677223,-0.655148 -0.676805,-1.257339 4.66e-4,-0.656726 0.203158,-0.978251 0.954916,-1.514697 1.0446,-0.74541 1.865442,-1.003295 3.185672,-1.000841 1.448593,0.0027 2.639512,0.455964 3.573356,1.360047 0.604931,0.585654 0.722145,1.076916 0.419949,1.760081 -0.26902,0.608164 -0.649531,0.825278 -1.375092,0.78461 -0.486654,-0.02727 -0.624765,-0.07897 -0.979865,-0.366728 -0.526017,-0.426265 -0.873448,-0.599522 -1.366457,-0.681423 -0.535897,-0.08903 -1.29022,0.142378 -1.755702,0.538602 -0.203927,0.173583 -0.462503,0.364109 -0.574612,0.423387 -0.291217,0.153985 -1.050382,0.129299 -1.40536,-0.0457 z"
       id="path889"
       inkscape:connector-curvature="0" />
    <path
       style="fill:#ffffff;stroke-width:0.09332038"
       d="m 38.32691,17.319423 c 0.06608,0 0.331758,-0.16848 0.590382,-0.374399 0.59626,-0.474749 1.100881,-0.652125 1.855236,-0.652125 0.70006,0 1.106555,0.150502 1.753651,0.649283 0.668413,0.515211 1.162823,0.542776 1.674669,0.09337 0.598132,-0.525167 0.557061,-1.175621 -0.115333,-1.826577 -0.610938,-0.591458 -1.758647,-1.131311 -2.69539,-1.267843 -1.337463,-0.194936 -2.882214,0.263492 -3.896577,1.15637 -0.567914,0.499898 -0.741582,0.887981 -0.612272,1.368199 0.145529,0.540459 0.790658,1.019686 1.201193,0.89229 0.06836,-0.0212 0.178354,-0.03857 0.244441,-0.03856 z"
       id="path885"
       inkscape:connector-curvature="0" />
    <ellipse
       style="color:#000000;display:block;overflow:visible;visibility:visible;opacity:0.2;fill:url(#radialGradient3325-3);fill-opacity:1;fill-rule:nonzero;stroke:none;stroke-width:1.35666406;stroke-linecap:round;stroke-linejoin:miter;stroke-miterlimit:4;stroke-dasharray:none;stroke-dashoffset:17.85000038;stroke-opacity:1;marker:none;marker-start:none;marker-mid:none;marker-end:none"
       id="path3202-5"
       cx="29.706738"
       cy="43.18882"
       rx="14.695458"
       ry="2.0039253" />
  </g>
</svg>
