<?xml version="1.0" encoding="UTF-8" standalone="no"?>
<!-- Generator: Adobe Illustrator 19.2.0, SVG Export Plug-In . SVG Version: 6.00 Build 0)  -->

<svg
   xmlns:dc="http://purl.org/dc/elements/1.1/"
   xmlns:cc="http://creativecommons.org/ns#"
   xmlns:rdf="http://www.w3.org/1999/02/22-rdf-syntax-ns#"
   xmlns:svg="http://www.w3.org/2000/svg"
   xmlns="http://www.w3.org/2000/svg"
   xmlns:xlink="http://www.w3.org/1999/xlink"
   xmlns:sodipodi="http://sodipodi.sourceforge.net/DTD/sodipodi-0.dtd"
   xmlns:inkscape="http://www.inkscape.org/namespaces/inkscape"
   version="1.1"
   id="Layer_1"
   x="0px"
   y="0px"
   viewBox="0 0 40 40"
   style="enable-background:new 0 0 40 40;"
   xml:space="preserve"
   sodipodi:docname="Tentacle.svg"
   inkscape:version="0.92.3 (2405546, 2018-03-11)"><metadata
   id="metadata137"><rdf:RDF><cc:Work
       rdf:about=""><dc:format>image/svg+xml</dc:format><dc:type
         rdf:resource="http://purl.org/dc/dcmitype/StillImage" /></cc:Work></rdf:RDF></metadata><defs
   id="defs135"><radialGradient
     inkscape:collect="always"
     xlink:href="#linearGradient3204"
     id="radialGradient3325"
     gradientUnits="userSpaceOnUse"
     gradientTransform="matrix(1.6670608,0,0,0.19617258,6.3512494,31.124499)"
     cx="11"
     cy="22"
     fx="11"
     fy="22"
     r="8" /><linearGradient
     inkscape:collect="always"
     id="linearGradient3204"><stop
       style="stop-color:#000000;stop-opacity:1"
       offset="0"
       id="stop3206" /><stop
       style="stop-color:#000000;stop-opacity:0"
       offset="1"
       id="stop3208" /></linearGradient><radialGradient
     inkscape:collect="always"
     xlink:href="#linearGradient3204"
     id="radialGradient3325-3"
     gradientUnits="userSpaceOnUse"
     gradientTransform="matrix(1.0041481,0,0,0.19617258,-3.1131243,32.388358)"
     cx="11"
     cy="22"
     fx="11"
     fy="22"
     r="8" /></defs><sodipodi:namedview
   pagecolor="#ffffff"
   bordercolor="#666666"
   borderopacity="1"
   objecttolerance="10"
   gridtolerance="10"
   guidetolerance="10"
   inkscape:pageopacity="0"
   inkscape:pageshadow="2"
   inkscape:window-width="1853"
   inkscape:window-height="1016"
   id="namedview133"
   showgrid="false"
   inkscape:zoom="16.68772"
   inkscape:cx="18.202271"
   inkscape:cy="17.603028"
   inkscape:window-x="67"
   inkscape:window-y="27"
   inkscape:window-maximized="1"
   inkscape:current-layer="Layer_1" />
<g
   id="g6"
   transform="translate(0,-2)">
	<path
   style="fill:#dcd5f2"
   d="M 2.5,35.5 V 29 c 0,-8.267 5.189,-14.5 12.071,-14.5 2.459,0 4.852,0.955 6.132,1.902 2.702,1.997 5.649,3.098 8.297,3.098 3.238,0 5.5,-2.262 5.5,-5.5 0,-3.827 -1.851,-6.5 -4.5,-6.5 -1.963,0 -3.5,1.537 -3.5,3.5 0,1.655 1.026,3.5 2.5,3.5 0.726,0 1.315,-0.49 1.464,-1.165 0.099,-0.012 0.24,-0.021 0.43,-0.021 0.235,0 0.436,0.014 0.583,0.031 C 31.308,14.562 30.261,15.5 29,15.5 c -3.56,0 -4.5,-2.943 -4.5,-4.5 0,-3.131 1.721,-6.5 5.5,-6.5 4.224,0 8.5,3.263 8.5,9.5 0,1.177 -0.295,11.5 -10.5,11.5 -3.685,0 -5.136,-1.053 -6.816,-2.272 -0.292,-0.212 -0.589,-0.427 -0.901,-0.641 -0.997,-0.681 -2.435,-1.087 -3.845,-1.087 -2.814,0 -4.937,2.794 -4.937,6.5 v 7.5 z"
   id="path2"
   inkscape:connector-curvature="0" />
	<path
   style="fill:#8b75a1"
   d="m 30,5 c 3.975,0 8,3.091 8,9 0,1.126 -0.281,11 -10,11 -3.523,0 -4.847,-0.961 -6.523,-2.177 C 21.181,22.608 20.881,22.391 20.564,22.174 19.487,21.439 17.944,21 16.437,21 13.338,21 11,24.009 11,28 v 7 H 3 v -6 c 0,-7.981 4.975,-14 11.571,-14 2.344,0 4.619,0.906 5.834,1.804 C 23.193,18.865 26.245,20 29,20 c 3.533,0 6,-2.467 6,-6 0,-4.121 -2.056,-7 -5,-7 -2.243,0 -4,1.757 -4,4 0,1.892 1.232,4 3,4 -3.158,0 -4,-2.514 -4,-4 0,-2.89 1.565,-6 5,-6 m 0,-1 c -3.979,0 -6,3.479 -6,7 0,2.156 1.363,5 5,5 1.656,0 3,-1.359 3,-3 0,-0.113 -0.574,-0.186 -1.108,-0.186 C 30.431,12.814 30,12.869 30,13 c 0,0.578 -0.438,1 -1,1 -1.164,0 -2,-1.653 -2,-3 0,-1.678 1.275,-3 3,-3 2.333,0 4,2.381 4,6 0,3.054 -2.112,5 -5,5 -2.71,0 -5.531,-1.175 -8,-3 C 19.552,14.93 17.046,14 14.571,14 7.826,14 2,20.006 2,29 c 0,1.409 0,5.6 0,7 h 10 c 0,-1.612 0,-4.627 0,-8 0,-3.373 1.908,-6 4.437,-6 1.463,0 2.772,0.46 3.563,1 2.142,1.462 3.504,3 8,3 9.161,0 11,-8.203 11,-12 C 39,7.635 34.641,4 30,4 Z"
   id="path4"
   inkscape:connector-curvature="0" />
</g>
<circle
   style="fill:#8b75a1"
   cx="31"
   cy="11"
   r="1"
   id="circle8" />
<rect
   x="3"
   y="32.643002"
   style="fill:#dcd5f2"
   width="8"
   height="1.357"
   id="rect10" />
<g
   id="g16"
   transform="translate(0,-2)">
	<ellipse
   style="fill:#c2e8ff"
   cx="3"
   cy="28.5"
   rx="1.5"
   ry="2"
   id="ellipse12" />
	<path
   style="fill:#8b75a1"
   d="m 3,27 c 0.533,0 1,0.701 1,1.5 C 4,29.299 3.533,30 3,30 2.467,30 2,29.299 2,28.5 2,27.701 2.467,27 3,27 M 3,26 C 1.895,26 1,27.119 1,28.5 1,29.881 1.895,31 3,31 4.105,31 5,29.881 5,28.5 5,27.119 4.105,26 3,26 Z"
   id="path14"
   inkscape:connector-curvature="0" />
</g>
<g
   id="g22"
   transform="translate(0,-2)">
	<path
   style="fill:#c2e8ff"
   d="m 7.766,18.028 c -0.258,0 -0.627,-0.061 -0.916,-0.35 -0.269,-0.269 -0.389,-0.662 -0.339,-1.109 0.054,-0.488 0.3,-0.974 0.692,-1.365 0.447,-0.447 1.016,-0.703 1.56,-0.703 0.258,0 0.626,0.061 0.915,0.35 0.269,0.268 0.389,0.662 0.339,1.108 -0.054,0.488 -0.3,0.974 -0.692,1.366 -0.447,0.447 -1.015,0.703 -1.559,0.703 z"
   id="path18"
   inkscape:connector-curvature="0" />
	<path
   style="fill:#8b75a1"
   d="m 8.762,15 v 0 c 0.164,0 0.394,0.035 0.562,0.203 0.377,0.377 0.211,1.203 -0.354,1.768 -0.349,0.349 -0.799,0.557 -1.205,0.557 -0.164,0 -0.394,-0.035 -0.562,-0.203 C 6.826,16.948 6.992,16.122 7.557,15.557 7.905,15.208 8.356,15 8.762,15 m 0,-1 c -0.648,0 -1.354,0.291 -1.913,0.85 -0.976,0.976 -1.135,2.401 -0.354,3.182 0.334,0.334 0.786,0.496 1.269,0.496 0.648,0 1.354,-0.291 1.913,-0.85 0.976,-0.976 1.135,-2.401 0.354,-3.182 C 9.698,14.162 9.246,14 8.762,14 Z"
   id="path20"
   inkscape:connector-curvature="0" />
</g>
<g
   id="g28"
   transform="translate(0,-2)">
	<path
   style="fill:#c2e8ff"
   d="M 3.814,23.5 C 3.717,23.5 3.621,23.487 3.527,23.463 3.161,23.366 2.858,23.087 2.675,22.676 c -0.199,-0.45 -0.23,-0.992 -0.09,-1.529 0.242,-0.92 0.946,-1.589 1.674,-1.589 0.097,0 0.193,0.013 0.287,0.037 0.799,0.211 1.221,1.25 0.94,2.316 C 5.245,22.831 4.541,23.5 3.814,23.5 Z"
   id="path24"
   inkscape:connector-curvature="0" />
	<path
   style="fill:#8b75a1"
   d="m 4.259,20.058 v 0 c 0.054,0 0.108,0.007 0.16,0.021 0.293,0.077 0.452,0.35 0.522,0.506 0.151,0.341 0.174,0.778 0.063,1.199 C 4.803,22.545 4.242,23 3.814,23 3.76,23 3.706,22.993 3.654,22.979 3.361,22.902 3.202,22.629 3.132,22.473 2.981,22.132 2.958,21.695 3.069,21.274 c 0.209,-0.79 0.769,-1.216 1.19,-1.216 m 0,-1 c -0.937,0 -1.85,0.798 -2.156,1.962 C 1.751,22.355 2.332,23.666 3.4,23.947 3.537,23.983 3.676,24 3.814,24 4.751,24 5.664,23.202 5.97,22.038 6.322,20.703 5.741,19.392 4.673,19.111 4.536,19.075 4.397,19.058 4.259,19.058 Z"
   id="path26"
   inkscape:connector-curvature="0" />
</g>
<g
   id="g34"
   transform="translate(0,-2)">
	<path
   style="fill:#c2e8ff"
   d="M 9.814,26.5 C 9.717,26.5 9.621,26.487 9.527,26.463 9.161,26.366 8.858,26.087 8.675,25.676 c -0.199,-0.45 -0.23,-0.992 -0.09,-1.529 0.242,-0.92 0.946,-1.589 1.674,-1.589 0.097,0 0.193,0.013 0.287,0.037 0.799,0.211 1.221,1.25 0.94,2.316 -0.241,0.92 -0.945,1.589 -1.672,1.589 z"
   id="path30"
   inkscape:connector-curvature="0" />
	<path
   style="fill:#8b75a1"
   d="m 10.259,23.058 v 0 c 0.054,0 0.108,0.007 0.16,0.021 0.293,0.077 0.452,0.35 0.522,0.506 0.151,0.341 0.174,0.778 0.063,1.199 C 10.803,25.545 10.242,26 9.814,26 9.76,26 9.706,25.993 9.654,25.979 9.361,25.902 9.202,25.629 9.132,25.473 8.981,25.132 8.958,24.695 9.069,24.274 c 0.209,-0.79 0.769,-1.216 1.19,-1.216 m 0,-1 c -0.937,0 -1.85,0.798 -2.156,1.962 C 7.751,25.355 8.332,26.666 9.4,26.947 9.537,26.983 9.676,27 9.814,27 c 0.937,0 1.85,-0.798 2.156,-1.962 0.352,-1.335 -0.229,-2.646 -1.297,-2.927 -0.137,-0.036 -0.276,-0.053 -0.414,-0.053 z"
   id="path32"
   inkscape:connector-curvature="0" />
</g>
<g
   id="g40"
   transform="translate(0,-2)">
	<ellipse
   style="fill:#c2e8ff"
   cx="10"
   cy="31.5"
   rx="1.5"
   ry="2"
   id="ellipse36" />
	<path
   style="fill:#8b75a1"
   d="m 10,30 c 0.533,0 1,0.701 1,1.5 C 11,32.299 10.533,33 10,33 9.467,33 9,32.299 9,31.5 9,30.701 9.467,30 10,30 m 0,-1 c -1.105,0 -2,1.119 -2,2.5 0,1.381 0.895,2.5 2,2.5 1.105,0 2,-1.119 2,-2.5 C 12,30.119 11.105,29 10,29 Z"
   id="path38"
   inkscape:connector-curvature="0" />
</g>
<g
   id="g46"
   transform="translate(0,-2)">
	<ellipse
   style="fill:#c2e8ff"
   cx="14.5"
   cy="14"
   rx="2"
   ry="1.5"
   id="ellipse42" />
	<path
   style="fill:#8b75a1"
   d="m 14.5,13 c 0.799,0 1.5,0.467 1.5,1 0,0.533 -0.701,1 -1.5,1 -0.799,0 -1.5,-0.467 -1.5,-1 0,-0.533 0.701,-1 1.5,-1 m 0,-1 c -1.381,0 -2.5,0.895 -2.5,2 0,1.105 1.119,2 2.5,2 1.381,0 2.5,-0.895 2.5,-2 0,-1.105 -1.119,-2 -2.5,-2 z"
   id="path44"
   inkscape:connector-curvature="0" />
</g>
<g
   id="g52"
   transform="translate(0,-2)">
	<ellipse
   style="fill:#c2e8ff"
   cx="14.5"
   cy="20"
   rx="2"
   ry="1.5"
   id="ellipse48" />
	<path
   style="fill:#8b75a1"
   d="m 14.5,19 c 0.799,0 1.5,0.467 1.5,1 0,0.533 -0.701,1 -1.5,1 -0.799,0 -1.5,-0.467 -1.5,-1 0,-0.533 0.701,-1 1.5,-1 m 0,-1 c -1.381,0 -2.5,0.895 -2.5,2 0,1.105 1.119,2 2.5,2 1.381,0 2.5,-0.895 2.5,-2 0,-1.105 -1.119,-2 -2.5,-2 z"
   id="path50"
   inkscape:connector-curvature="0" />
</g>
<g
   id="g58"
   transform="translate(0,-2)">
	<path
   style="fill:#c2e8ff"
   d="m 27,25.167 c -0.884,0 -1.5,-0.439 -1.5,-0.833 0,-0.395 0.616,-0.834 1.5,-0.834 0.884,0 1.5,0.439 1.5,0.834 0,0.393 -0.617,0.833 -1.5,0.833 z"
   id="path54"
   inkscape:connector-curvature="0" />
	<path
   style="fill:#8b75a1"
   d="m 27,24 c 0.554,0 0.904,0.219 0.988,0.333 -0.085,0.115 -0.434,0.333 -0.988,0.333 -0.554,0 -0.904,-0.219 -0.988,-0.333 C 26.096,24.219 26.446,24 27,24 m 0,-1 c -1.105,0 -2,0.597 -2,1.333 0,0.736 0.895,1.333 2,1.333 1.105,0 2,-0.597 2,-1.333 C 29,23.597 28.105,23 27,23 Z"
   id="path56"
   inkscape:connector-curvature="0" />
</g>
<g
   id="g64"
   transform="translate(0,-2)">
	<path
   style="fill:#c2e8ff"
   d="m 26.489,20.5 c -0.248,0 -0.515,-0.046 -0.771,-0.133 -0.87,-0.296 -1.328,-0.938 -1.195,-1.329 0.093,-0.273 0.489,-0.457 0.986,-0.457 0.249,0 0.516,0.046 0.771,0.133 0.87,0.296 1.328,0.938 1.195,1.328 -0.091,0.274 -0.488,0.458 -0.986,0.458 z"
   id="path60"
   inkscape:connector-curvature="0" />
	<path
   style="fill:#8b75a1"
   d="m 25.509,19.081 v 0 c 0.195,0 0.406,0.037 0.611,0.106 0.606,0.206 0.879,0.597 0.891,0.679 C 26.99,19.893 26.832,20 26.491,20 c -0.195,0 -0.406,-0.037 -0.611,-0.106 -0.606,-0.206 -0.879,-0.597 -0.891,-0.679 0.021,-0.027 0.179,-0.134 0.52,-0.134 m 0,-1 c -0.705,0 -1.288,0.291 -1.459,0.797 -0.244,0.718 0.431,1.597 1.508,1.963 0.318,0.108 0.636,0.16 0.933,0.16 0.705,0 1.288,-0.291 1.459,-0.797 0.244,-0.718 -0.431,-1.597 -1.508,-1.963 -0.319,-0.109 -0.636,-0.16 -0.933,-0.16 z"
   id="path62"
   inkscape:connector-curvature="0" />
</g>
<g
   id="g70"
   transform="translate(0,-2)">
	<path
   style="fill:#c2e8ff"
   d="m 21.726,17.984 c -0.403,0 -0.869,-0.161 -1.277,-0.442 -0.827,-0.57 -1.114,-1.39 -0.854,-1.767 0.164,-0.239 0.496,-0.274 0.68,-0.274 0.403,0 0.868,0.161 1.275,0.442 0.829,0.57 1.116,1.389 0.855,1.768 -0.164,0.238 -0.496,0.273 -0.679,0.273 z"
   id="path66"
   inkscape:connector-curvature="0" />
	<path
   style="fill:#8b75a1"
   d="m 20.275,16 c 0.304,0 0.666,0.129 0.993,0.354 0.619,0.426 0.782,0.964 0.727,1.072 -0.01,0.011 -0.09,0.058 -0.268,0.058 -0.304,0 -0.666,-0.129 -0.993,-0.354 C 20.115,16.704 19.952,16.166 20.007,16.058 20.017,16.046 20.097,16 20.275,16 m -10e-4,-1 c -0.467,0 -0.866,0.163 -1.092,0.49 -0.461,0.669 -0.021,1.772 0.983,2.463 0.513,0.353 1.073,0.53 1.56,0.53 0.467,0 0.866,-0.163 1.092,-0.49 0.461,-0.669 0.021,-1.772 -0.983,-2.463 C 21.322,15.177 20.762,15 20.274,15 Z"
   id="path68"
   inkscape:connector-curvature="0" />
</g>
<g
   id="g76"
   transform="translate(0,-2)">
	<path
   style="fill:#c2e8ff"
   d="m 21.726,22.984 c -0.403,0 -0.869,-0.161 -1.277,-0.442 -0.827,-0.57 -1.114,-1.39 -0.854,-1.767 0.164,-0.239 0.496,-0.274 0.68,-0.274 0.403,0 0.868,0.161 1.275,0.442 0.829,0.57 1.116,1.389 0.855,1.768 -0.164,0.238 -0.496,0.273 -0.679,0.273 z"
   id="path72"
   inkscape:connector-curvature="0" />
	<path
   style="fill:#8b75a1"
   d="m 20.275,21 c 0.304,0 0.666,0.129 0.993,0.354 0.619,0.426 0.782,0.964 0.727,1.072 -0.01,0.011 -0.09,0.058 -0.268,0.058 -0.304,0 -0.666,-0.129 -0.993,-0.354 C 20.115,21.704 19.952,21.166 20.007,21.058 20.017,21.046 20.097,21 20.275,21 m -10e-4,-1 c -0.467,0 -0.866,0.163 -1.092,0.49 -0.461,0.669 -0.021,1.772 0.983,2.463 0.513,0.353 1.073,0.53 1.56,0.53 0.467,0 0.866,-0.163 1.092,-0.49 0.461,-0.669 0.021,-1.772 -0.983,-2.463 C 21.322,20.177 20.762,20 20.274,20 Z"
   id="path74"
   inkscape:connector-curvature="0" />
</g>
<g
   id="g82"
   transform="translate(0,-2)">
	<path
   style="fill:#c2e8ff"
   d="m 31.938,24.5 c -0.102,0 -0.285,-0.018 -0.377,-0.137 -0.179,-0.233 0.022,-0.802 0.56,-1.214 0.297,-0.229 0.648,-0.364 0.94,-0.364 0.102,0 0.285,0.018 0.377,0.137 0.179,0.233 -0.022,0.802 -0.56,1.214 -0.296,0.228 -0.648,0.364 -0.94,0.364 z"
   id="path78"
   inkscape:connector-curvature="0" />
	<path
   style="fill:#8b75a1"
   d="m 32.952,23.296 c -0.057,0.121 -0.172,0.286 -0.378,0.444 -0.195,0.15 -0.384,0.224 -0.526,0.25 0.057,-0.121 0.172,-0.286 0.378,-0.444 0.194,-0.15 0.384,-0.224 0.526,-0.25 m 0.109,-1.011 c -0.389,0 -0.841,0.158 -1.244,0.467 -0.737,0.566 -1.029,1.423 -0.652,1.915 0.171,0.224 0.451,0.333 0.774,0.333 0.389,0 0.841,-0.158 1.244,-0.467 0.737,-0.566 1.029,-1.423 0.652,-1.915 -0.171,-0.224 -0.451,-0.333 -0.774,-0.333 z"
   id="path80"
   inkscape:connector-curvature="0" />
</g>
<g
   id="g88"
   transform="translate(0,-2)">
	<path
   style="fill:#c2e8ff"
   d="m 30.084,20.5 c -0.284,0 -0.512,-0.093 -0.567,-0.23 -0.055,-0.137 0.05,-0.315 0.097,-0.386 0.144,-0.209 0.393,-0.396 0.685,-0.515 0.206,-0.084 0.42,-0.128 0.618,-0.128 0.284,0 0.513,0.093 0.568,0.231 0.056,0.137 -0.05,0.314 -0.097,0.385 -0.144,0.209 -0.393,0.396 -0.685,0.515 -0.206,0.084 -0.42,0.128 -0.619,0.128 z"
   id="path84"
   inkscape:connector-curvature="0" />
	<path
   style="fill:#8b75a1"
   d="m 30.801,19.749 c -0.073,0.056 -0.168,0.113 -0.286,0.16 -0.123,0.05 -0.23,0.073 -0.317,0.084 0.073,-0.056 0.168,-0.113 0.286,-0.16 0.123,-0.05 0.231,-0.074 0.317,-0.084 m 0.115,-1.007 c -0.254,0 -0.532,0.053 -0.806,0.164 -0.8,0.323 -1.273,1.018 -1.058,1.551 0.142,0.349 0.545,0.543 1.032,0.543 0.254,0 0.532,-0.053 0.806,-0.164 0.8,-0.323 1.273,-1.018 1.058,-1.551 -0.142,-0.35 -0.545,-0.543 -1.032,-0.543 z"
   id="path86"
   inkscape:connector-curvature="0" />
</g>
<g
   id="g94"
   transform="translate(0,-2)">
	<path
   style="fill:#c2e8ff"
   d="m 33.637,18.5 c -0.031,0 -0.056,-0.006 -0.072,-0.018 -0.036,-0.024 -0.052,-0.091 -0.057,-0.118 -0.027,-0.147 0.011,-0.421 0.208,-0.707 0.205,-0.298 0.481,-0.454 0.647,-0.454 0.113,0.046 0.139,0.134 0.137,0.242 -0.003,0.188 -0.082,0.406 -0.216,0.602 -0.205,0.298 -0.48,0.453 -0.647,0.453 z"
   id="path90"
   inkscape:connector-curvature="0" />
	<path
   style="fill:#8b75a1"
   d="m 34.363,16.704 c -0.353,0 -0.769,0.248 -1.059,0.669 -0.397,0.576 -0.407,1.258 -0.023,1.522 0.104,0.071 0.225,0.105 0.356,0.105 0.353,0 0.769,-0.248 1.059,-0.669 0.397,-0.576 0.407,-1.258 0.023,-1.522 -0.104,-0.072 -0.225,-0.105 -0.356,-0.105 z"
   id="path92"
   inkscape:connector-curvature="0" />
</g>
<g
   id="g100"
   transform="translate(0,-2)">
	<path
   style="fill:#c2e8ff"
   d="m 35.761,21.327 c -0.068,-0.018 -0.119,-0.084 -0.149,-0.138 -0.098,-0.166 -0.164,-0.488 -0.058,-0.891 0.138,-0.521 0.463,-0.799 0.646,-0.799 0.108,0.022 0.159,0.089 0.189,0.143 0.098,0.166 0.164,0.488 0.058,0.891 -0.138,0.521 -0.463,0.799 -0.646,0.799 -0.014,0 -0.028,-0.001 -0.04,-0.005 z"
   id="path96"
   inkscape:connector-curvature="0" />
	<path
   style="fill:#8b75a1"
   d="m 36.2,19 c -0.467,0 -0.949,0.484 -1.13,1.171 -0.203,0.77 0.049,1.504 0.562,1.64 0.055,0.015 0.111,0.022 0.167,0.022 0.467,0 0.949,-0.484 1.13,-1.171 0.203,-0.77 -0.049,-1.504 -0.562,-1.64 C 36.312,19.007 36.256,19 36.2,19 Z"
   id="path98"
   inkscape:connector-curvature="0" />
</g>
<g
   id="g106"
   transform="translate(0,-2)">
	
		<ellipse
   transform="matrix(0.9987,-0.0511,0.0511,0.9987,-0.6563,1.8324)"
   style="fill:#c2e8ff"
   cx="35.5"
   cy="13.748"
   rx="0.49900001"
   ry="0.74900001"
   id="ellipse102" />
	<path
   style="fill:#8b75a1"
   d="m 35.479,13 c -0.006,0 -0.012,0 -0.017,0 -0.275,0.014 -0.481,0.36 -0.46,0.773 0.021,0.404 0.251,0.723 0.519,0.723 0.006,0 0.012,0 0.017,0 0.275,-0.014 0.481,-0.36 0.46,-0.773 C 35.978,13.318 35.747,13 35.479,13 Z"
   id="path104"
   inkscape:connector-curvature="0" />
</g>
<g
   id="g112"
   transform="translate(0,-2)">
	
		<ellipse
   transform="matrix(0.9987,-0.0511,0.0511,0.9987,-0.7305,1.9365)"
   style="fill:#c2e8ff"
   cx="37.5"
   cy="15.252"
   rx="0.49900001"
   ry="0.74900001"
   id="ellipse108" />
	<path
   style="fill:#8b75a1"
   d="m 37.479,14.504 c -0.006,0 -0.012,0 -0.017,0 -0.275,0.014 -0.481,0.36 -0.46,0.773 0.02,0.405 0.251,0.723 0.519,0.723 0.006,0 0.012,0 0.017,0 0.275,-0.014 0.481,-0.36 0.46,-0.773 -0.02,-0.405 -0.251,-0.723 -0.519,-0.723 z"
   id="path110"
   inkscape:connector-curvature="0" />
</g>
<g
   id="g118"
   transform="translate(0,-2)">
	
		<ellipse
   transform="matrix(0.8894,-0.4571,0.4571,0.8894,-1.0515,18.3969)"
   style="fill:#c2e8ff"
   cx="37.5"
   cy="11.372"
   rx="0.44499999"
   ry="0.66799998"
   id="ellipse114" />
	<path
   style="fill:#8b75a1"
   d="m 37.34,10.744 c -0.051,0 -0.1,0.011 -0.145,0.034 -0.219,0.112 -0.259,0.469 -0.091,0.797 0.134,0.261 0.36,0.425 0.556,0.425 0.051,0 0.1,-0.011 0.145,-0.034 0.219,-0.112 0.259,-0.469 0.091,-0.797 -0.134,-0.261 -0.36,-0.425 -0.556,-0.425 z"
   id="path116"
   inkscape:connector-curvature="0" />
</g>
<g
   id="g124"
   transform="translate(0,-2)">
	
		<ellipse
   transform="matrix(0.8894,-0.4571,0.4571,0.8894,-0.5862,16.8329)"
   style="fill:#c2e8ff"
   cx="34.5"
   cy="9.6280003"
   rx="0.44499999"
   ry="0.66799998"
   id="ellipse120" />
	<path
   style="fill:#8b75a1"
   d="m 34.34,9 c -0.051,0 -0.1,0.011 -0.145,0.034 -0.219,0.112 -0.259,0.469 -0.091,0.797 0.134,0.261 0.36,0.425 0.556,0.425 0.051,0 0.1,-0.011 0.145,-0.034 C 35.024,10.11 35.064,9.753 34.896,9.425 34.762,9.164 34.536,9 34.34,9 Z"
   id="path122"
   inkscape:connector-curvature="0" />
</g>
<g
   id="g130"
   transform="translate(0,-2)">
	
		<ellipse
   transform="matrix(0.7932,-0.609,0.609,0.7932,2.77,23.1435)"
   style="fill:#c2e8ff"
   cx="35.458"
   cy="7.494"
   rx="0.37900001"
   ry="0.56800002"
   id="ellipse126" />
	<path
   style="fill:#8b75a1"
   d="m 35.287,6.987 c -0.065,0 -0.125,0.018 -0.175,0.056 C 34.946,7.17 34.966,7.476 35.158,7.724 35.292,7.899 35.475,8 35.63,8 35.695,8 35.755,7.982 35.805,7.944 35.971,7.817 35.951,7.511 35.759,7.263 35.624,7.088 35.441,6.987 35.287,6.987 Z"
   id="path128"
   inkscape:connector-curvature="0" />
</g>
<g
   id="g1012"
   transform="translate(0,-1.6404542)"><polygon
     style="fill:#ffd248"
     points="10,245.001 10,155.001 10,75.001 10,10.001 110,10.001 110,480.001 10,480.001 10,415.001 10,335.001 "
     id="polygon4"
     transform="matrix(0,0.04779244,-0.04779244,0,37.157821,28.25965)" /><path
     style="stroke-width:0.0000564;stroke-miterlimit:4;stroke-dasharray:none"
     d="m 37.157775,33.516816 v -4.77924 c 0,-0.263957 -0.213968,-0.477926 -0.477925,-0.477926 H 14.217404 c -0.263957,0 -0.477926,0.213969 -0.477926,0.477926 v 4.77924 c 0,0.263957 0.213969,0.477926 0.477926,0.477926 H 36.67985 c 0.263957,0 0.477925,-0.213969 0.477925,-0.477926 z m -22.462446,-0.47792 v -3.8234 h 2.15066 v 1.911703 h 0.955846 v -1.911703 h 2.867549 v 1.911703 h 0.955846 v -1.911703 h 3.345474 v 1.911703 h 0.955846 v -1.911703 h 3.345474 v 1.911703 h 0.955846 v -1.911703 h 2.867548 v 1.911703 h 0.955846 v -1.911703 h 2.15066 v 3.8234 z"
     id="path12"
     inkscape:connector-curvature="0" /></g><ellipse
   ry="1.5693804"
   rx="13.336485"
   cy="35.440304"
   cx="24.688921"
   id="path3202"
   style="color:#000000;display:block;overflow:visible;visibility:visible;opacity:0.2;fill:url(#radialGradient3325);fill-opacity:1;fill-rule:nonzero;stroke:none;stroke-width:1.14373338;stroke-linecap:round;stroke-linejoin:miter;stroke-miterlimit:4;stroke-dasharray:none;stroke-dashoffset:17.85000038;stroke-opacity:1;marker:none;marker-start:none;marker-mid:none;marker-end:none" /><ellipse
   ry="1.5693804"
   rx="8.0331841"
   cy="36.704163"
   cx="7.9325047"
   id="path3202-5"
   style="color:#000000;display:block;overflow:visible;visibility:visible;opacity:0.2;fill:url(#radialGradient3325-3);fill-opacity:1;fill-rule:nonzero;stroke:none;stroke-width:0.88766271;stroke-linecap:round;stroke-linejoin:miter;stroke-miterlimit:4;stroke-dasharray:none;stroke-dashoffset:17.85000038;stroke-opacity:1;marker:none;marker-start:none;marker-mid:none;marker-end:none" /></svg>