<?xml version="1.0" encoding="UTF-8" standalone="no"?>
<!-- Generator: Adobe Illustrator 19.2.0, SVG Export Plug-In . SVG Version: 6.00 Build 0)  -->

<svg
   xmlns:dc="http://purl.org/dc/elements/1.1/"
   xmlns:cc="http://creativecommons.org/ns#"
   xmlns:rdf="http://www.w3.org/1999/02/22-rdf-syntax-ns#"
   xmlns:svg="http://www.w3.org/2000/svg"
   xmlns="http://www.w3.org/2000/svg"
   xmlns:sodipodi="http://sodipodi.sourceforge.net/DTD/sodipodi-0.dtd"
   xmlns:inkscape="http://www.inkscape.org/namespaces/inkscape"
   version="1.1"
   id="Layer_1"
   x="0px"
   y="0px"
   viewBox="0 0 40 40"
   style="enable-background:new 0 0 40 40;"
   xml:space="preserve"
   sodipodi:docname="Whale-Tail.svg"
   inkscape:version="0.92.3 (2405546, 2018-03-11)"><metadata
   id="metadata19"><rdf:RDF><cc:Work
       rdf:about=""><dc:format>image/svg+xml</dc:format><dc:type
         rdf:resource="http://purl.org/dc/dcmitype/StillImage" /></cc:Work></rdf:RDF></metadata><defs
   id="defs17" /><sodipodi:namedview
   pagecolor="#ffffff"
   bordercolor="#666666"
   borderopacity="1"
   objecttolerance="10"
   gridtolerance="10"
   guidetolerance="10"
   inkscape:pageopacity="0"
   inkscape:pageshadow="2"
   inkscape:window-width="1853"
   inkscape:window-height="1016"
   id="namedview15"
   showgrid="false"
   inkscape:zoom="5.9"
   inkscape:cx="20"
   inkscape:cy="20"
   inkscape:window-x="67"
   inkscape:window-y="27"
   inkscape:window-maximized="1"
   inkscape:current-layer="Layer_1" />
<g
   id="g6"
   transform="translate(2)">
	<path
   style="fill:#b6c9d6"
   d="m 13.616,30.5 c 0.54,-2.57 2.572,-12.427 2.882,-16.462 0.021,-0.255 -0.156,-0.483 -0.407,-0.529 C 9.05,12.206 4.5,8.222 4.5,3.357 4.5,3.011 4.951,2.5 5.357,2.5 5.974,2.5 6.873,2.892 7.824,3.306 9.108,3.865 10.563,4.5 12,4.5 h 4 c 2.892,0 3.5,2.089 3.5,2.5 0,0.276 0.224,0.5 0.5,0.5 0.276,0 0.5,-0.224 0.5,-0.5 0,-0.411 0.608,-2.5 3.5,-2.5 h 4 c 1.437,0 2.893,-0.635 4.177,-1.194 0.951,-0.414 1.85,-0.806 2.466,-0.806 0.816,0 0.857,0.714 0.857,0.857 0,4.864 -4.55,8.849 -11.591,10.151 -0.251,0.046 -0.428,0.274 -0.407,0.529 0.31,4.035 2.342,13.892 2.882,16.462 H 13.616 Z"
   id="path2"
   inkscape:connector-curvature="0" />
	<path
   style="fill:#788b9c"
   d="M 34.643,3 C 34.768,3 35,3 35,3.357 c 0,4.612 -4.389,8.404 -11.182,9.66 -0.503,0.093 -0.854,0.55 -0.815,1.06 0.291,3.796 2.089,12.669 2.765,15.923 H 20 14.232 c 0.677,-3.255 2.474,-12.128 2.765,-15.923 0.039,-0.51 -0.313,-0.967 -0.815,-1.06 C 9.389,11.761 5,7.969 4.999,3.369 5.019,3.24 5.242,3.012 5.358,3 5.87,3 6.762,3.389 7.624,3.764 8.953,4.344 10.459,5 12,5 h 4 c 2.478,0 3,1.671 3,2 0,0.552 0.448,1 1,1 0.552,0 1,-0.448 1,-1 0,-0.329 0.522,-2 3,-2 h 4 C 29.541,5 31.047,4.344 32.376,3.764 33.239,3.389 34.13,3 34.643,3 m 0,-1 C 33.037,2 30.418,4 28,4 25.144,4 27.804,4 24,4 20.918,4 20,6.194 20,7 20,6.194 19.082,4 16,4 12.196,4 14.856,4 12,4 9.582,4 6.964,2 5.358,2 4.679,2 4,2.738 4,3.357 4,8.719 9.003,12.706 16,14 15.648,18.58 13,31 13,31 h 7 7 C 27,31 24.352,18.58 24,14 30.997,12.706 36,8.719 36,3.357 36,2.738 35.618,2 34.643,2 Z"
   id="path4"
   inkscape:connector-curvature="0" />
</g>
<path
   style="fill:#8BB7F0;"
   d="M1,39h38V28.877C37.692,28.614,36.148,28,35,28c-1.458,0-3.563,1-5,1c-1.438,0-3.542-1-5-1  s-3.563,1-5,1c-1.438,0-3.542-1-5-1s-3.563,1-5,1c-1.438,0-3.542-1-5-1c-1.148,0-2.692,0.614-4,0.877V39z"
   id="path8" />
<g
   id="g12">
	<path
   style="fill:#4E7AB5;"
   d="M35,28c-1.458,0-3.563,1-5,1c-1.438,0-3.542-1-5-1s-3.563,1-5,1c-1.438,0-3.542-1-5-1s-3.563,1-5,1   c-1.438,0-3.542-1-5-1c-1.148,0-2.692,0.614-4,0.877V29.9c0.574-0.103,1.17-0.271,1.754-0.435C3.566,29.237,4.406,29,5,29   s1.434,0.237,2.246,0.465C8.18,29.728,9.146,30,10,30s1.82-0.272,2.754-0.535C13.566,29.237,14.406,29,15,29   s1.434,0.237,2.246,0.465C18.18,29.728,19.146,30,20,30s1.82-0.272,2.754-0.535C23.566,29.237,24.406,29,25,29   s1.434,0.237,2.246,0.465C28.18,29.728,29.146,30,30,30s1.82-0.272,2.754-0.535C33.566,29.237,34.406,29,35,29   s1.434,0.237,2.246,0.465C37.83,29.63,38.426,29.797,39,29.9v-1.023C37.692,28.614,36.148,28,35,28z"
   id="path10" />
</g>
<g
   id="g1012"
   transform="matrix(0,1.101326,-1.101326,0,39.825983,-2.6035039)"><polygon
     style="fill:#ffd248"
     points="10,245.001 10,155.001 10,75.001 10,10.001 110,10.001 110,480.001 10,480.001 10,415.001 10,335.001 "
     id="polygon4"
     transform="matrix(0,0.04779244,-0.04779244,0,37.157821,28.25965)" /><path
     style="stroke-width:0.0000564;stroke-miterlimit:4;stroke-dasharray:none"
     d="m 37.157775,33.516816 v -4.77924 c 0,-0.263957 -0.213968,-0.477926 -0.477925,-0.477926 H 14.217404 c -0.263957,0 -0.477926,0.213969 -0.477926,0.477926 v 4.77924 c 0,0.263957 0.213969,0.477926 0.477926,0.477926 H 36.67985 c 0.263957,0 0.477925,-0.213969 0.477925,-0.477926 z m -22.462446,-0.47792 v -3.8234 h 2.15066 v 1.911703 h 0.955846 v -1.911703 h 2.867549 v 1.911703 h 0.955846 v -1.911703 h 3.345474 v 1.911703 h 0.955846 v -1.911703 h 3.345474 v 1.911703 h 0.955846 v -1.911703 h 2.867548 v 1.911703 h 0.955846 v -1.911703 h 2.15066 v 3.8234 z"
     id="path12"
     inkscape:connector-curvature="0" /></g></svg>