<?xml version="1.0" encoding="UTF-8" standalone="no"?>
<!-- Generator: Adobe Illustrator 19.2.1, SVG Export Plug-In . SVG Version: 6.00 Build 0)  -->

<svg
   xmlns:dc="http://purl.org/dc/elements/1.1/"
   xmlns:cc="http://creativecommons.org/ns#"
   xmlns:rdf="http://www.w3.org/1999/02/22-rdf-syntax-ns#"
   xmlns:svg="http://www.w3.org/2000/svg"
   xmlns="http://www.w3.org/2000/svg"
   xmlns:sodipodi="http://sodipodi.sourceforge.net/DTD/sodipodi-0.dtd"
   xmlns:inkscape="http://www.inkscape.org/namespaces/inkscape"
   version="1.1"
   id="Layer_1"
   x="0px"
   y="0px"
   viewBox="0 0 50 40.3"
   style="enable-background:new 0 0 50 40.3;"
   xml:space="preserve"
   sodipodi:docname="download.svg"
   inkscape:version="0.92.4 (5da689c313, 2019-01-14)"><metadata
   id="metadata15"><rdf:RDF><cc:Work
       rdf:about=""><dc:format>image/svg+xml</dc:format><dc:type
         rdf:resource="http://purl.org/dc/dcmitype/StillImage" /><dc:title></dc:title></cc:Work></rdf:RDF></metadata><defs
   id="defs13"><inkscape:path-effect
     is_visible="true"
     id="path-effect29672-0"
     effect="spiro" /><inkscape:path-effect
     is_visible="true"
     id="path-effect29678-1"
     effect="spiro" /><inkscape:path-effect
     is_visible="true"
     id="path-effect29678-4-6"
     effect="spiro" /><inkscape:path-effect
     is_visible="true"
     id="path-effect28714-5"
     effect="spiro" /><inkscape:path-effect
     is_visible="true"
     id="path-effect29721-2"
     effect="spiro" /><inkscape:path-effect
     is_visible="true"
     id="path-effect28463-8-0"
     effect="spiro" /><inkscape:path-effect
     is_visible="true"
     id="path-effect28463-0-7"
     effect="spiro" /><linearGradient
     id="linearGradient28799-5-5"><stop
       id="stop28801-1-9"
       offset="0"
       style="stop-color:#fefefc;stop-opacity:1;" /><stop
       style="stop-color:#fefefc;stop-opacity:1"
       offset="0.75733864"
       id="stop28807-2-6" /><stop
       id="stop28803-6-3"
       offset="1"
       style="stop-color:#d4d4d4;stop-opacity:1" /></linearGradient><inkscape:path-effect
     is_visible="true"
     id="path-effect28797-8-1"
     effect="spiro" /><inkscape:path-effect
     is_visible="true"
     id="path-effect28797-81"
     effect="spiro" /><inkscape:path-effect
     is_visible="true"
     id="path-effect28273-4-2"
     effect="spiro" /><linearGradient
     id="linearGradient28853-5"><stop
       id="stop28855-3"
       offset="0"
       style="stop-color:#020204;stop-opacity:1" /><stop
       style="stop-color:#020204;stop-opacity:1"
       offset="0.73448181"
       id="stop28865-0" /><stop
       id="stop28857-9"
       offset="1"
       style="stop-color:#5c5c5c;stop-opacity:1;" /></linearGradient><inkscape:path-effect
     is_visible="true"
     id="path-effect28851-0"
     effect="spiro" /><inkscape:path-effect
     is_visible="true"
     id="path-effect28881-6"
     effect="spiro" /><linearGradient
     id="linearGradient28935-8"><stop
       id="stop28937-7"
       offset="0"
       style="stop-color:#949494;stop-opacity:0.39215687;" /><stop
       style="stop-color:#949494;stop-opacity:1;"
       offset="0.5"
       id="stop28943-3" /><stop
       id="stop28939-8"
       offset="1"
       style="stop-color:#949494;stop-opacity:0.39215687;" /></linearGradient><linearGradient
     id="linearGradient28976-3"><stop
       id="stop28978-7"
       offset="0"
       style="stop-color:#747474;stop-opacity:1" /><stop
       style="stop-color:#8c8c8c;stop-opacity:1;"
       offset="0.125"
       id="stop29259-5" /><stop
       style="stop-color:#a4a4a4;stop-opacity:1;"
       offset="0.25"
       id="stop29257-0" /><stop
       style="stop-color:#d4d4d4;stop-opacity:1"
       offset="0.5"
       id="stop28984-4" /><stop
       id="stop28986-0"
       offset="0.61919296"
       style="stop-color:#d4d4d4;stop-opacity:1" /><stop
       id="stop28980-2"
       offset="1"
       style="stop-color:#7c7c7c;stop-opacity:1" /></linearGradient><inkscape:path-effect
     is_visible="true"
     id="path-effect28974-8"
     effect="spiro" /><clipPath
     id="clipPath29028-5"
     clipPathUnits="userSpaceOnUse"><path
       sodipodi:nodetypes="aaaaaaaa"
       inkscape:connector-curvature="0"
       inkscape:original-d="m 85.75,122.36218 c -2.54738,2.12715 -5.20812,4.59907 -6.25,7.75 -1.30914,3.95917 -1.63336,8.91703 0.5,12.5 3.91901,6.58194 12.38353,13.85135 19.75,11.75 4.87452,-1.3905 6.10748,-8.51023 7,-13.5 0.59149,-3.30679 0.59578,-7.19325 -1.25,-10 -3.61233,-5.49303 -10.4265,-9.89357 -17,-10 -1.04403,-0.0169 -1.94852,0.83074 -2.75,1.5 z"
       id="path29030-7"
       d="m 85.75,122.36218 c -2.780425,1.91023 -5.110569,4.57487 -6.25,7.75 -1.436029,4.00163 -0.885838,8.48071 0.5,12.5 1.419488,4.11688 3.793788,8.04098 7.37932,10.51234 1.792766,1.23567 3.868091,2.08301 6.030402,2.33859 2.162311,0.25558 4.409274,-0.0949 6.340278,-1.10093 2.35312,-1.22596 4.14782,-3.37278 5.26217,-5.78076 1.11436,-2.40798 1.5888,-5.0701 1.73783,-7.71924 0.18989,-3.37546 -0.14047,-6.80646 -1.25,-10 -1.20527,-3.46909 -3.39005,-6.67055 -6.472754,-8.6666 -1.541351,-0.99803 -3.291947,-1.68356 -5.110883,-1.93515 -1.818936,-0.25158 -3.704766,-0.0633 -5.416363,0.60175 -0.975471,0.37901 -1.887438,0.9074 -2.75,1.5"
       style="fill:url(#radialGradient29032);fill-opacity:1;stroke:none" /></clipPath><linearGradient
     id="linearGradient29336-6"><stop
       id="stop29338-1"
       offset="0"
       style="stop-color:#646464;stop-opacity:0" /><stop
       style="stop-color:#646464;stop-opacity:0.5825243"
       offset="0.30628255"
       id="stop29344-7" /><stop
       id="stop29354-5"
       offset="0.47000006"
       style="stop-color:#646464;stop-opacity:1" /><stop
       style="stop-color:#646464;stop-opacity:0.25728154"
       offset="0.72834015"
       id="stop29356-3" /><stop
       id="stop29340-6"
       offset="1"
       style="stop-color:#646464;stop-opacity:0;" /></linearGradient><inkscape:path-effect
     is_visible="true"
     id="path-effect29455-3"
     effect="spiro" /><linearGradient
     id="linearGradient29477-3"><stop
       id="stop29479-5"
       offset="0"
       style="stop-color:#757574;stop-opacity:0" /><stop
       style="stop-color:#757574;stop-opacity:1;"
       offset="0.26291031"
       id="stop29487-5" /><stop
       style="stop-color:#757574;stop-opacity:1;"
       offset="0.5"
       id="stop29485-0" /><stop
       id="stop29481-3"
       offset="1"
       style="stop-color:#757574;stop-opacity:0" /></linearGradient><linearGradient
     id="linearGradient28469-0"><stop
       style="stop-color:#d2940a;stop-opacity:1"
       offset="0"
       id="stop28479-4" /><stop
       style="stop-color:#d89c08;stop-opacity:1"
       offset="0.75143719"
       id="stop28477-2" /><stop
       id="stop28485-7"
       offset="0.86579126"
       style="stop-color:#b67e07;stop-opacity:1;" /><stop
       id="stop28473-1"
       offset="1"
       style="stop-color:#946106;stop-opacity:1" /></linearGradient><inkscape:path-effect
     is_visible="true"
     id="path-effect28463-4"
     effect="spiro" /><inkscape:path-effect
     is_visible="true"
     id="path-effect28489-4"
     effect="spiro" /><inkscape:path-effect
     is_visible="true"
     id="path-effect28273-54-7"
     effect="spiro" /><linearGradient
     id="linearGradient28275-8"><stop
       id="stop28277-1"
       offset="0"
       style="stop-color:#ad780a;stop-opacity:1" /><stop
       style="stop-color:#d89e08;stop-opacity:1"
       offset="0.11972899"
       id="stop28291-9" /><stop
       style="stop-color:#edb80b;stop-opacity:1"
       offset="0.25514477"
       id="stop28289-6" /><stop
       style="stop-color:#ebc80d;stop-opacity:1"
       offset="0.39194193"
       id="stop28287-6" /><stop
       style="stop-color:#f5d838;stop-opacity:1"
       offset="0.52741116"
       id="stop28285-7" /><stop
       style="stop-color:#f6d811;stop-opacity:1"
       offset="0.76906693"
       id="stop28283-7" /><stop
       id="stop28279-5"
       offset="1"
       style="stop-color:#f5cd31;stop-opacity:1" /></linearGradient><inkscape:path-effect
     is_visible="true"
     id="path-effect28273-44"
     effect="spiro" /><inkscape:path-effect
     is_visible="true"
     id="path-effect28384-7"
     effect="spiro" /><linearGradient
     id="linearGradient29529-6"><stop
       id="stop29531-0"
       offset="0"
       style="stop-color:#3a2903;stop-opacity:1;" /><stop
       style="stop-color:#735208;stop-opacity:1"
       offset="0.55472803"
       id="stop29539-7" /><stop
       id="stop29533-8"
       offset="1"
       style="stop-color:#ac8c04;stop-opacity:1" /></linearGradient><inkscape:path-effect
     is_visible="true"
     id="path-effect29553-7"
     effect="spiro" /><clipPath
     id="clipPath29644-8"
     clipPathUnits="userSpaceOnUse"><path
       sodipodi:nodetypes="zzzzzzz"
       inkscape:connector-curvature="0"
       inkscape:original-d="m 54.232441,122.36218 c -3.79199,4.78949 -8.5176,11.69104 -8.19273,17.25 0.32487,5.55896 3.86025,13.93486 8.37542,16 4.51517,2.06514 5.75436,0.0125 8.32902,-2.5 2.57466,-2.51247 3.85871,-7.34762 4.00585,-12.25 0.14713,-4.90238 -3.03534,-11.91949 -5.43855,-15.25 -2.40321,-3.33051 -3.28702,-8.03949 -7.07901,-3.25 z"
       id="path29646-8"
       d="m 54.232441,122.36218 c -1.780966,0.097 -3.484616,0.91899 -4.787851,2.1367 -1.303235,1.21771 -2.221372,2.81176 -2.786181,4.50357 -1.129618,3.38363 -0.875481,7.05177 -0.618698,10.60973 0.23251,3.22162 0.470404,6.50533 1.676785,9.50158 0.60319,1.49813 1.450247,2.91021 2.580338,4.06395 1.130092,1.15374 2.551736,2.04189 4.118297,2.43447 1.468838,0.36809 3.038161,0.29183 4.482784,-0.16209 1.444623,-0.45391 2.763917,-1.27887 3.846236,-2.33791 1.57904,-1.54507 2.643262,-3.5662 3.253449,-5.68947 0.610186,-2.12328 0.784157,-4.35155 0.752401,-6.56053 -0.03974,-2.76435 -0.400909,-5.53851 -1.265755,-8.16439 -0.864846,-2.62588 -2.245742,-5.10327 -4.172795,-7.08561 -0.933308,-0.96009 -1.997766,-1.80513 -3.198586,-2.39747 -1.200819,-0.59233 -2.54344,-0.92535 -3.880424,-0.85253"
       style="fill:url(#radialGradient29648);fill-opacity:1;stroke:none" /></clipPath><inkscape:path-effect
     is_visible="true"
     id="path-effect29707-7-6"
     effect="spiro" /><clipPath
     clipPathUnits="userSpaceOnUse"
     id="clipPath14656-7"><path
       sodipodi:nodetypes="aaaaassssaaaaaa"
       inkscape:connector-curvature="0"
       d="m 304.84727,225.44951 c 6.01627,4.92338 9.77707,12.317 10.94319,20.00305 1.8254,12.03148 -2.34636,24.07488 -6.44591,35.53273 -0.81749,2.28481 -1.63978,4.59033 -1.96473,6.99513 -0.32495,2.4048 -0.11897,4.94825 1.02948,7.08594 1.30279,2.42497 3.73227,4.12469 6.36677,4.92292 2.58877,0.78438 5.39365,0.76103 8.01466,0.0922 2.62101,-0.66882 5.06097,-1.96774 7.18716,-3.63996 5.48002,-4.30997 8.75799,-10.98552 10.01043,-17.84394 1.25243,-6.85841 0.63908,-13.92879 -0.551,-20.7983 -1.62313,-9.36916 -4.30898,-18.53961 -7.74003,-27.40773 -2.51766,-6.50732 -5.46794,-12.91081 -9.61753,-18.52016 -4.04611,-5.46946 -9.16208,-10.08954 -13.10336,-15.63502 -2.73209,-3.84412 -4.89983,-8.13097 -8.1917,-11.50812 -1.64594,-1.68858 -3.57654,-3.13527 -5.76975,-4.00143 -2.19321,-0.86616 -4.66356,-1.12446 -6.93254,-0.48249 -1.50468,0.42573 -2.89193,1.23739 -4.03791,2.30136 -1.14598,1.06397 -2.05268,2.37637 -2.69275,3.80312 -1.28015,2.85349 -1.47719,6.11241 -0.96512,9.1977 0.66114,3.98343 2.44407,7.69333 4.46569,11.18873 2.27396,3.93169 4.918,7.71926 8.38442,10.65407 3.5985,3.04664 7.96161,5.07413 11.61053,8.0602"
       id="path14658-9"
       inkscape:original-d="m 304.84727,225.44951 c 5.05628,5.63479 9.72833,12.47181 10.94319,20.00305 1.91724,11.88535 -4.97006,23.58228 -6.44591,35.53273 -0.57645,4.66766 -2.84839,9.7988 -0.93525,14.08107 1.10334,2.46967 3.76154,4.35176 6.36677,4.92292 5.08221,1.1142 11.95719,2.41291 15.20182,-3.54776 6.07775,-11.16533 10.5961,-26.78641 9.45943,-38.64224 -0.906,-9.44981 -3.86858,-18.61978 -7.74003,-27.40773 -2.817,-6.39442 -6.14704,-12.5833 -9.61753,-18.52016 -3.44146,-5.88721 -8.20051,-10.94245 -13.10336,-15.63502 -6.34842,-6.07614 -12.40311,-17.98386 -20.89399,-15.99204 -5.48499,1.28669 -7.45029,9.57719 -7.69578,15.30218 -0.17245,4.02188 2.46425,7.71677 4.46569,11.18873 2.26238,3.92465 5.10447,7.56255 8.38442,10.65407 3.43735,3.23988 8.4511,4.53927 11.61053,8.0602 z"
       style="fill:none;stroke:#c17d11;stroke-width:1px;stroke-linecap:butt;stroke-linejoin:miter;stroke-opacity:1" /></clipPath><inkscape:path-effect
     is_visible="true"
     id="path-effect4500-7"
     effect="spiro" /><inkscape:path-effect
     is_visible="true"
     id="path-effect4582-3"
     effect="spiro" /><inkscape:path-effect
     effect="spiro"
     id="path-effect14300-7"
     is_visible="true" /><clipPath
     clipPathUnits="userSpaceOnUse"
     id="clipPath14489-3"><path
       style="fill:url(#linearGradient14493);fill-opacity:1;stroke:none"
       d="m 516.00562,331.8756 c -0.6714,1.71905 -1.62682,3.32679 -2.81579,4.73826 -2.6238,3.11482 -6.268,5.17039 -9.89648,7.01985 -6.1886,3.15437 -12.60169,5.92177 -18.41964,9.71654 -3.89802,2.54249 -7.4959,5.52671 -10.86016,8.74238 -2.87719,2.75012 -5.60582,5.68745 -8.83247,8.01771 -3.25567,2.35122 -7.01915,4.05426 -10.99061,4.6502 -4.83026,0.72481 -9.82134,-0.21289 -14.29898,-2.16416 -3.13754,-1.36728 -6.15569,-3.3229 -7.96301,-6.22931 -1.81425,-2.91754 -2.22807,-6.48813 -2.23266,-9.92375 -0.008,-6.07666 1.11824,-12.09004 2.17848,-18.07349 0.88097,-4.97177 1.71949,-9.95483 2.26013,-14.97502 0.98337,-9.13118 0.9763,-18.35278 0.3199,-27.51327 -0.10993,-1.53416 -0.23754,-3.0832 -0.008,-4.60412 0.22922,-1.52092 0.85475,-3.0367 2.02069,-4.03986 1.07696,-0.9266 2.52093,-1.33598 3.93947,-1.4145 1.41854,-0.0785 2.83404,0.14655 4.23982,0.35197 3.31254,0.48405 6.65159,0.8649 9.88917,1.71656 2.04284,0.53738 4.03315,1.25925 6.0722,1.81081 3.40258,0.92039 6.96639,1.36144 10.46739,0.95192 3.76917,-0.44089 7.42987,-1.85678 11.22363,-1.76474 1.55658,0.0378 3.1015,0.33171 4.58649,0.79985 1.51539,0.47772 3.00914,1.16182 4.12281,2.29512 0.84639,0.8613 1.43579,1.94539 1.87872,3.06879 0.65982,1.67352 1.01492,3.457 1.16703,5.24945 0.13475,1.58788 0.11343,3.19441 0.41433,4.75933 0.49503,2.57458 1.84746,4.92305 3.52848,6.93494 1.68102,2.01189 3.68982,3.72048 5.69641,5.40783 1.99908,1.68103 4.0106,3.35469 6.16708,4.82839 1.0121,0.69165 2.05642,1.33949 3.01736,2.10062 0.96094,0.76113 1.84466,1.6468 2.44543,2.71535 0.81492,1.44944 1.06377,3.2077 0.68307,4.82635 l 2e-5,0"
       id="path14491-6"
       inkscape:connector-curvature="0"
       sodipodi:nodetypes="aaaaaaaaaaaaaaaaaaaaaaaacscaa"
       inkscape:original-d="m 516.00562,331.8756 c 0.90859,1.59687 -1.57016,3.38773 -2.81579,4.73826 -2.74207,2.97299 -6.45099,4.90178 -9.89648,7.01985 -5.91373,3.63539 -12.61918,5.90302 -18.41964,9.71654 -3.88318,2.553 -7.32809,5.72221 -10.86016,8.74238 -3.0221,2.58411 -5.48201,5.87643 -8.83247,8.01771 -3.3519,2.1422 -7.0437,4.15414 -10.99061,4.6502 -4.78298,0.60114 -9.87221,-0.25577 -14.29898,-2.16416 -3.0947,-1.33413 -6.16113,-3.38144 -7.96301,-6.22931 -1.81288,-2.86525 -2.06093,-6.5375 -2.23266,-9.92375 -0.30734,-6.06031 1.36252,-12.0605 2.17848,-18.07349 0.67882,-5.00236 1.85312,-9.94325 2.26013,-14.97502 0.73946,-9.14185 -0.7797,-18.40771 0.3199,-27.51327 0.35468,-2.93704 -0.181,-6.65876 2.01238,-8.64398 2.0384,-1.84494 5.43058,-1.1212 8.17929,-1.06253 3.34492,0.0714 6.63224,0.95108 9.88917,1.71656 2.05612,0.48325 3.99816,1.41138 6.0722,1.81081 3.44031,0.66255 6.96573,1.06623 10.46739,0.95192 3.78516,-0.12356 7.43659,-1.79636 11.22363,-1.76474 1.55185,0.013 3.12359,0.28186 4.58649,0.79985 1.48266,0.52499 2.98786,1.20618 4.12281,2.29512 0.86547,0.83038 1.42933,1.95676 1.87872,3.06879 0.67163,1.66196 0.8942,3.4778 1.16703,5.24945 0.24238,1.57389 -0.1531,3.27141 0.41433,4.75933 1.83023,4.79924 5.57666,8.72712 9.22489,12.34277 1.74278,1.93455 4.03041,3.53404 6.16708,4.82839 2.26886,1.37444 4.3675,2.44991 5.46279,4.81597 0.65901,1.48517 -0.54371,3.76097 0.68307,4.82635 z" /></clipPath><inkscape:path-effect
     effect="spiro"
     id="path-effect14300-2-7"
     is_visible="true" /><clipPath
     clipPathUnits="userSpaceOnUse"
     id="clipPath14481-1"><path
       style="fill:url(#linearGradient14485);fill-opacity:1;stroke:none"
       d="m 516.00562,331.8756 c -0.6714,1.71905 -1.62682,3.32679 -2.81579,4.73826 -2.6238,3.11482 -6.268,5.17039 -9.89648,7.01985 -6.1886,3.15437 -12.60169,5.92177 -18.41964,9.71654 -3.89802,2.54249 -7.4959,5.52671 -10.86016,8.74238 -2.87719,2.75012 -5.60582,5.68745 -8.83247,8.01771 -3.25567,2.35122 -7.01915,4.05426 -10.99061,4.6502 -4.83026,0.72481 -9.82134,-0.21289 -14.29898,-2.16416 -3.13754,-1.36728 -6.15569,-3.3229 -7.96301,-6.22931 -1.81425,-2.91754 -2.22807,-6.48813 -2.23266,-9.92375 -0.008,-6.07666 1.11824,-12.09004 2.17848,-18.07349 0.88097,-4.97177 1.71949,-9.95483 2.26013,-14.97502 0.98337,-9.13118 0.9763,-18.35278 0.3199,-27.51327 -0.10993,-1.53416 -0.23754,-3.0832 -0.008,-4.60412 0.22922,-1.52092 0.85475,-3.0367 2.02069,-4.03986 1.07696,-0.9266 2.52093,-1.33598 3.93947,-1.4145 1.41854,-0.0785 2.83404,0.14655 4.23982,0.35197 3.31254,0.48405 6.65159,0.8649 9.88917,1.71656 2.04284,0.53738 4.03315,1.25925 6.0722,1.81081 3.40258,0.92039 6.96639,1.36144 10.46739,0.95192 3.76917,-0.44089 7.42987,-1.85678 11.22363,-1.76474 1.55658,0.0378 3.1015,0.33171 4.58649,0.79985 1.51539,0.47772 3.00914,1.16182 4.12281,2.29512 0.84639,0.8613 1.43579,1.94539 1.87872,3.06879 0.65982,1.67352 1.01492,3.457 1.16703,5.24945 0.13475,1.58788 0.11343,3.19441 0.41433,4.75933 0.49503,2.57458 1.84746,4.92305 3.52848,6.93494 1.68102,2.01189 3.68982,3.72048 5.69641,5.40783 1.99908,1.68103 4.0106,3.35469 6.16708,4.82839 1.0121,0.69165 2.05642,1.33949 3.01736,2.10062 0.96094,0.76113 1.84466,1.6468 2.44543,2.71535 0.81492,1.44944 1.06377,3.2077 0.68307,4.82635 l 2e-5,0"
       id="path14483-3"
       inkscape:connector-curvature="0"
       sodipodi:nodetypes="aaaaaaaaaaaaaaaaaaaaaaaacscaa"
       inkscape:original-d="m 516.00562,331.8756 c 0.90859,1.59687 -1.57016,3.38773 -2.81579,4.73826 -2.74207,2.97299 -6.45099,4.90178 -9.89648,7.01985 -5.91373,3.63539 -12.61918,5.90302 -18.41964,9.71654 -3.88318,2.553 -7.32809,5.72221 -10.86016,8.74238 -3.0221,2.58411 -5.48201,5.87643 -8.83247,8.01771 -3.3519,2.1422 -7.0437,4.15414 -10.99061,4.6502 -4.78298,0.60114 -9.87221,-0.25577 -14.29898,-2.16416 -3.0947,-1.33413 -6.16113,-3.38144 -7.96301,-6.22931 -1.81288,-2.86525 -2.06093,-6.5375 -2.23266,-9.92375 -0.30734,-6.06031 1.36252,-12.0605 2.17848,-18.07349 0.67882,-5.00236 1.85312,-9.94325 2.26013,-14.97502 0.73946,-9.14185 -0.7797,-18.40771 0.3199,-27.51327 0.35468,-2.93704 -0.181,-6.65876 2.01238,-8.64398 2.0384,-1.84494 5.43058,-1.1212 8.17929,-1.06253 3.34492,0.0714 6.63224,0.95108 9.88917,1.71656 2.05612,0.48325 3.99816,1.41138 6.0722,1.81081 3.44031,0.66255 6.96573,1.06623 10.46739,0.95192 3.78516,-0.12356 7.43659,-1.79636 11.22363,-1.76474 1.55185,0.013 3.12359,0.28186 4.58649,0.79985 1.48266,0.52499 2.98786,1.20618 4.12281,2.29512 0.86547,0.83038 1.42933,1.95676 1.87872,3.06879 0.67163,1.66196 0.8942,3.4778 1.16703,5.24945 0.24238,1.57389 -0.1531,3.27141 0.41433,4.75933 1.83023,4.79924 5.57666,8.72712 9.22489,12.34277 1.74278,1.93455 4.03041,3.53404 6.16708,4.82839 2.26886,1.37444 4.3675,2.44991 5.46279,4.81597 0.65901,1.48517 -0.54371,3.76097 0.68307,4.82635 z" /></clipPath><inkscape:path-effect
     effect="spiro"
     id="path-effect14300-2-2-0"
     is_visible="true" /><clipPath
     clipPathUnits="userSpaceOnUse"
     id="clipPath14473-5"><path
       style="fill:url(#linearGradient14477);fill-opacity:1;stroke:none"
       d="m 511.82669,331.89986 c -0.60617,1.40358 -1.44178,2.70776 -2.46357,3.84504 -2.32524,2.58805 -5.50706,4.22246 -8.65855,5.69652 -5.42045,2.53534 -11.00071,4.7788 -16.11556,7.88485 -3.38301,2.05437 -6.53696,4.47221 -9.50169,7.09434 -2.52461,2.23286 -4.92977,4.6271 -7.72763,6.50627 -2.88313,1.93644 -6.17534,3.29888 -9.61582,3.77358 -4.21817,0.58201 -8.55335,-0.18335 -12.51035,-1.75619 -2.7091,-1.07682 -5.36625,-2.6185 -6.96693,-5.05501 -1.53813,-2.3413 -1.9333,-5.25173 -1.95338,-8.053 -0.0354,-4.93859 0.96501,-9.81816 1.90598,-14.66641 0.78215,-4.02995 1.52682,-8.0717 1.97741,-12.15204 0.81784,-7.40607 0.66114,-14.88536 0.27989,-22.32668 -0.064,-1.24906 -0.13361,-2.5105 0.0789,-3.74301 0.21256,-1.23251 0.73646,-2.45247 1.68171,-3.27147 0.93914,-0.8137 2.20952,-1.15942 3.45104,-1.2115 1.24152,-0.0521 2.47642,0.16381 3.70512,0.34927 2.88969,0.43617 5.81087,0.7091 8.65215,1.39297 1.78651,0.43 3.53091,1.02011 5.31265,1.46945 2.98632,0.75312 6.09645,1.10709 9.15804,0.77247 3.2941,-0.36004 6.50688,-1.50957 9.81969,-1.43207 1.35838,0.0318 2.70755,0.27142 4.01277,0.64907 1.31265,0.3798 2.61744,0.9202 3.6071,1.86246 0.72535,0.69061 1.25006,1.56936 1.64371,2.49029 0.57625,1.34814 0.88626,2.79994 1.02105,4.25986 0.11897,1.28855 0.10468,2.59405 0.36251,3.86214 0.4369,2.14878 1.63966,4.08139 3.11506,5.70353 1.4754,1.62214 3.22406,2.96752 4.9559,4.31247 1.75634,1.36398 3.50975,2.7398 5.39565,3.91818 0.88228,0.55128 1.79349,1.05932 2.63473,1.67142 0.84123,0.61209 1.61878,1.33907 2.14473,2.23668 0.68386,1.16711 0.90229,2.59857 0.59763,3.91652 l 2e-5,0"
       id="path14475-9"
       inkscape:connector-curvature="0"
       sodipodi:nodetypes="aaaaaaaaaaaaaaaaaaaaaaaacscaa"
       inkscape:original-d="m 511.82669,331.89986 c 0.79493,1.29584 -1.37375,2.7491 -2.46357,3.84504 -2.39907,2.41255 -5.64405,3.97773 -8.65855,5.69652 -5.17399,2.95008 -11.04067,4.79023 -16.11556,7.88485 -3.39744,2.07173 -6.41144,4.64351 -9.50169,7.09434 -2.64407,2.09697 -4.79627,4.76865 -7.72763,6.50627 -2.93262,1.73837 -6.16262,3.37103 -9.61582,3.77358 -4.18468,0.48781 -8.63731,-0.20756 -12.51035,-1.75619 -2.70759,-1.08263 -5.39044,-2.744 -6.96693,-5.05501 -1.58611,-2.32511 -1.80313,-5.3051 -1.95338,-8.053 -0.2689,-4.91787 1.19208,-9.78694 1.90598,-14.66641 0.59391,-4.05935 1.62131,-8.06882 1.97741,-12.15204 0.64696,-7.4185 -0.68217,-14.93763 0.27989,-22.32668 0.31031,-2.38337 -0.15836,-5.4035 1.76065,-7.01448 1.78342,-1.49715 4.75128,-0.90984 7.15616,-0.86223 2.92651,0.0579 5.80263,0.77179 8.65215,1.39297 1.79893,0.39215 3.49804,1.14531 5.31265,1.46945 3.00996,0.53765 6.0944,0.86523 9.15804,0.77247 3.31168,-0.10027 6.50636,-1.45773 9.81969,-1.43207 1.35773,0.0105 2.73287,0.22873 4.01277,0.64907 1.2972,0.42602 2.61412,0.9788 3.6071,1.86246 0.75721,0.67384 1.25054,1.58789 1.64371,2.49029 0.58762,1.34866 0.78235,2.82219 1.02105,4.25986 0.21206,1.27719 -0.13395,2.65471 0.36251,3.86214 1.60129,3.89452 4.87908,7.08195 8.07096,10.016 1.52478,1.56986 3.52626,2.86783 5.39565,3.91818 1.98506,1.11534 3.82118,1.98807 4.77946,3.9081 0.57658,1.2052 -0.47569,3.05198 0.59763,3.91652 z" /></clipPath><linearGradient
     id="linearGradient14518-6"><stop
       id="stop14540-0"
       offset="0"
       style="stop-color:#110800;stop-opacity:1;" /><stop
       style="stop-color:#a65a00;stop-opacity:0.80000001;"
       offset="0.59066743"
       id="stop14542-5" /><stop
       style="stop-color:#ff921e;stop-opacity:0;"
       offset="1"
       id="stop14522-4" /></linearGradient><inkscape:path-effect
     is_visible="true"
     id="path-effect29716-0-0"
     effect="spiro" /><inkscape:path-effect
     is_visible="true"
     id="path-effect29716-0-8-3"
     effect="spiro" /><inkscape:path-effect
     is_visible="true"
     id="path-effect29716-6-1"
     effect="spiro" /><clipPath
     clipPathUnits="userSpaceOnUse"
     id="clipPath14822-9"><path
       sodipodi:nodetypes="aaaasssaccaa"
       inkscape:connector-curvature="0"
       d="m 386.1875,285.32775 c -0.40516,-1.10369 -1.11845,-2.08156 -1.9907,-2.86987 -0.87226,-0.78832 -1.90049,-1.39229 -2.98278,-1.85155 -2.16459,-0.91852 -4.52053,-1.26149 -6.83152,-1.69556 -2.17919,-0.40931 -4.34179,-0.90631 -6.52782,-1.27734 -2.27136,-0.38551 -4.6179,-0.63213 -6.8653,-0.1253 -1.96583,0.44333 -3.7845,1.45879 -5.27172,2.81864 -1.48723,1.35984 -2.64911,3.0564 -3.48499,4.89007 -1.47218,3.22952 -1.93451,6.86503 -1.65394,10.40316 0.20882,2.63325 0.87532,5.34594 2.60877,7.33912 1.40065,1.61052 3.38733,2.61526 5.43398,3.22092 3.52502,1.04316 7.36663,0.98822 10.86038,-0.1553 5.76689,-1.93113 10.87568,-5.77387 14.33034,-10.77903 1.13861,-1.64963 2.11217,-3.44809 2.5532,-5.4034 0.33597,-1.48955 0.34831,-3.08112 -0.1779,-4.51456"
       id="path14824-1"
       inkscape:original-d="m 386.1875,285.32775 c -2.36571,-3.81321 -7.59294,-4.9003 -11.805,-6.41698 -2.08672,-0.75138 -4.32322,-1.04333 -6.52782,-1.27734 -2.27612,-0.2416 -4.71593,-0.91505 -6.8653,-0.1253 -3.64566,1.33955 -7.24986,3.80684 -8.75671,7.70871 -1.13743,2.94527 -1.80122,7.05909 -1.65394,10.40316 0.13075,2.96891 0.9633,5.07273 2.60877,7.33912 1.08803,1.49859 3.40096,2.67896 5.43398,3.22092 3.49923,0.93284 7.37483,0.82779 10.86038,-0.1553 5.98587,-2.2615 11.09272,-5.76885 14.33034,-10.77903 1.07459,-1.67639 2.15539,-3.45031 2.5532,-5.4034 0.30053,-1.4755 0.61519,-3.23621 -0.1779,-4.51456 z"
       style="fill:none;stroke:#ce5c00;stroke-width:1px;stroke-linecap:butt;stroke-linejoin:miter;stroke-opacity:1" /></clipPath><clipPath
     clipPathUnits="userSpaceOnUse"
     id="clipPath14822-2-4"><path
       sodipodi:nodetypes="aaaasssaccaa"
       inkscape:connector-curvature="0"
       d="m 386.1875,285.32775 c -0.40516,-1.10369 -1.11845,-2.08156 -1.9907,-2.86987 -0.87226,-0.78832 -1.90049,-1.39229 -2.98278,-1.85155 -2.16459,-0.91852 -4.52053,-1.26149 -6.83152,-1.69556 -2.17919,-0.40931 -4.34179,-0.90631 -6.52782,-1.27734 -2.27136,-0.38551 -4.6179,-0.63213 -6.8653,-0.1253 -1.96583,0.44333 -3.7845,1.45879 -5.27172,2.81864 -1.48723,1.35984 -2.64911,3.0564 -3.48499,4.89007 -1.47218,3.22952 -1.93451,6.86503 -1.65394,10.40316 0.20882,2.63325 0.87532,5.34594 2.60877,7.33912 1.40065,1.61052 3.38733,2.61526 5.43398,3.22092 3.52502,1.04316 7.36663,0.98822 10.86038,-0.1553 5.76689,-1.93113 10.87568,-5.77387 14.33034,-10.77903 1.13861,-1.64963 2.11217,-3.44809 2.5532,-5.4034 0.33597,-1.48955 0.34831,-3.08112 -0.1779,-4.51456"
       id="path14824-6-5"
       inkscape:original-d="m 386.1875,285.32775 c -2.36571,-3.81321 -7.59294,-4.9003 -11.805,-6.41698 -2.08672,-0.75138 -4.32322,-1.04333 -6.52782,-1.27734 -2.27612,-0.2416 -4.71593,-0.91505 -6.8653,-0.1253 -3.64566,1.33955 -7.24986,3.80684 -8.75671,7.70871 -1.13743,2.94527 -1.80122,7.05909 -1.65394,10.40316 0.13075,2.96891 0.9633,5.07273 2.60877,7.33912 1.08803,1.49859 3.40096,2.67896 5.43398,3.22092 3.49923,0.93284 7.37483,0.82779 10.86038,-0.1553 5.98587,-2.2615 11.09272,-5.76885 14.33034,-10.77903 1.07459,-1.67639 2.15539,-3.45031 2.5532,-5.4034 0.30053,-1.4755 0.61519,-3.23621 -0.1779,-4.51456 z"
       style="fill:none;stroke:#ce5c00;stroke-width:1px;stroke-linecap:butt;stroke-linejoin:miter;stroke-opacity:1" /></clipPath><inkscape:path-effect
     effect="spiro"
     id="path-effect14972-2-2"
     is_visible="true" /><inkscape:path-effect
     effect="spiro"
     id="path-effect15017-9"
     is_visible="true" /><clipPath
     clipPathUnits="userSpaceOnUse"
     id="clipPath15031-3"><path
       style="fill:none;stroke:#729fcf;stroke-width:0.125;stroke-linecap:butt;stroke-linejoin:miter;stroke-miterlimit:4;stroke-dasharray:none;stroke-opacity:1"
       d="m 248.06066,184.61218 c -2.60091,3.4397 -5.23338,6.85555 -7.89695,10.24696 -2.83301,3.60715 -5.70116,7.1866 -8.58729,10.75139 -3.54135,4.37407 -7.15155,8.79286 -9.44912,13.93045 -1.97407,4.41422 -2.91014,9.20748 -4.26498,13.84932 -1.53862,5.27153 -3.62627,10.37023 -5.97071,15.33612 -2.1648,4.58539 -4.54978,9.06293 -6.93891,13.53553 -1.73823,3.25407 -3.50515,6.58104 -4.10782,10.22071 -0.47627,2.87632 -0.19849,5.84423 0.53376,8.66626 0.73224,2.82202 1.90964,5.5106 3.23775,8.10601 5.66724,11.07504 14.17003,20.62168 24.24176,27.92472 4.57063,3.31418 9.46669,6.18109 14.60245,8.52595 2.78247,1.27041 5.71355,2.40436 8.77186,2.45744 1.52915,0.0265 3.0741,-0.22544 4.47434,-0.84055 1.40024,-0.6151 2.65068,-1.60373 3.48254,-2.88709 1.02278,-1.5779 1.36992,-3.53829 1.16461,-5.40743 -0.2053,-1.86914 -0.93484,-3.65294 -1.91324,-5.25873 -2.38997,-3.92251 -6.1652,-6.76055 -9.79642,-9.57343 -7.84055,-6.07358 -15.42466,-12.48038 -22.68212,-19.23996 -2.04911,-1.90854 -4.0984,-3.87759 -5.53019,-6.28412 -1.3943,-2.34352 -2.14763,-5.01375 -2.65783,-7.69253 -1.39963,-7.34872 -1.0404,-15.0827 1.45958,-22.13343 0.97802,-2.75834 2.27066,-5.39225 3.51815,-8.03965 2.1622,-4.58855 4.21133,-9.26299 7.04933,-13.46723 3.53268,-5.23334 8.24484,-9.67275 11.15147,-15.27803 2.45457,-4.7335 3.49353,-10.05742 4.36185,-15.31831 0.66531,-4.03089 1.24751,-8.07549 1.74613,-12.13037"
       id="path15033-2"
       inkscape:connector-curvature="0"
       inkscape:original-d="m 248.06066,184.61218 c 0,0 -5.10626,6.34527 -7.89695,10.24696 -2.7907,3.9017 -5.73652,6.64881 -8.58729,10.75139 -2.85076,4.10259 -7.36482,9.43164 -9.44912,13.93045 -2.08429,4.49881 -2.32047,9.0356 -4.26498,13.84932 -1.94451,4.81371 -3.70129,10.64183 -5.97071,15.33612 -2.26943,4.69429 -5.37093,9.68473 -6.93891,13.53553 -1.56799,3.8508 -3.81119,5.72384 -4.10782,10.22071 -0.29663,4.49686 -0.57747,8.31749 3.77151,16.77227 4.34898,8.45478 17.23626,22.00721 24.24176,27.92472 7.00549,5.9175 9.39133,7.22492 14.60245,8.52595 5.21112,1.30104 13.85627,2.9981 16.72874,-1.2702 2.87246,-4.26829 2.27191,-5.96483 -0.74863,-10.66616 -3.02055,-4.70132 -4.82469,-5.30209 -9.79642,-9.57343 -4.97172,-4.27133 -18.63696,-14.87266 -22.68212,-19.23996 -4.04516,-4.36729 -7.10731,-3.41164 -5.53019,-6.28412 1.57712,-2.87249 -2.20738,-4.00856 -2.65783,-7.69253 -0.76361,-6.24511 0.9436,-18.71046 1.45958,-22.13343 0.51598,-3.42296 1.22371,-2.92446 3.51815,-8.03965 2.29444,-5.11519 4.12424,-8.62435 7.04933,-13.46723 2.92509,-4.84289 8.62493,-10.12787 11.15147,-15.27803 2.52654,-5.15017 3.50393,-10.72068 4.36185,-15.31831 0.85792,-4.59763 1.74613,-12.13037 1.74613,-12.13037 z"
       sodipodi:nodetypes="czzzzzzzzzzzzzzzszzzzzc" /></clipPath><clipPath
     clipPathUnits="userSpaceOnUse"
     id="clipPath14186-9"><path
       inkscape:original-d="m 137.57703,281.0191 c 6.32494,-1.3585 11.99755,4.87308 16.86679,9.13228 6.42572,5.62067 -8.54781,26.01622 13.24488,19.8293 5.86081,-1.66388 6.89528,11.31183 10.16415,16.45304 4.09971,6.44793 11.58575,13.6827 13.65231,21.03883 1.58383,5.63779 1.34339,10.90606 -1.62666,15.95302 -3.57124,6.06857 -11.7907,10.42929 -18.78877,11.20919 -5.73056,0.63864 -11.87822,-3.8351 -17.38362,-5.54906 -12.31617,-3.83432 -23.77946,-5.82074 -36.09666,-9.65174 -2.50091,-0.77785 -8.28361,-2.638 -10.96988,-3.42629 -4.51043,-1.3236 -6.46556,-0.99271 -8.72046,-4.76819 -2.68251,-4.49147 0.68051,-9.72669 3.16379,-14.79408 4.06995,-8.30524 1.91195,-17.82603 0.46203,-25.51057 -0.92235,-4.8884 -0.66071,-7.92707 2.7425,-10.79139 4.99476,-4.20385 14.53027,-1.53186 20.35272,-4.08305 5.82246,-2.55119 6.66365,-13.6939 12.93688,-15.04129 z"
       sodipodi:nodetypes="ssssssssssssssss"
       inkscape:connector-curvature="0"
       id="path14188-1"
       d="m 137.57703,281.0191 c 1.59929,-0.66295 3.3982,-0.78361 5.10074,-0.46963 1.70253,0.31398 3.31141,1.04948 4.74342,2.02239 2.86402,1.94583 4.98821,4.77774 7.02263,7.57952 4.67189,6.43406 9.16868,13.00227 13.24488,19.8293 3.30635,5.53766 6.34352,11.25685 10.16415,16.45304 2.49398,3.3919 5.3066,6.53947 7.813,9.92221 2.50639,3.38273 4.72794,7.05586 5.83931,11.11662 1.44411,5.27653 0.88463,11.09291 -1.62666,15.95302 -1.76663,3.41896 -4.47646,6.35228 -7.77242,8.33898 -3.29595,1.9867 -7.17064,3.01444 -11.01635,2.87021 -6.11413,-0.2293 -11.69944,-3.28515 -17.38362,-5.54906 -11.58097,-4.6125 -24.15978,-6.0594 -36.09666,-9.65174 -3.66859,-1.10404 -7.27582,-2.4107 -10.96988,-3.42629 -1.64125,-0.45122 -3.30866,-0.8482 -4.85875,-1.55144 -1.55008,-0.70325 -2.999548,-1.7491 -3.86171,-3.21675 -0.666391,-1.13439 -0.948386,-2.47002 -0.930187,-3.78554 0.0182,-1.31552 0.325889,-2.61453 0.773815,-3.85158 0.895851,-2.47409 2.343262,-4.71374 3.320162,-7.15696 1.59511,-3.98935 1.88169,-8.38839 1.66657,-12.67942 -0.21511,-4.29103 -0.91078,-8.54478 -1.20454,-12.83115 -0.13118,-1.91406 -0.18066,-3.85256 0.18479,-5.73598 0.36545,-1.88343 1.17577,-3.72459 2.55771,-5.05541 1.27406,-1.22693 2.96492,-1.95531 4.69643,-2.31651 1.73151,-0.3612 3.51533,-0.37747 5.28367,-0.33762 1.76833,0.0399 3.54067,0.13425 5.30351,-0.0106 1.76284,-0.14488 3.53347,-0.54055 5.06911,-1.41828 1.45996,-0.83447 2.65433,-2.0745 3.64374,-3.43424 0.9894,-1.35974 1.78909,-2.84573 2.60891,-4.31396 0.81983,-1.46823 1.66834,-2.93151 2.74157,-4.22611 1.07324,-1.2946 2.38923,-2.42304 3.94266,-3.06698"
       style="fill:#402c07;fill-opacity:1;stroke:none" /></clipPath><inkscape:path-effect
     is_visible="true"
     id="path-effect4669-1"
     effect="spiro" /><inkscape:path-effect
     is_visible="true"
     id="path-effect4669-4-3"
     effect="spiro" /></defs><sodipodi:namedview
   pagecolor="#4a4a4a"
   bordercolor="#666666"
   borderopacity="1"
   objecttolerance="10"
   gridtolerance="10"
   guidetolerance="10"
   inkscape:pageopacity="0"
   inkscape:pageshadow="2"
   inkscape:window-width="1850"
   inkscape:window-height="1016"
   id="namedview11"
   showgrid="false"
   inkscape:zoom="5.2853599"
   inkscape:cx="25"
   inkscape:cy="20.15"
   inkscape:window-x="70"
   inkscape:window-y="27"
   inkscape:window-maximized="1"
   inkscape:current-layer="g8" />
<style
   type="text/css"
   id="style2">
	.st0{fill:#F2F2F2;}
</style>
<g
   id="g8">
	<path
   class="st0"
   d="M48.5,5.3c0-1.5-0.9-2-2.1-2S24,3.3,23,3.3s-1.2-1-1.2-1.8c0-0.7-0.5-1.5-1.4-1.5C19.5,0,7.2,0,6,0   C4.8,0,4.8,1.2,4.8,1.6S4.3,3.2,3.4,3.2C2.2,3.2,1.7,4,1.7,4.6c0,0.3,0,1.3,0,1.3l46.8,0.3V5.3z"
   id="path4" />
	<path
   d="M 48.4,7.4 H 1.6 C 0.7,7.4 0,8.1 0,9 l 1.3,29.7 c 0,0.9 0.7,1.6 1.6,1.6 h 44.2 c 0.9,0 1.6,-0.7 1.6,-1.6 L 50,9 C 50,8.1 49.3,7.4 48.4,7.4 Z"
   id="path19"
   style="fill:#f2f2f2;fill-opacity:1" />
<g
   id="g1518"
   transform="matrix(0.67148004,0,0,0.67148004,43.288394,12.148905)"><path
     sodipodi:nodetypes="ccccccccccccccccccccccccccccccc"
     inkscape:connector-curvature="0"
     id="path4903"
     d="m -42.146208,26.064255 -1.613103,2.319584 -2.799003,1.39585 -0.530949,1.275038 0.290128,2.959644 -0.467433,2.250421 0.03227,0.968328 1.702547,1.090345 4.579719,0.675044 4.13067,1.564716 2.873962,-0.520785 1.205521,-1.494847 5.217496,-0.728135 4.437571,0.575483 0.902211,1.545539 2.067194,1.087841 1.888092,-0.249048 1.963348,-0.982706 2.266723,-2.201447 4.566745,-2.659755 0.3224185,-1.513185 -1.4961435,-2.157573 -0.996351,-3.358673 -1.295579,-0.826892 -1.134036,-7.829432 -8.255409,-11.4958494 -0.540074,-10.1070895 -11.236423,3.4433595 -0.08183,7.3377362 -2.64595,7.8560152 z"
     style="color:#000000;clip-rule:nonzero;display:inline;overflow:visible;visibility:visible;opacity:1;isolation:auto;mix-blend-mode:normal;color-interpolation:sRGB;color-interpolation-filters:linearRGB;solid-color:#000000;solid-opacity:1;fill:#ffffff;fill-opacity:1;fill-rule:nonzero;stroke:none;stroke-width:0.5455566;stroke-linecap:butt;stroke-linejoin:miter;stroke-miterlimit:4;stroke-dasharray:none;stroke-dashoffset:0;stroke-opacity:1;color-rendering:auto;image-rendering:auto;shape-rendering:auto;text-rendering:auto;enable-background:accumulate" /><path
     sodipodi:nodetypes="ccccscsccccccsccscscccccscsscccccccccscccccscccsccccsccsccccsccccccssccccsscccccccccccsscccccccsccsccccccccccccccsccscccssccccsccccccccccccssccccscssscccccccsccscccccccsccccccscccsscscccscccsccccscscscsccscccccc"
     id="path154"
     d="m -27.280129,-5.6374867 c -0.300532,-5.494e-4 -0.614006,0.012062 -0.940901,0.038125 -8.261928,0.6653821 -6.070807,9.3936823 -6.19343,12.3165094 -0.150879,2.1374428 -0.584253,3.8218933 -2.054302,5.9115033 -1.727087,2.053814 -4.15863,5.377938 -5.310515,8.838236 -0.543637,1.633112 -0.802333,3.297691 -0.563422,4.873104 -0.07484,0.06702 -0.146087,0.137238 -0.213834,0.209563 -0.507073,0.541345 -0.881742,1.197263 -1.299218,1.638881 -0.390034,0.389067 -0.945733,0.537055 -1.556401,0.756147 -0.610901,0.21919 -1.281623,0.542339 -1.688756,1.323595 0,0 0,2.73e-4 -2.73e-4,3.82e-4 -6.64e-4,0.0013 -0.0014,0.0025 -0.0021,0.0038 v 0 c -0.368557,0.688383 -0.258991,1.48111 -0.146431,2.215556 0.112563,0.734438 0.226516,1.428456 0.07526,1.89932 -0.483487,1.321494 -0.545214,2.235598 -0.204856,2.898655 0.341085,0.664439 1.042383,0.957712 1.835002,1.12326 1.585243,0.331094 3.732077,0.248815 5.484466,1.171104 1.752389,0.922288 3.588709,1.258657 5.053771,0.924026 1.062193,-0.242611 1.924442,-0.875087 2.367263,-1.848318 1.145912,-0.0056 2.403349,-0.490957 4.417607,-0.601864 1.366474,-0.110069 3.073441,0.485251 5.036875,0.376227 0.05132,0.213019 0.125603,0.41791 0.227279,0.612607 0.001,0.002 0.002,0.004 0.0031,0.006 0.76113,1.522001 2.175363,2.218166 3.682503,2.099221 1.509128,-0.119096 3.113635,-1.008948 4.381158,-2.531289 1.267525,-1.52234 3.319469,-2.143906 4.680073,-2.964536 0.6803047,-0.410326 1.2323212,-0.924115 1.2749723,-1.670358 0.042628,-0.745869 -0.3952634,-1.581734 -1.4021823,-2.699451 l -2.72e-4,-2.72e-4 c -3.82e-4,-4.91e-4 -7.86e-4,-9.28e-4 -0.0012,-0.0014 -0.33084,-0.373871 -0.488669,-1.066806 -0.658281,-1.804718 -0.169496,-0.737462 -0.358693,-1.532978 -0.964141,-2.048519 v 0 c -0.0012,-0.0011 -0.0024,-0.002 -0.0036,-0.0031 v 0 c -0.24096,-0.209968 -0.491359,-0.352474 -0.743524,-0.448214 0.841764,-2.49646 0.511494,-4.982327 -0.338215,-7.228687 -1.042831,-2.756908 -2.863459,-5.159129 -4.253902,-6.80246 -1.556375,-1.963126 -3.078646,-3.8269571 -3.048659,-6.5797735 0.04636,-4.2013978 0.462139,-11.9927639 -6.931054,-12.0028541 z m 1.000894,6.47266389 c 0.419522,0 0.777823,0.12296682 1.145876,0.39010681 0.373898,0.2713757 0.643265,0.6110976 0.860368,1.085507 0.21308,0.4623478 0.3156,0.9146381 0.325652,1.4513676 0,0.014072 0,0.02613 0.004,0.040202 0.004,0.5507939 -0.09046,1.0191712 -0.299521,1.4976009 -0.119291,0.2729948 -0.256285,0.5021226 -0.420256,0.7004919 -0.05567,-0.026725 -0.113482,-0.052421 -0.173444,-0.077079 v 0 c -0.415629,-0.1780151 -0.734467,-0.291301 -1.0002,-0.3835088 0.09633,-0.1157878 0.176536,-0.2531115 0.247067,-0.4247807 0.10654,-0.2593134 0.158806,-0.5126045 0.168856,-0.8141314 0,-0.012065 0.004,-0.022116 0.004,-0.036187 0.006,-0.2894636 -0.03216,-0.5367224 -0.116591,-0.7900096 -0.08845,-0.2653446 -0.201022,-0.4563111 -0.363847,-0.6151177 -0.162826,-0.1588126 -0.325652,-0.2311742 -0.520644,-0.2372108 -0.0091,-5.51e-4 -0.01826,-5.51e-4 -0.02726,-5.51e-4 -0.183415,5.51e-4 -0.342677,0.063447 -0.507451,0.2013977 -0.172877,0.14474 -0.301529,0.3296699 -0.408073,0.5869784 -0.10654,0.2573031 -0.158806,0.5125968 -0.168854,0.8161412 -0.002,0.012065 -0.002,0.022116 -0.002,0.034175 -0.0035,0.1668503 0.0071,0.3196988 0.03285,0.468123 -0.375293,-0.1870037 -0.728961,-0.3144959 -1.060882,-0.3934964 -0.01892,-0.143531 -0.02987,-0.2916452 -0.03336,-0.4465113 V 3.846466 c -0.006,-0.5487868 0.08443,-1.0191705 0.2955,-1.4975953 0.211073,-0.4784308 0.472398,-0.8221784 0.840265,-1.1015955 0.367866,-0.27941666 0.729701,-0.40806819 1.157876,-0.41208894 h 0.02004 z m -5.742018,0.45461941 c 0.278303,6.601e-4 0.527332,0.093635 0.784921,0.2993338 0.279418,0.2231267 0.49049,0.5085744 0.667387,0.9106174 0.176898,0.4020425 0.271378,0.8040794 0.297509,1.2784895 v 0.00399 c 0.01267,0.1992477 0.01112,0.3868002 -0.0046,0.5684411 -0.05504,0.015644 -0.108982,0.032572 -0.16182,0.050763 -0.300081,0.1032936 -0.56454,0.244063 -0.795035,0.3962629 0.02254,-0.1592103 0.02589,-0.3207475 0.0086,-0.5008597 -0.002,-0.010052 -0.002,-0.018092 -0.002,-0.028139 -0.02412,-0.2392146 -0.07438,-0.4402342 -0.158806,-0.6432663 -0.09046,-0.2110633 -0.190969,-0.3598235 -0.323644,-0.4744084 -0.120233,-0.1038346 -0.233835,-0.1515174 -0.35882,-0.150573 -0.01293,0 -0.02601,7.147e-4 -0.0392,0.00181 -0.140715,0.012051 -0.257307,0.080398 -0.367869,0.2150855 -0.110561,0.1346821 -0.182927,0.3015303 -0.235192,0.5226476 -0.05227,0.2211239 -0.06634,0.4382271 -0.04423,0.6874886 0,0.010047 0.002,0.018097 0.002,0.028143 0.02412,0.2412271 0.07236,0.4422424 0.158805,0.6452794 0.08845,0.2090595 0.190969,0.3578132 0.323644,0.4723926 0.02222,0.019189 0.0442,0.036427 0.06608,0.051827 -0.138001,0.1062095 -0.203897,0.1551754 -0.316982,0.2382702 -0.07253,0.05322 -0.158913,0.1165871 -0.259315,0.190594 -0.218955,-0.2051145 -0.389766,-0.4628999 -0.539114,-0.8023223 -0.176897,-0.4020353 -0.271377,-0.80408 -0.29952,-1.27849 v -0.00399 c -0.02613,-0.4744035 0.0201,-0.8824771 0.150766,-1.3046178 0.130663,-0.4221457 0.305552,-0.7276917 0.558835,-0.9789745 0.253286,-0.251272 0.508584,-0.3779131 0.816145,-0.3939901 0.02403,-0.00132 0.04784,-0.00192 0.07142,-0.00181 z m 2.611442,3.2912627 c 0.646844,-0.0025 1.425233,0.2095684 2.367579,0.8154549 0.57883,0.3764133 1.029231,0.4078723 2.066361,0.8520715 l 0.0012,5.511e-4 0.0013,4.91e-4 c 0.499007,0.2047403 0.791898,0.4716085 0.934997,0.752628 0.143095,0.2810249 0.146595,0.585768 0.02682,0.9063501 -0.239539,0.6411785 -1.004146,1.3159485 -2.077105,1.651007 l -0.001,4.365e-4 -9.54e-4,4.364e-4 c -0.52317,0.1699775 -0.97937,0.5453442 -1.5172,0.8528902 -0.537814,0.307529 -1.146391,0.555573 -1.973891,0.507702 0,-4e-6 0,0 0,0 -0.704465,-0.04106 -1.125568,-0.280214 -1.506333,-0.586226 -0.380774,-0.306018 -0.712584,-0.6904628 -1.198458,-0.9757655 l -0.0012,-7.474e-4 -0.0013,-7.474e-4 c -0.782629,-0.4423569 -1.209908,-0.9539881 -1.344006,-1.3975305 -0.134103,-0.4435446 -0.0083,-0.8221462 0.380053,-1.1131526 0.436564,-0.3271736 0.739827,-0.5497252 0.941839,-0.6979748 0.200682,-0.147261 0.284175,-0.2024784 0.348081,-0.2638421 3.27e-4,-4.91e-4 6.71e-4,-6.983e-4 0.001,-9.983e-4 l 2.73e-4,-4.91e-4 c 0.328024,-0.3104959 0.85092,-0.8761852 1.639129,-1.1475074 0.271285,-0.093387 0.573999,-0.1536375 0.912821,-0.1549763 z m 5.466367,3.9448974 c 0.704734,2.7780373 2.343859,6.7905823 3.397368,8.7487773 0.559977,1.038922 1.674047,3.246268 2.155378,5.905723 0.796372,0.0058 1.573599,0.269355 2.289178,0.607332 2.020085,0.983678 2.767181,1.839064 2.407971,3.006508 -0.118311,-0.0042 -0.23469,-0.0037 -0.348203,-9.55e-4 -0.01059,2.73e-4 -0.02111,5.51e-4 -0.03166,8.08e-4 0.292531,-0.925395 -0.355522,-1.607924 -2.082378,-2.389249 -1.791091,-0.787998 -3.218334,-0.709601 -3.459557,0.888511 -0.01544,0.08373 -0.02786,0.169042 -0.03731,0.255546 -0.133814,0.04647 -0.268356,0.105797 -0.403235,0.1796 -0.841036,0.46019 -1.300083,1.295195 -1.555395,2.319332 -0.255107,1.023309 -0.328242,2.26043 -0.398648,3.651093 v 7.2e-4 c -0.04302,0.699273 -0.330513,1.645063 -0.622095,2.646812 -2.934083,2.092932 -7.006312,2.999705 -10.463788,0.640123 -0.234313,-0.370664 -0.503101,-0.737921 -0.779773,-1.10014 -0.176678,-0.231314 -0.358171,-0.461214 -0.538609,-0.687874 0.354929,2.72e-4 0.656619,-0.05785 0.900446,-0.168409 0.303214,-0.13749 0.516257,-0.358324 0.621656,-0.641823 0.210794,-0.567005 -9.22e-4,-1.36687 -0.675743,-2.280269 -0.674778,-0.913335 -1.490279,-2.271453 -3.169602,-3.301358 0,0 -2.73e-4,0 -2.73e-4,-2.73e-4 -0.447623,-0.28072 -0.790783,-0.859401 -0.820789,-1.920997 0.05323,-1.889941 0.177244,-3.490113 0.934947,-5.293066 1.103652,-2.501737 3.412092,-6.840059 3.595437,-10.2977618 0.09453,0.068643 0.419369,0.2878204 0.564112,0.3701334 2.73e-4,4.365e-4 6.38e-4,4.365e-4 9.28e-4,4.91e-4 0.423487,0.2493843 0.741544,0.6139284 1.15348,0.9449874 0.412751,0.331715 0.928389,0.618226 1.707415,0.663618 v 0 c 0.909283,0.05262 1.60229,-0.229017 2.170075,-0.553688 0.56693,-0.324178 1.019835,-0.682948 1.448917,-0.8229909 6.71e-4,-4.365e-4 0.0013,-4.365e-4 0.0019,-6.165e-4 0.906688,-0.2835356 1.627601,-0.7853805 2.037841,-1.3707077 z m 5.79977,15.7678263 c 0.885526,-0.02898 1.957789,0.488989 2.444762,0.706844 1.31065,0.605072 1.420675,1.232815 1.062861,1.994683 -0.202009,0.385164 -1.043808,1.081966 -1.917257,1.423337 -0.43031,0.168178 -0.868302,0.25009 -1.241259,0.165972 -1.489052,-0.465045 -1.533759,-2.379398 -1.387016,-3.362385 0.07861,-0.667515 0.483437,-0.925859 1.037909,-0.928451 z m -1.523818,1.932694 c 0.07409,1.202059 0.668817,2.428027 1.720607,2.693358 1.150989,0.30326 2.810479,-0.684299 3.511133,-1.489811 0.143118,-0.196537 0.160368,-0.353411 0.293019,-0.356613 0.614607,-0.01484 1.416512,0.0748 1.884081,0.478131 0.467569,0.403331 0.77589,1.174113 0.942754,1.900072 0.166855,0.725961 0.187464,1.501862 0.919403,2.31808 0.7319383,0.816217 1.1267107,1.750324 1.1003898,2.210893 -0.026325,0.460581 -0.4356984,1.028796 -1.0514738,1.400188 -1.231017,0.742482 -3.313707,1.340108 -4.706891,3.027656 -1.209723,1.439637 -2.966583,2.290714 -4.265706,2.393246 -1.299123,0.102524 -2.679098,-0.695802 -3.339902,-2.02209 l -0.0015,-0.003 -0.0016,-0.003 c -0.409941,-0.779823 -0.170977,-1.955934 0.174357,-3.254045 0.345341,-1.29812 0.814226,-2.808313 0.880644,-3.891664 v -0.0017 -0.0016 c 0.07026,-1.388066 0.257066,-2.927594 0.490235,-3.862899 0.233166,-0.935305 0.79126,-1.45964 1.441793,-1.815594 0.03029,-0.01657 -0.02147,0.295122 0.0084,0.280345 z m -20.761463,-0.07517 c 0.736375,0.111545 1.514909,0.91283 2.133585,1.751977 0.618682,0.839161 1.221629,1.971033 1.756018,3.104173 0.534389,1.13314 1.606078,2.129045 2.456479,3.242407 0.850396,1.113361 1.385799,2.271841 1.287184,3.432663 -0.09861,1.160822 -1.030662,2.200511 -2.293949,2.489053 -1.26291,0.288445 -3.07045,0.0282 -4.87219,-0.920077 -1.801741,-0.948282 -3.861477,-0.807837 -5.305222,-1.109371 -0.722068,-0.150815 -1.534194,-0.541212 -1.750438,-0.96248 -0.21626,-0.421253 -0.262003,-1.224406 0.08332,-2.207045 0.345323,-0.982639 0.204416,-1.763301 0.09408,-2.483236 -0.110337,-0.719939 -0.24613,-1.388426 0.03529,-1.92211 0.281419,-0.533685 0.906759,-1.064264 1.479747,-1.269831 0.572985,-0.205577 1.170589,-0.257914 1.689629,-0.79125 0.519041,-0.533337 0.877976,-1.202863 1.31402,-1.668383 0.584704,-0.543138 1.145302,-0.797286 1.89245,-0.68649 z"
     style="color:#000000;font-style:normal;font-variant:normal;font-weight:normal;font-stretch:normal;font-size:medium;line-height:normal;font-family:'Bitstream Vera Sans';-inkscape-font-specification:'Bitstream Vera Sans';text-indent:0;text-align:start;text-decoration:none;text-decoration-line:none;letter-spacing:normal;word-spacing:normal;text-transform:none;writing-mode:lr-tb;direction:ltr;baseline-shift:baseline;text-anchor:start;display:inline;overflow:visible;visibility:visible;fill:#202020;fill-opacity:1;stroke:none;stroke-width:16.85769844;marker:none;enable-background:accumulate"
     inkscape:connector-curvature="0" /><g
     transform="matrix(0.05455566,0,0,0.05455566,-13.334833,10.112691)"
     id="g4618"><path
       d="m -245.31131,-29.04609 c -15.64075,8.1527 -33.91,18.04 -53.35,18.04 -19.43,0 -34.78,-8.98 -45.82,-17.73 -5.52,-4.37 -10,-8.72 -13.38,-11.88 -5.86434,-4.62903 -5.16188,-11.12168 -2.75246,-10.93 4.03863,0.50418 4.64927,5.82168 7.19246,8.2 3.44,3.22 7.75,7.39 12.97,11.53 10.44,8.27 24.36,16.32 41.79,16.32 17.4,0 37.71174,-10.21517 50.11,-17.17 7.02421,-3.94024 15.96224,-11.0031 23.25658,-16.35742 5.58072,-4.09647 5.37722,-9.02921 9.98509,-8.49216 4.60786,0.53705 1.19917,5.45984 -5.25377,11.09153 -6.45295,5.63169 -16.54818,13.10397 -24.7479,17.37805 z"
       id="path11"
       inkscape:connector-curvature="0"
       style="fill:#202020;fill-opacity:1"
       sodipodi:nodetypes="sscccccssszzs" /><path
       sodipodi:nodetypes="aaaaaaa"
       inkscape:connector-curvature="0"
       id="path28396-7"
       d="m -284.1147,-85.8664 c 0.64684,2.07624 3.99301,1.73211 5.92629,2.72792 1.69642,0.87378 3.06086,2.78891 4.96829,2.84398 1.82043,0.0526 4.65359,-0.63043 4.89041,-2.43615 0.31286,-2.38563 -3.17083,-3.90165 -5.41255,-4.77563 -2.88469,-1.12471 -6.58056,-1.69534 -9.28659,-0.19073 -0.6201,0.34477 -1.29689,1.15328 -1.08585,1.83064 z"
       style="opacity:1;fill:#202020;fill-opacity:1;stroke:none" /><path
       style="opacity:1;fill:#202020;fill-opacity:1;stroke:none"
       d="m -303.87905,-85.8664 c -0.64684,2.07624 -3.99301,1.73211 -5.92629,2.72792 -1.69642,0.87378 -3.06086,2.78891 -4.96829,2.84398 -1.82043,0.0526 -4.65359,-0.63043 -4.89041,-2.43615 -0.31286,-2.38563 3.17083,-3.90165 5.41255,-4.77563 2.88469,-1.12471 6.58056,-1.69534 9.28659,-0.19073 0.6201,0.34477 1.29689,1.15328 1.08585,1.83064 z"
       id="path5461"
       inkscape:connector-curvature="0"
       sodipodi:nodetypes="aaaaaaa" /></g><path
     sodipodi:nodetypes="ccssccccccscssczccsssccccccccccccssccscccsccccccccsscccccccccccssccsccccccscccccccccccsccscccccssccscsccccccccccccscccccscccccscsscccccccsccccccccccccsccccccc"
     inkscape:connector-curvature="0"
     id="path4883"
     d="m -27.280656,-5.3647256 c -0.292555,-5.349e-4 -0.598636,0.011775 -0.918709,0.037294 -2.016832,0.1624664 -3.356282,0.8074302 -4.264825,1.7152001 -0.908576,0.9078029 -1.394373,2.0953245 -1.637841,3.37552495 -0.486939,2.56040115 0.02468,5.42457105 -0.03996,6.96532985 l -1.09e-4,0.00384 -3.28e-4,0.00394 c -0.152753,2.1639994 -0.608043,3.9237807 -2.103269,6.0491777 l -0.0068,0.0097 -0.0075,0.009 c -1.714944,2.039374 -4.128486,5.348011 -5.260573,8.74883 -0.52063,1.563999 -0.769659,3.144644 -0.568998,4.629347 0.556236,-0.284784 1.048873,-0.397891 1.483765,-0.384234 0.273107,0.0086 0.52345,0.06694 0.752697,0.16388 0.611326,0.258497 1.058753,0.743967 1.901407,1.837296 0.842653,1.093328 1.462522,2.475846 1.974496,3.358172 0.511973,0.882325 0.894183,1.304422 1.262346,1.768157 l 0.300802,2.18e-4 c 0.32503,2.73e-4 0.58804,-0.0536 0.78754,-0.14406 0.246928,-0.111968 0.398958,-0.274115 0.478641,-0.488444 0.160807,-0.432549 0.0064,-1.149026 -0.639431,-2.023141 -0.689159,-0.9328 -1.471068,-2.236325 -3.092837,-3.230932 l 0.01108,0.0031 c -0.0035,-0.0031 -0.01255,-0.01103 -0.02142,-0.01886 l 0.0078,0.01406 c -0.53741,-0.337028 -0.916957,-1.026889 -0.948544,-2.144399 l -2.18e-4,-0.0077 2.18e-4,-0.0077 c 0.05344,-1.897528 0.180191,-3.544804 0.956109,-5.391101 l 9.6e-4,-0.0022 9.61e-4,-0.0021 c 1.113342,-2.523704 3.395076,-6.853269 3.572649,-10.2021205 l 0.01716,-0.3240312 c -0.306411,-0.2974571 -0.517161,-0.6076022 -0.610769,-0.917217 -0.160229,-0.5299586 0.02105,-1.0682146 0.477576,-1.4103489 0.220262,-0.1650707 0.318516,-0.2363084 0.475231,-0.3521612 l -0.02493,-0.023442 c -0.250518,-0.2346821 -0.442628,-0.528538 -0.60235,-0.8915372 -0.189476,-0.4306247 -0.292372,-0.8708616 -0.322113,-1.372203 l -5.45e-4,-0.00799 V 3.97258 c -0.02614,-0.4958362 0.02416,-0.9398664 0.163027,-1.3885054 0.14,-0.4523074 0.340085,-0.8070343 0.627284,-1.0919659 v -1.091e-4 c 0.285814,-0.2835422 0.619766,-0.4531093 0.994042,-0.4726735 0.02893,-0.00158 0.05767,-0.00236 0.08631,-0.00224 h 1.09e-4 4.36e-4 l 0.130422,6.383e-4 0.01012,0.012573 c 0.286911,0.030247 0.561427,0.1445272 0.813433,0.3457678 0.315721,0.2521153 0.556895,0.5822769 0.746838,1.0139682 0.189475,0.4306291 0.292542,0.8712566 0.320195,1.373268 l 4.36e-4,0.00757 v 0.00789 c 0.01247,0.205821 0.01081,0.4024817 -0.0056,0.5938253 0.100263,-0.020103 0.207586,-0.028931 0.31476,-0.039212 l -6.38e-4,-0.023868 0.279278,-0.00106 c 0.184325,-7.092e-4 0.378242,0.016795 0.579974,0.05104 -0.01942,-0.1505884 -0.03113,-0.3047479 -0.03474,-0.4645758 l -1.09e-4,-0.00298 v -0.042302 c -0.0064,-0.58047 0.0926,-1.0982741 0.318703,-1.6107771 0.225157,-0.5103562 0.520761,-0.9016823 0.924889,-1.2086419 0.366038,-0.27802821 0.758839,-0.4255489 1.186692,-0.45562544 0.04479,-0.003148 0.088,-0.0116094 0.133619,-0.0120404 h 0.02259 c 0.472825,0 0.902182,0.14889276 1.306139,0.44209284 0.410921,0.2982465 0.715707,0.6852829 0.947799,1.1922327 l 3.27e-4,5.455e-4 c 0.225973,0.4905487 0.337981,0.9860412 0.349711,1.5503611 l 0.0045,0.015557 2.18e-4,0.037187 c 0.0043,0.5831133 -0.09918,1.0980969 -0.322325,1.6087531 -0.127549,0.2918925 -0.277842,0.5446919 -0.459994,0.7650575 l -0.01929,0.023336 c 0.320407,0.1929711 0.546124,0.4240917 0.676938,0.6809867 0.178461,0.3504792 0.17943,0.750226 0.03921,1.1255302 -0.03596,0.086135 -0.0318,0.2148942 0.07704,0.4548791 0.695317,2.7409142 2.337293,6.7610832 3.373075,8.6863902 l 1.09e-4,2.18e-4 c 0.550228,1.020848 1.631172,3.169356 2.139711,5.780662 0.773115,0.04812 1.510683,0.298299 2.181055,0.614924 l 0.0015,7.47e-4 0.0015,6.39e-4 c 1.026123,0.499669 1.748403,0.969046 2.18798,1.5071 0.439575,0.538054 0.547471,1.129159 0.346727,1.781583 l 0.480452,0.05797 c 0.817344,-2.424039 0.499523,-4.839082 -0.3349,-7.045033 -1.024213,-2.707686 -2.82535,-5.089809 -4.206965,-6.722706 l -0.0029,-0.0034 -0.0027,-0.0034 c -1.55482,-1.961256 -3.138767,-3.8975332 -3.10767,-6.7522345 v -1.091e-4 c 0.02324,-2.1078785 0.129409,-5.0800637 -0.662145,-7.4849036 -0.395777,-1.2024199 -1.009653,-2.2566154 -1.957824,-3.0128151 -0.948171,-0.7561998 -2.238334,-1.2268566 -4.038717,-1.2293137 z m 0.836342,8.2594285 c -0.12153,3.819e-4 -0.203464,0.029164 -0.333194,0.1377743 -0.136263,0.1140852 -0.236647,0.2538781 -0.33117,0.4821569 -0.0942,0.227513 -0.139036,0.4434999 -0.148217,0.720838 l -6.38e-4,0.018114 -0.0013,0.00767 v 0.00213 0.00288 c -0.0032,0.1518382 0.0064,0.2860877 0.02888,0.4158799 l 0.05669,0.327334 c 0.09355,0.054411 0.18223,0.095674 0.278533,0.1575938 l 5.45e-4,4.365e-4 6.39e-4,3.273e-4 c 0.238102,0.1548377 0.462933,0.2460395 0.727763,0.3410793 l 0.119341,-0.1434219 c 0.07612,-0.091504 0.14214,-0.202353 0.204477,-0.3540788 0.09473,-0.2305648 0.139365,-0.4443111 0.148536,-0.7194528 l -2.18e-4,0.00906 c 0,-0.072672 0.004,-0.074122 0.004,-0.036229 v -0.00277 -0.00287 c 0.0055,-0.2622529 -0.02722,-0.4718612 -0.102612,-0.6980353 -0.07891,-0.236722 -0.16591,-0.3797653 -0.295474,-0.506132 -0.127404,-0.1242636 -0.20633,-0.1557357 -0.338629,-0.1598312 l -0.004,-1.091e-4 -0.0039,-3.273e-4 c 0.0016,1.091e-4 -0.0025,2.07e-5 -0.01002,0 z m -5.623282,0.3785863 c -0.0028,0 -0.0084,2.182e-4 -0.0162,8.51e-4 -0.06587,0.00568 -0.100622,0.019566 -0.180076,0.1163569 -0.0775,0.094406 -0.134138,0.2161004 -0.180503,0.4122575 -0.04559,0.192893 -0.05802,0.375416 -0.03804,0.6006453 l 0.0011,0.01204 v 0.01204 c 0,-0.019872 9.22e-4,-0.013352 0.0015,0.00714 0.02218,0.2171921 0.06294,0.3842404 0.137561,0.5595152 l 1.1e-4,2.182e-4 1.09e-4,3.273e-4 c 0.07707,0.1821614 0.153827,0.2885133 0.250722,0.3721929 0.01602,0.013836 0.03101,0.025523 0.04486,0.03527 l 0.110496,0.077784 c 0.10816,-0.1041484 0.233244,-0.2161021 0.378587,-0.336178 l 0.05445,-0.3842339 c 0.01944,-0.1373564 0.02254,-0.2748061 0.0071,-0.4358058 10e-4,0.00848 0.0022,0.017208 0.0042,0.027064 l -0.0042,-0.02781 c -0.0014,-0.011934 -0.0023,-0.022874 -0.0027,-0.032073 -0.02196,-0.213544 -0.06435,-0.3817418 -0.137988,-0.5591956 -0.07967,-0.1855061 -0.155017,-0.2916545 -0.250615,-0.374218 -0.08717,-0.07528 -0.124115,-0.084587 -0.178478,-0.084178 h -9.6e-4 z m 9.388902,31.4384458 c -2.902082,1.981119 -6.856364,2.831215 -10.277136,0.691961 0.510432,0.963792 0.688377,1.990012 0.350989,2.978505 1.061694,-0.01534 2.33662,-0.487464 4.362002,-0.599899 1.462983,-0.117738 3.143739,0.481193 5.043415,0.375709 -0.210704,-1.170268 0.292007,-2.412791 0.52073,-3.446276 z"
     style="color:#000000;font-style:normal;font-variant:normal;font-weight:normal;font-stretch:normal;font-size:medium;line-height:normal;font-family:'Bitstream Vera Sans';-inkscape-font-specification:'Bitstream Vera Sans';text-indent:0;text-align:start;text-decoration:none;text-decoration-line:none;letter-spacing:normal;word-spacing:normal;text-transform:none;writing-mode:lr-tb;direction:ltr;baseline-shift:baseline;text-anchor:start;display:inline;overflow:visible;visibility:visible;fill:#212121;fill-opacity:1;stroke:none;stroke-width:16.85769844;marker:none;enable-background:accumulate" /></g></g>
</svg>