<?xml version="1.0" encoding="UTF-8" standalone="no"?>
<!-- Generator: Adobe Illustrator 19.2.1, SVG Export Plug-In . SVG Version: 6.00 Build 0)  -->

<svg
   xmlns:dc="http://purl.org/dc/elements/1.1/"
   xmlns:cc="http://creativecommons.org/ns#"
   xmlns:rdf="http://www.w3.org/1999/02/22-rdf-syntax-ns#"
   xmlns:svg="http://www.w3.org/2000/svg"
   xmlns="http://www.w3.org/2000/svg"
   xmlns:sodipodi="http://sodipodi.sourceforge.net/DTD/sodipodi-0.dtd"
   xmlns:inkscape="http://www.inkscape.org/namespaces/inkscape"
   version="1.1"
   id="Layer_1"
   x="0px"
   y="0px"
   viewBox="0 0 50 40.3"
   style="enable-background:new 0 0 50 40.3;"
   xml:space="preserve"
   sodipodi:docname="download.svg"
   inkscape:version="0.92.4 (5da689c313, 2019-01-14)"><metadata
   id="metadata15"><rdf:RDF><cc:Work
       rdf:about=""><dc:format>image/svg+xml</dc:format><dc:type
         rdf:resource="http://purl.org/dc/dcmitype/StillImage" /><dc:title></dc:title></cc:Work></rdf:RDF></metadata><defs
   id="defs13" /><sodipodi:namedview
   pagecolor="#4a4a4a"
   bordercolor="#666666"
   borderopacity="1"
   objecttolerance="10"
   gridtolerance="10"
   guidetolerance="10"
   inkscape:pageopacity="0"
   inkscape:pageshadow="2"
   inkscape:window-width="1850"
   inkscape:window-height="1016"
   id="namedview11"
   showgrid="false"
   inkscape:zoom="5.2853599"
   inkscape:cx="25"
   inkscape:cy="20.15"
   inkscape:window-x="70"
   inkscape:window-y="27"
   inkscape:window-maximized="1"
   inkscape:current-layer="g8" />
<style
   type="text/css"
   id="style2">
	.st0{fill:#F2F2F2;}
</style>
<g
   id="g8">
	<path
   class="st0"
   d="M48.5,5.3c0-1.5-0.9-2-2.1-2S24,3.3,23,3.3s-1.2-1-1.2-1.8c0-0.7-0.5-1.5-1.4-1.5C19.5,0,7.2,0,6,0   C4.8,0,4.8,1.2,4.8,1.6S4.3,3.2,3.4,3.2C2.2,3.2,1.7,4,1.7,4.6c0,0.3,0,1.3,0,1.3l46.8,0.3V5.3z"
   id="path4" />
	<path
   d="M 48.4,7.4 H 1.6 C 0.7,7.4 0,8.1 0,9 l 1.3,29.7 c 0,0.9 0.7,1.6 1.6,1.6 h 44.2 c 0.9,0 1.6,-0.7 1.6,-1.6 L 50,9 C 50,8.1 49.3,7.4 48.4,7.4 Z"
   id="path19"
   style="fill:#f2f2f2;fill-opacity:1" />
<path
   inkscape:connector-curvature="0"
   id="path4-3"
   d="m 34.141367,30.008812 c -0.397146,0.91749 -0.867237,1.762031 -1.41189,2.538495 -0.74242,1.058512 -1.350296,1.791205 -1.818767,2.198078 -0.72621,0.667854 -1.504291,1.009887 -2.337487,1.029338 -0.598149,0 -1.319498,-0.170205 -2.159176,-0.51548 -0.842435,-0.343654 -1.616627,-0.513858 -2.324518,-0.513858 -0.742421,0 -1.538657,0.170204 -2.390331,0.513858 -0.852974,0.345275 -1.54012,0.525207 -2.065484,0.543038 -0.798994,0.03404 -1.595389,-0.317717 -2.390331,-1.056896 -0.507373,-0.442534 -1.141997,-1.201163 -1.902247,-2.27589 -0.815687,-1.147667 -1.486298,-2.478513 -2.011668,-3.995773 -0.562646,-1.638834 -0.844702,-3.225795 -0.844702,-4.762179 0,-1.759926 0.380288,-3.277833 1.141996,-4.549832 0.598637,-1.02172 1.395036,-1.827681 2.391788,-2.419348 0.996756,-0.591666 2.07375,-0.893173 3.233581,-0.912465 0.634623,0 1.466846,0.196304 2.501046,0.582102 1.031281,0.387095 1.693462,0.583401 1.983785,0.583401 0.21705,0 0.952661,-0.229535 2.199698,-0.687142 1.179281,-0.424381 2.174579,-0.600099 2.989941,-0.530879 2.209429,0.178308 3.869335,1.049274 4.973241,2.618404 -1.976004,1.197275 -2.953471,2.874201 -2.934021,5.025437 0.01783,1.675631 0.625712,3.070016 1.820388,4.177163 0.541416,0.513858 1.146052,0.911003 1.818767,1.193056 -0.145893,0.423082 -0.299887,0.828334 -0.463609,1.217372 z M 29.074113,10.068853 c 0,1.313354 -0.479818,2.539627 -1.436211,3.674652 -1.154155,1.349323 -2.55016,2.129024 -4.064016,2.005991 -0.01929,-0.157561 -0.03049,-0.323388 -0.03049,-0.497645 0,-1.260818 0.548872,-2.610141 1.523579,-3.713394 0.486627,-0.5586 1.105525,-1.023067 1.856048,-1.39358 0.748907,-0.3649828 1.457282,-0.5668308 2.123515,-0.6013939 0.01947,0.1755763 0.02757,0.3511612 0.02757,0.5253529 z"
   style="fill:#212121;fill-opacity:1;stroke-width:0.0221202" /></g>
</svg>