<?xml version="1.0" encoding="UTF-8" standalone="no"?>
<!-- Generator: Adobe Illustrator 19.2.1, SVG Export Plug-In . SVG Version: 6.00 Build 0)  -->

<svg
   xmlns:dc="http://purl.org/dc/elements/1.1/"
   xmlns:cc="http://creativecommons.org/ns#"
   xmlns:rdf="http://www.w3.org/1999/02/22-rdf-syntax-ns#"
   xmlns:svg="http://www.w3.org/2000/svg"
   xmlns="http://www.w3.org/2000/svg"
   xmlns:sodipodi="http://sodipodi.sourceforge.net/DTD/sodipodi-0.dtd"
   xmlns:inkscape="http://www.inkscape.org/namespaces/inkscape"
   version="1.1"
   id="Layer_1"
   x="0px"
   y="0px"
   viewBox="0 0 50 40.3"
   style="enable-background:new 0 0 50 40.3;"
   xml:space="preserve"
   sodipodi:docname="download.svg"
   inkscape:version="0.92.4 (5da689c313, 2019-01-14)"><metadata
   id="metadata15"><rdf:RDF><cc:Work
       rdf:about=""><dc:format>image/svg+xml</dc:format><dc:type
         rdf:resource="http://purl.org/dc/dcmitype/StillImage" /><dc:title></dc:title></cc:Work></rdf:RDF></metadata><defs
   id="defs13" /><sodipodi:namedview
   pagecolor="#4a4a4a"
   bordercolor="#666666"
   borderopacity="1"
   objecttolerance="10"
   gridtolerance="10"
   guidetolerance="10"
   inkscape:pageopacity="0"
   inkscape:pageshadow="2"
   inkscape:window-width="1850"
   inkscape:window-height="1016"
   id="namedview11"
   showgrid="false"
   inkscape:zoom="7.4746277"
   inkscape:cx="25"
   inkscape:cy="20.15"
   inkscape:window-x="70"
   inkscape:window-y="27"
   inkscape:window-maximized="1"
   inkscape:current-layer="g8" />
<style
   type="text/css"
   id="style2">
	.st0{fill:#F2F2F2;}
</style>
<g
   id="g8">
	<path
   class="st0"
   d="M48.5,5.3c0-1.5-0.9-2-2.1-2S24,3.3,23,3.3s-1.2-1-1.2-1.8c0-0.7-0.5-1.5-1.4-1.5C19.5,0,7.2,0,6,0   C4.8,0,4.8,1.2,4.8,1.6S4.3,3.2,3.4,3.2C2.2,3.2,1.7,4,1.7,4.6c0,0.3,0,1.3,0,1.3l46.8,0.3V5.3z"
   id="path4" />
	<path
   d="M 48.4,7.4 H 1.6 C 0.7,7.4 0,8.1 0,9 l 1.3,29.7 c 0,0.9 0.7,1.6 1.6,1.6 h 44.2 c 0.9,0 1.6,-0.7 1.6,-1.6 L 50,9 C 50,8.1 49.3,7.4 48.4,7.4 Z"
   id="path19"
   style="fill:#f2f2f2;fill-opacity:1" />
<path
   style="fill:#212121;fill-opacity:1;stroke-width:0.28791404"
   inkscape:connector-curvature="0"
   d="m 11.447528,14.065125 10.278531,-1.410779 v 9.933033 H 11.447528 M 22.964089,12.458565 36.582422,10.469079 V 22.503884 H 22.964089 m -11.516561,1.134381 h 10.278531 v 9.961826 L 11.447528,32.160521 M 22.964089,23.770706 H 36.582422 V 35.690347 L 22.964089,33.761323"
   id="path945" /></g>
</svg>